<svg width="1062" height="392" viewBox="0 0 1062 392" fill="none" xmlns="http://www.w3.org/2000/svg">
<path d="M244.08 210L235.58 182H242.44L247.28 200.1L252.5 182H259.14L264.36 200.08L269.2 182H275.9L267.4 210H260.86L255.72 191.82L250.56 210H244.08ZM279.204 210V181.2H285.764V194.16L284.404 192.54C285.284 191.46 286.331 190.6 287.544 189.96C288.758 189.32 290.098 189 291.564 189C293.471 189 295.058 189.38 296.324 190.14C297.604 190.9 298.558 191.893 299.184 193.12C299.811 194.347 300.124 195.667 300.124 197.08V210H293.564V198.92C293.564 197.747 293.224 196.793 292.544 196.06C291.864 195.327 290.911 194.953 289.684 194.94C288.858 194.927 288.151 195.093 287.564 195.44C286.991 195.773 286.544 196.26 286.224 196.9C285.918 197.527 285.764 198.273 285.764 199.14V210H279.204ZM313.836 210.6C311.916 210.6 310.196 210.153 308.676 209.26C307.156 208.353 305.956 207.093 305.076 205.48C304.196 203.853 303.756 201.96 303.756 199.8C303.756 198.173 304.01 196.7 304.516 195.38C305.023 194.047 305.73 192.907 306.636 191.96C307.543 191.013 308.61 190.287 309.836 189.78C311.063 189.26 312.396 189 313.836 189C315.73 189 317.343 189.413 318.676 190.24C320.01 191.053 320.963 192.14 321.536 193.5L320.636 194.92V189.6H326.276V210H320.636V204.68L321.536 206.08C320.963 207.44 320.01 208.533 318.676 209.36C317.343 210.187 315.73 210.6 313.836 210.6ZM314.956 204.96C315.863 204.96 316.676 204.753 317.396 204.34C318.13 203.913 318.71 203.313 319.136 202.54C319.563 201.767 319.776 200.853 319.776 199.8C319.776 198.733 319.563 197.82 319.136 197.06C318.71 196.287 318.13 195.693 317.396 195.28C316.676 194.853 315.863 194.64 314.956 194.64C314.05 194.64 313.236 194.853 312.516 195.28C311.796 195.693 311.223 196.287 310.796 197.06C310.37 197.82 310.156 198.733 310.156 199.8C310.156 200.853 310.37 201.767 310.796 202.54C311.223 203.313 311.796 203.913 312.516 204.34C313.236 204.753 314.05 204.96 314.956 204.96ZM340.684 210.6C338.418 210.6 336.638 209.967 335.344 208.7C334.051 207.42 333.404 205.513 333.404 202.98V183.76H339.964V189.6H344.744V194.8H339.964V201.84C339.964 202.933 340.204 203.7 340.684 204.14C341.164 204.58 341.784 204.8 342.544 204.8C342.958 204.8 343.364 204.753 343.764 204.66C344.178 204.553 344.558 204.4 344.904 204.2L345.744 209.34C345.118 209.687 344.364 209.98 343.484 210.22C342.604 210.473 341.671 210.6 340.684 210.6ZM329.444 194.8V189.6H334.004V194.8H329.444ZM368.632 210.6C366.405 210.6 364.439 210.113 362.732 209.14C361.025 208.153 359.685 206.84 358.712 205.2C357.752 203.56 357.272 201.76 357.272 199.8C357.272 198.373 357.545 197.013 358.092 195.72C358.652 194.413 359.439 193.26 360.452 192.26C361.465 191.247 362.665 190.453 364.052 189.88C365.439 189.293 366.965 189 368.632 189C370.859 189 372.825 189.493 374.532 190.48C376.239 191.453 377.572 192.76 378.532 194.4C379.492 196.04 379.972 197.84 379.972 199.8C379.972 201.227 379.699 202.593 379.152 203.9C378.605 205.193 377.825 206.34 376.812 207.34C375.799 208.34 374.599 209.133 373.212 209.72C371.825 210.307 370.299 210.6 368.632 210.6ZM368.632 204.96C369.565 204.96 370.405 204.753 371.152 204.34C371.899 203.913 372.485 203.313 372.912 202.54C373.339 201.767 373.552 200.853 373.552 199.8C373.552 198.733 373.339 197.82 372.912 197.06C372.499 196.287 371.919 195.693 371.172 195.28C370.425 194.853 369.579 194.64 368.632 194.64C367.685 194.64 366.839 194.853 366.092 195.28C365.345 195.693 364.759 196.287 364.332 197.06C363.905 197.82 363.692 198.733 363.692 199.8C363.692 200.853 363.905 201.767 364.332 202.54C364.772 203.313 365.365 203.913 366.112 204.34C366.859 204.753 367.699 204.96 368.632 204.96ZM391.814 210.6C389.96 210.6 388.427 210.24 387.214 209.52C386 208.787 385.094 207.78 384.494 206.5C383.907 205.207 383.614 203.707 383.614 202V189.6H390.174V201.02C390.174 202.14 390.467 203.027 391.054 203.68C391.654 204.333 392.52 204.66 393.654 204.66C394.387 204.66 395.027 204.5 395.574 204.18C396.134 203.847 396.56 203.393 396.854 202.82C397.16 202.247 397.314 201.58 397.314 200.82V189.6H403.874V210H398.214V207.84C397.56 208.573 396.734 209.22 395.734 209.78C394.734 210.327 393.427 210.6 391.814 210.6ZM409.322 210V189.6H415.882V191.98C416.495 190.927 417.308 190.16 418.322 189.68C419.335 189.2 420.435 188.96 421.622 188.96C422.075 188.96 422.482 188.987 422.842 189.04C423.202 189.093 423.555 189.153 423.902 189.22L423.122 195.96C422.668 195.8 422.188 195.673 421.682 195.58C421.175 195.473 420.668 195.42 420.162 195.42C418.922 195.42 417.895 195.78 417.082 196.5C416.282 197.207 415.882 198.247 415.882 199.62V210H409.322ZM436.275 218.4V189.6H441.935V191.94C442.695 191.047 443.661 190.333 444.835 189.8C446.021 189.267 447.395 189 448.955 189C450.901 189 452.635 189.447 454.155 190.34C455.688 191.233 456.895 192.493 457.775 194.12C458.655 195.747 459.095 197.64 459.095 199.8C459.095 201.32 458.841 202.74 458.335 204.06C457.841 205.367 457.135 206.513 456.215 207.5C455.295 208.473 454.208 209.233 452.955 209.78C451.715 210.327 450.341 210.6 448.835 210.6C447.635 210.6 446.528 210.407 445.515 210.02C444.515 209.633 443.615 209.087 442.815 208.38V218.4H436.275ZM447.735 204.96C448.681 204.96 449.528 204.753 450.275 204.34C451.021 203.913 451.608 203.313 452.035 202.54C452.461 201.767 452.675 200.853 452.675 199.8C452.675 198.733 452.455 197.82 452.015 197.06C451.588 196.287 451.001 195.693 450.255 195.28C449.521 194.853 448.681 194.64 447.735 194.64C446.801 194.64 445.961 194.853 445.215 195.28C444.468 195.693 443.881 196.287 443.455 197.06C443.028 197.82 442.815 198.733 442.815 199.8C442.815 200.853 443.028 201.767 443.455 202.54C443.881 203.313 444.461 203.913 445.195 204.34C445.941 204.753 446.788 204.96 447.735 204.96ZM471.571 210.6C469.651 210.6 467.931 210.153 466.411 209.26C464.891 208.353 463.691 207.093 462.811 205.48C461.931 203.853 461.491 201.96 461.491 199.8C461.491 198.173 461.744 196.7 462.251 195.38C462.757 194.047 463.464 192.907 464.371 191.96C465.277 191.013 466.344 190.287 467.571 189.78C468.797 189.26 470.131 189 471.571 189C473.464 189 475.077 189.413 476.411 190.24C477.744 191.053 478.697 192.14 479.271 193.5L478.371 194.92V189.6H484.011V210H478.371V204.68L479.271 206.08C478.697 207.44 477.744 208.533 476.411 209.36C475.077 210.187 473.464 210.6 471.571 210.6ZM472.691 204.96C473.597 204.96 474.411 204.753 475.131 204.34C475.864 203.913 476.444 203.313 476.871 202.54C477.297 201.767 477.511 200.853 477.511 199.8C477.511 198.733 477.297 197.82 476.871 197.06C476.444 196.287 475.864 195.693 475.131 195.28C474.411 194.853 473.597 194.64 472.691 194.64C471.784 194.64 470.971 194.853 470.251 195.28C469.531 195.693 468.957 196.287 468.531 197.06C468.104 197.82 467.891 198.733 467.891 199.8C467.891 200.853 468.104 201.767 468.531 202.54C468.957 203.313 469.531 203.913 470.251 204.34C470.971 204.753 471.784 204.96 472.691 204.96ZM489.439 210V189.6H495.999V191.98C496.612 190.927 497.425 190.16 498.439 189.68C499.452 189.2 500.552 188.96 501.739 188.96C502.192 188.96 502.599 188.987 502.959 189.04C503.319 189.093 503.672 189.153 504.019 189.22L503.239 195.96C502.785 195.8 502.305 195.673 501.799 195.58C501.292 195.473 500.785 195.42 500.279 195.42C499.039 195.42 498.012 195.78 497.199 196.5C496.399 197.207 495.999 198.247 495.999 199.62V210H489.439ZM516.466 210.6C514.199 210.6 512.419 209.967 511.126 208.7C509.832 207.42 509.186 205.513 509.186 202.98V183.76H515.746V189.6H520.526V194.8H515.746V201.84C515.746 202.933 515.986 203.7 516.466 204.14C516.946 204.58 517.566 204.8 518.326 204.8C518.739 204.8 519.146 204.753 519.546 204.66C519.959 204.553 520.339 204.4 520.686 204.2L521.526 209.34C520.899 209.687 520.146 209.98 519.266 210.22C518.386 210.473 517.452 210.6 516.466 210.6ZM505.226 194.8V189.6H509.786V194.8H505.226ZM525.454 210V189.6H532.014V191.76C532.774 190.8 533.674 190.1 534.714 189.66C535.754 189.22 536.848 189 537.994 189C539.914 189 541.494 189.38 542.734 190.14C543.974 190.887 544.888 191.86 545.474 193.06C546.074 194.247 546.374 195.507 546.374 196.84V210H539.814V198.9C539.814 197.673 539.488 196.707 538.834 196C538.194 195.293 537.248 194.94 535.994 194.94C535.194 194.94 534.494 195.113 533.894 195.46C533.308 195.807 532.848 196.3 532.514 196.94C532.181 197.567 532.014 198.287 532.014 199.1V210H525.454ZM561.286 210.6C559.046 210.6 557.08 210.153 555.386 209.26C553.693 208.353 552.373 207.093 551.426 205.48C550.48 203.853 550.006 201.953 550.006 199.78C550.006 198.207 550.28 196.76 550.826 195.44C551.386 194.12 552.16 192.98 553.146 192.02C554.146 191.06 555.32 190.32 556.666 189.8C558.026 189.267 559.52 189 561.146 189C562.933 189 564.526 189.32 565.926 189.96C567.326 190.587 568.48 191.467 569.386 192.6C570.306 193.72 570.94 195.047 571.286 196.58C571.633 198.1 571.646 199.753 571.326 201.54H556.006C556.02 202.34 556.26 203.04 556.726 203.64C557.193 204.24 557.833 204.713 558.646 205.06C559.46 205.393 560.406 205.56 561.486 205.56C562.686 205.56 563.826 205.407 564.906 205.1C565.986 204.78 567.02 204.293 568.006 203.64L570.066 208.08C569.44 208.56 568.626 208.993 567.626 209.38C566.64 209.753 565.586 210.047 564.466 210.26C563.36 210.487 562.3 210.6 561.286 210.6ZM556.406 197.12H565.086C565.06 196.093 564.68 195.273 563.946 194.66C563.213 194.047 562.22 193.74 560.966 193.74C559.7 193.74 558.646 194.047 557.806 194.66C556.98 195.273 556.513 196.093 556.406 197.12ZM575.376 210V189.6H581.936V191.98C582.55 190.927 583.363 190.16 584.376 189.68C585.39 189.2 586.49 188.96 587.676 188.96C588.13 188.96 588.536 188.987 588.896 189.04C589.256 189.093 589.61 189.153 589.956 189.22L589.176 195.96C588.723 195.8 588.243 195.673 587.736 195.58C587.23 195.473 586.723 195.42 586.216 195.42C584.976 195.42 583.95 195.78 583.136 196.5C582.336 197.207 581.936 198.247 581.936 199.62V210H575.376ZM600.771 210.56C598.877 210.56 597.144 210.327 595.571 209.86C594.011 209.393 592.664 208.733 591.531 207.88L593.571 203.38C594.677 204.087 595.864 204.647 597.131 205.06C598.397 205.46 599.597 205.66 600.731 205.66C601.771 205.66 602.564 205.52 603.111 205.24C603.657 204.947 603.931 204.527 603.931 203.98C603.931 203.5 603.677 203.147 603.171 202.92C602.677 202.693 601.704 202.447 600.251 202.18C597.504 201.713 595.491 200.947 594.211 199.88C592.944 198.8 592.311 197.327 592.311 195.46C592.311 194.127 592.677 192.96 593.411 191.96C594.144 190.96 595.157 190.187 596.451 189.64C597.757 189.08 599.257 188.8 600.951 188.8C602.604 188.8 604.164 189.02 605.631 189.46C607.111 189.9 608.377 190.513 609.431 191.3L607.451 195.8C606.904 195.387 606.271 195.02 605.551 194.7C604.844 194.38 604.111 194.133 603.351 193.96C602.591 193.787 601.851 193.7 601.131 193.7C600.237 193.7 599.511 193.84 598.951 194.12C598.404 194.387 598.131 194.76 598.131 195.24C598.131 195.733 598.371 196.1 598.851 196.34C599.331 196.58 600.291 196.853 601.731 197.16C604.637 197.747 606.697 198.54 607.911 199.54C609.124 200.527 609.731 201.913 609.731 203.7C609.731 205.087 609.351 206.293 608.591 207.32C607.844 208.347 606.797 209.147 605.451 209.72C604.117 210.28 602.557 210.56 600.771 210.56ZM631.688 210.6C629.768 210.6 628.048 210.153 626.528 209.26C625.008 208.353 623.808 207.093 622.928 205.48C622.048 203.853 621.608 201.96 621.608 199.8C621.608 198.173 621.861 196.7 622.368 195.38C622.874 194.047 623.581 192.907 624.488 191.96C625.394 191.013 626.461 190.287 627.688 189.78C628.914 189.26 630.248 189 631.688 189C633.581 189 635.194 189.413 636.528 190.24C637.861 191.053 638.814 192.14 639.388 193.5L638.488 194.92V189.6H644.128V210H638.488V204.68L639.388 206.08C638.814 207.44 637.861 208.533 636.528 209.36C635.194 210.187 633.581 210.6 631.688 210.6ZM632.808 204.96C633.714 204.96 634.528 204.753 635.248 204.34C635.981 203.913 636.561 203.313 636.988 202.54C637.414 201.767 637.628 200.853 637.628 199.8C637.628 198.733 637.414 197.82 636.988 197.06C636.561 196.287 635.981 195.693 635.248 195.28C634.528 194.853 633.714 194.64 632.808 194.64C631.901 194.64 631.088 194.853 630.368 195.28C629.648 195.693 629.074 196.287 628.648 197.06C628.221 197.82 628.008 198.733 628.008 199.8C628.008 200.853 628.221 201.767 628.648 202.54C629.074 203.313 629.648 203.913 630.368 204.34C631.088 204.753 631.901 204.96 632.808 204.96ZM649.556 210V189.6H656.116V191.98C656.729 190.927 657.543 190.16 658.556 189.68C659.569 189.2 660.669 188.96 661.856 188.96C662.309 188.96 662.716 188.987 663.076 189.04C663.436 189.093 663.789 189.153 664.136 189.22L663.356 195.96C662.903 195.8 662.423 195.673 661.916 195.58C661.409 195.473 660.903 195.42 660.396 195.42C659.156 195.42 658.129 195.78 657.316 196.5C656.516 197.207 656.116 198.247 656.116 199.62V210H649.556ZM676.56 210.6C674.32 210.6 672.353 210.153 670.66 209.26C668.966 208.353 667.646 207.093 666.7 205.48C665.753 203.853 665.28 201.953 665.28 199.78C665.28 198.207 665.553 196.76 666.1 195.44C666.66 194.12 667.433 192.98 668.42 192.02C669.42 191.06 670.593 190.32 671.94 189.8C673.3 189.267 674.793 189 676.42 189C678.206 189 679.8 189.32 681.2 189.96C682.6 190.587 683.753 191.467 684.66 192.6C685.58 193.72 686.213 195.047 686.56 196.58C686.906 198.1 686.92 199.753 686.6 201.54H671.28C671.293 202.34 671.533 203.04 672 203.64C672.466 204.24 673.106 204.713 673.92 205.06C674.733 205.393 675.68 205.56 676.76 205.56C677.96 205.56 679.1 205.407 680.18 205.1C681.26 204.78 682.293 204.293 683.28 203.64L685.34 208.08C684.713 208.56 683.9 208.993 682.9 209.38C681.913 209.753 680.86 210.047 679.74 210.26C678.633 210.487 677.573 210.6 676.56 210.6ZM671.68 197.12H680.36C680.333 196.093 679.953 195.273 679.22 194.66C678.486 194.047 677.493 193.74 676.24 193.74C674.973 193.74 673.92 194.047 673.08 194.66C672.253 195.273 671.786 196.093 671.68 197.12ZM707.528 210.56C705.635 210.56 703.902 210.327 702.328 209.86C700.768 209.393 699.422 208.733 698.288 207.88L700.328 203.38C701.435 204.087 702.622 204.647 703.888 205.06C705.155 205.46 706.355 205.66 707.488 205.66C708.528 205.66 709.322 205.52 709.868 205.24C710.415 204.947 710.688 204.527 710.688 203.98C710.688 203.5 710.435 203.147 709.928 202.92C709.435 202.693 708.462 202.447 707.008 202.18C704.262 201.713 702.248 200.947 700.968 199.88C699.702 198.8 699.068 197.327 699.068 195.46C699.068 194.127 699.435 192.96 700.168 191.96C700.902 190.96 701.915 190.187 703.208 189.64C704.515 189.08 706.015 188.8 707.708 188.8C709.362 188.8 710.922 189.02 712.388 189.46C713.868 189.9 715.135 190.513 716.188 191.3L714.208 195.8C713.662 195.387 713.028 195.02 712.308 194.7C711.602 194.38 710.868 194.133 710.108 193.96C709.348 193.787 708.608 193.7 707.888 193.7C706.995 193.7 706.268 193.84 705.708 194.12C705.162 194.387 704.888 194.76 704.888 195.24C704.888 195.733 705.128 196.1 705.608 196.34C706.088 196.58 707.048 196.853 708.488 197.16C711.395 197.747 713.455 198.54 714.668 199.54C715.882 200.527 716.488 201.913 716.488 203.7C716.488 205.087 716.108 206.293 715.348 207.32C714.602 208.347 713.555 209.147 712.208 209.72C710.875 210.28 709.315 210.56 707.528 210.56ZM729.227 210.6C727.307 210.6 725.587 210.153 724.067 209.26C722.547 208.353 721.347 207.093 720.467 205.48C719.587 203.853 719.147 201.96 719.147 199.8C719.147 198.173 719.4 196.7 719.907 195.38C720.414 194.047 721.12 192.907 722.027 191.96C722.934 191.013 724 190.287 725.227 189.78C726.454 189.26 727.787 189 729.227 189C731.12 189 732.734 189.413 734.067 190.24C735.4 191.053 736.354 192.14 736.927 193.5L736.027 194.92V189.6H741.667V210H736.027V204.68L736.927 206.08C736.354 207.44 735.4 208.533 734.067 209.36C732.734 210.187 731.12 210.6 729.227 210.6ZM730.347 204.96C731.254 204.96 732.067 204.753 732.787 204.34C733.52 203.913 734.1 203.313 734.527 202.54C734.954 201.767 735.167 200.853 735.167 199.8C735.167 198.733 734.954 197.82 734.527 197.06C734.1 196.287 733.52 195.693 732.787 195.28C732.067 194.853 731.254 194.64 730.347 194.64C729.44 194.64 728.627 194.853 727.907 195.28C727.187 195.693 726.614 196.287 726.187 197.06C725.76 197.82 725.547 198.733 725.547 199.8C725.547 200.853 725.76 201.767 726.187 202.54C726.614 203.313 727.187 203.913 727.907 204.34C728.627 204.753 729.44 204.96 730.347 204.96ZM750.135 218.94C749.202 218.94 748.288 218.847 747.395 218.66C746.502 218.473 745.682 218.173 744.935 217.76L746.315 212.28C746.755 212.507 747.235 212.687 747.755 212.82C748.275 212.953 748.762 213.02 749.215 213.02C749.948 213.02 750.568 212.867 751.075 212.56C751.595 212.253 751.968 211.747 752.195 211.04L752.495 210.08L744.575 189.6H751.695L756.215 203.58L760.595 189.6H767.535L759.075 212.02C758.382 213.753 757.575 215.12 756.655 216.12C755.748 217.133 754.742 217.853 753.635 218.28C752.528 218.72 751.362 218.94 750.135 218.94ZM770.376 210V189.6H776.936V210H770.376ZM773.656 186.58C772.603 186.58 771.683 186.253 770.896 185.6C770.123 184.933 769.736 184.04 769.736 182.92C769.736 181.8 770.123 180.913 770.896 180.26C771.683 179.607 772.603 179.28 773.656 179.28C774.723 179.28 775.643 179.607 776.416 180.26C777.19 180.913 777.576 181.8 777.576 182.92C777.576 184.04 777.19 184.933 776.416 185.6C775.643 186.253 774.723 186.58 773.656 186.58ZM782.408 210V189.6H788.968V191.76C789.728 190.8 790.628 190.1 791.668 189.66C792.708 189.22 793.801 189 794.948 189C796.868 189 798.448 189.38 799.688 190.14C800.928 190.887 801.841 191.86 802.428 193.06C803.028 194.247 803.328 195.507 803.328 196.84V210H796.768V198.9C796.768 197.673 796.441 196.707 795.788 196C795.148 195.293 794.201 194.94 792.948 194.94C792.148 194.94 791.448 195.113 790.848 195.46C790.261 195.807 789.801 196.3 789.468 196.94C789.134 197.567 788.968 198.287 788.968 199.1V210H782.408ZM817.619 219C816.153 219 814.759 218.86 813.439 218.58C812.119 218.313 810.906 217.873 809.799 217.26L811.159 212.08C812.093 212.533 813.059 212.867 814.059 213.08C815.059 213.307 816.093 213.42 817.159 213.42C819.226 213.42 820.793 212.98 821.859 212.1C822.939 211.233 823.479 210 823.479 208.4V203.92L824.319 205.32C823.799 206.667 822.886 207.733 821.579 208.52C820.286 209.307 818.686 209.7 816.779 209.7C814.806 209.7 813.079 209.26 811.599 208.38C810.119 207.5 808.966 206.28 808.139 204.72C807.313 203.16 806.899 201.367 806.899 199.34C806.899 197.833 807.133 196.447 807.599 195.18C808.066 193.913 808.733 192.82 809.599 191.9C810.479 190.967 811.526 190.253 812.739 189.76C813.953 189.253 815.299 189 816.779 189C818.686 189 820.286 189.393 821.579 190.18C822.886 190.953 823.799 192.013 824.319 193.36L823.479 194.78V189.56H829.399V207.3C829.399 211.047 828.393 213.933 826.379 215.96C824.366 217.987 821.446 219 817.619 219ZM818.099 204.2C819.033 204.2 819.859 204 820.579 203.6C821.313 203.2 821.879 202.633 822.279 201.9C822.693 201.167 822.899 200.313 822.899 199.34C822.899 198.38 822.693 197.533 822.279 196.8C821.879 196.067 821.313 195.5 820.579 195.1C819.859 194.687 819.033 194.48 818.099 194.48C817.153 194.48 816.319 194.687 815.599 195.1C814.879 195.5 814.313 196.067 813.899 196.8C813.486 197.533 813.279 198.38 813.279 199.34C813.279 200.313 813.486 201.167 813.899 201.9C814.313 202.633 814.879 203.2 815.599 203.6C816.319 204 817.153 204.2 818.099 204.2Z" fill="#025949"/>
<path d="M871.26 228.26L867.12 218.9C881.88 212.78 889.98 203.6 889.98 190.1L886.56 174.8L896.28 188.48C893.76 191.72 890.16 192.62 886.74 192.62C879.36 192.62 873.24 188.3 873.24 179.66C873.24 171.2 879.72 166.7 886.92 166.7C897 166.7 902.4 174.98 902.4 187.58C902.4 207.02 890.16 221.78 871.26 228.26Z" fill="#F25C78"/>
<path d="M910.26 228.26L906.12 218.9C920.88 212.78 928.98 203.6 928.98 190.1L925.56 174.8L935.28 188.48C932.76 191.72 929.16 192.62 925.74 192.62C918.36 192.62 912.24 188.3 912.24 179.66C912.24 171.2 918.72 166.7 925.92 166.7C936 166.7 941.4 174.98 941.4 187.58C941.4 207.02 929.16 221.78 910.26 228.26Z" fill="#F25C78"/>
<path d="M190.74 163.74L194.88 173.1C180.12 179.22 172.02 188.4 172.02 201.9L175.44 217.2L165.72 203.52C168.24 200.28 171.84 199.38 175.26 199.38C182.64 199.38 188.76 203.7 188.76 212.34C188.76 220.8 182.28 225.3 175.08 225.3C165 225.3 159.6 217.02 159.6 204.42C159.6 184.98 171.84 170.22 190.74 163.74Z" fill="#F25C78"/>
<path d="M151.74 163.74L155.88 173.1C141.12 179.22 133.02 188.4 133.02 201.9L136.44 217.2L126.72 203.52C129.24 200.28 132.84 199.38 136.26 199.38C143.64 199.38 149.76 203.7 149.76 212.34C149.76 220.8 143.28 225.3 136.08 225.3C126 225.3 120.6 217.02 120.6 204.42C120.6 184.98 132.84 170.22 151.74 163.74Z" fill="#F25C78"/>
</svg>
