<svg width="1051" height="391" viewBox="0 0 1051 391" fill="none" xmlns="http://www.w3.org/2000/svg">
<path d="M241.08 210L232.58 182H239.44L244.28 200.1L249.5 182H256.14L261.36 200.08L266.2 182H272.9L264.4 210H257.86L252.72 191.82L247.56 210H241.08ZM276.204 210V181.2H282.764V194.16L281.404 192.54C282.284 191.46 283.331 190.6 284.544 189.96C285.758 189.32 287.098 189 288.564 189C290.471 189 292.058 189.38 293.324 190.14C294.604 190.9 295.558 191.893 296.184 193.12C296.811 194.347 297.124 195.667 297.124 197.08V210H290.564V198.92C290.564 197.747 290.224 196.793 289.544 196.06C288.864 195.327 287.911 194.953 286.684 194.94C285.858 194.927 285.151 195.093 284.564 195.44C283.991 195.773 283.544 196.26 283.224 196.9C282.918 197.527 282.764 198.273 282.764 199.14V210H276.204ZM305.026 218.94C304.092 218.94 303.179 218.847 302.286 218.66C301.392 218.473 300.572 218.173 299.826 217.76L301.206 212.28C301.646 212.507 302.126 212.687 302.646 212.82C303.166 212.953 303.652 213.02 304.106 213.02C304.839 213.02 305.459 212.867 305.966 212.56C306.486 212.253 306.859 211.747 307.086 211.04L307.386 210.08L299.466 189.6H306.586L311.106 203.58L315.486 189.6H322.426L313.966 212.02C313.272 213.753 312.466 215.12 311.546 216.12C310.639 217.133 309.632 217.853 308.526 218.28C307.419 218.72 306.252 218.94 305.026 218.94ZM342.146 210.56C340.252 210.56 338.519 210.327 336.946 209.86C335.386 209.393 334.039 208.733 332.906 207.88L334.946 203.38C336.052 204.087 337.239 204.647 338.506 205.06C339.772 205.46 340.972 205.66 342.106 205.66C343.146 205.66 343.939 205.52 344.486 205.24C345.032 204.947 345.306 204.527 345.306 203.98C345.306 203.5 345.052 203.147 344.546 202.92C344.052 202.693 343.079 202.447 341.626 202.18C338.879 201.713 336.866 200.947 335.586 199.88C334.319 198.8 333.686 197.327 333.686 195.46C333.686 194.127 334.052 192.96 334.786 191.96C335.519 190.96 336.532 190.187 337.826 189.64C339.132 189.08 340.632 188.8 342.326 188.8C343.979 188.8 345.539 189.02 347.006 189.46C348.486 189.9 349.752 190.513 350.806 191.3L348.826 195.8C348.279 195.387 347.646 195.02 346.926 194.7C346.219 194.38 345.486 194.133 344.726 193.96C343.966 193.787 343.226 193.7 342.506 193.7C341.612 193.7 340.886 193.84 340.326 194.12C339.779 194.387 339.506 194.76 339.506 195.24C339.506 195.733 339.746 196.1 340.226 196.34C340.706 196.58 341.666 196.853 343.106 197.16C346.012 197.747 348.072 198.54 349.286 199.54C350.499 200.527 351.106 201.913 351.106 203.7C351.106 205.087 350.726 206.293 349.966 207.32C349.219 208.347 348.172 209.147 346.826 209.72C345.492 210.28 343.932 210.56 342.146 210.56ZM355.384 210V181.2H361.944V194.16L360.584 192.54C361.464 191.46 362.511 190.6 363.724 189.96C364.937 189.32 366.277 189 367.744 189C369.651 189 371.237 189.38 372.504 190.14C373.784 190.9 374.737 191.893 375.364 193.12C375.991 194.347 376.304 195.667 376.304 197.08V210H369.744V198.92C369.744 197.747 369.404 196.793 368.724 196.06C368.044 195.327 367.091 194.953 365.864 194.94C365.037 194.927 364.331 195.093 363.744 195.44C363.171 195.773 362.724 196.26 362.404 196.9C362.097 197.527 361.944 198.273 361.944 199.14V210H355.384ZM391.296 210.6C389.069 210.6 387.103 210.113 385.396 209.14C383.689 208.153 382.349 206.84 381.376 205.2C380.416 203.56 379.936 201.76 379.936 199.8C379.936 198.373 380.209 197.013 380.756 195.72C381.316 194.413 382.103 193.26 383.116 192.26C384.129 191.247 385.329 190.453 386.716 189.88C388.103 189.293 389.629 189 391.296 189C393.523 189 395.489 189.493 397.196 190.48C398.903 191.453 400.236 192.76 401.196 194.4C402.156 196.04 402.636 197.84 402.636 199.8C402.636 201.227 402.363 202.593 401.816 203.9C401.269 205.193 400.489 206.34 399.476 207.34C398.463 208.34 397.263 209.133 395.876 209.72C394.489 210.307 392.963 210.6 391.296 210.6ZM391.296 204.96C392.229 204.96 393.069 204.753 393.816 204.34C394.563 203.913 395.149 203.313 395.576 202.54C396.003 201.767 396.216 200.853 396.216 199.8C396.216 198.733 396.003 197.82 395.576 197.06C395.163 196.287 394.583 195.693 393.836 195.28C393.089 194.853 392.243 194.64 391.296 194.64C390.349 194.64 389.503 194.853 388.756 195.28C388.009 195.693 387.423 196.287 386.996 197.06C386.569 197.82 386.356 198.733 386.356 199.8C386.356 200.853 386.569 201.767 386.996 202.54C387.436 203.313 388.029 203.913 388.776 204.34C389.523 204.753 390.363 204.96 391.296 204.96ZM414.478 210.6C412.624 210.6 411.091 210.24 409.878 209.52C408.664 208.787 407.758 207.78 407.158 206.5C406.571 205.207 406.278 203.707 406.278 202V189.6H412.838V201.02C412.838 202.14 413.131 203.027 413.718 203.68C414.318 204.333 415.184 204.66 416.318 204.66C417.051 204.66 417.691 204.5 418.238 204.18C418.798 203.847 419.224 203.393 419.518 202.82C419.824 202.247 419.978 201.58 419.978 200.82V189.6H426.538V210H420.878V207.84C420.224 208.573 419.398 209.22 418.398 209.78C417.398 210.327 416.091 210.6 414.478 210.6ZM431.986 210V181.2H438.546V210H431.986ZM452.537 210.6C450.604 210.6 448.87 210.153 447.337 209.26C445.804 208.353 444.597 207.093 443.717 205.48C442.837 203.853 442.397 201.96 442.397 199.8C442.397 198.267 442.65 196.847 443.157 195.54C443.664 194.233 444.37 193.093 445.277 192.12C446.197 191.133 447.284 190.367 448.537 189.82C449.79 189.273 451.164 189 452.657 189C454.217 189 455.624 189.307 456.877 189.92C458.13 190.533 459.224 191.447 460.157 192.66L458.657 194.16V181.2H465.217V210H459.557V204.7L460.457 206.18C459.87 207.487 458.89 208.553 457.517 209.38C456.144 210.193 454.484 210.6 452.537 210.6ZM453.757 204.96C454.69 204.96 455.53 204.753 456.277 204.34C457.024 203.913 457.61 203.313 458.037 202.54C458.464 201.767 458.677 200.853 458.677 199.8C458.677 198.733 458.464 197.82 458.037 197.06C457.624 196.287 457.044 195.693 456.297 195.28C455.55 194.853 454.704 194.64 453.757 194.64C452.81 194.64 451.964 194.853 451.217 195.28C450.47 195.693 449.884 196.287 449.457 197.06C449.03 197.82 448.817 198.733 448.817 199.8C448.817 200.853 449.03 201.767 449.457 202.54C449.897 203.313 450.49 203.913 451.237 204.34C451.984 204.753 452.824 204.96 453.757 204.96ZM480.456 210V182H487.096V210H480.456ZM501.577 219C500.524 219 499.637 218.913 498.917 218.74C498.184 218.58 497.451 218.307 496.717 217.92L498.017 213.06C498.364 213.233 498.704 213.367 499.037 213.46C499.371 213.553 499.744 213.6 500.157 213.6C500.917 213.6 501.471 213.387 501.817 212.96C502.164 212.547 502.337 211.92 502.337 211.08V189.6H508.897V211.5C508.897 212.993 508.591 214.3 507.977 215.42C507.377 216.553 506.524 217.433 505.417 218.06C504.324 218.687 503.044 219 501.577 219ZM505.617 186.58C504.564 186.58 503.644 186.253 502.857 185.6C502.084 184.933 501.697 184.04 501.697 182.92C501.697 181.8 502.084 180.913 502.857 180.26C503.644 179.607 504.564 179.28 505.617 179.28C506.684 179.28 507.604 179.607 508.377 180.26C509.151 180.913 509.537 181.8 509.537 182.92C509.537 184.04 509.151 184.933 508.377 185.6C507.604 186.253 506.684 186.58 505.617 186.58ZM524.108 210.6C521.882 210.6 519.915 210.113 518.208 209.14C516.502 208.153 515.162 206.84 514.188 205.2C513.228 203.56 512.748 201.76 512.748 199.8C512.748 198.373 513.022 197.013 513.568 195.72C514.128 194.413 514.915 193.26 515.928 192.26C516.942 191.247 518.142 190.453 519.528 189.88C520.915 189.293 522.442 189 524.108 189C526.335 189 528.302 189.493 530.008 190.48C531.715 191.453 533.048 192.76 534.008 194.4C534.968 196.04 535.448 197.84 535.448 199.8C535.448 201.227 535.175 202.593 534.628 203.9C534.082 205.193 533.302 206.34 532.288 207.34C531.275 208.34 530.075 209.133 528.688 209.72C527.302 210.307 525.775 210.6 524.108 210.6ZM524.108 204.96C525.042 204.96 525.882 204.753 526.628 204.34C527.375 203.913 527.962 203.313 528.388 202.54C528.815 201.767 529.028 200.853 529.028 199.8C529.028 198.733 528.815 197.82 528.388 197.06C527.975 196.287 527.395 195.693 526.648 195.28C525.902 194.853 525.055 194.64 524.108 194.64C523.162 194.64 522.315 194.853 521.568 195.28C520.822 195.693 520.235 196.287 519.808 197.06C519.382 197.82 519.168 198.733 519.168 199.8C519.168 200.853 519.382 201.767 519.808 202.54C520.248 203.313 520.842 203.913 521.588 204.34C522.335 204.753 523.175 204.96 524.108 204.96ZM539.29 210V189.6H545.85V210H539.29ZM542.57 186.58C541.517 186.58 540.597 186.253 539.81 185.6C539.037 184.933 538.65 184.04 538.65 182.92C538.65 181.8 539.037 180.913 539.81 180.26C540.597 179.607 541.517 179.28 542.57 179.28C543.637 179.28 544.557 179.607 545.33 180.26C546.104 180.913 546.49 181.8 546.49 182.92C546.49 184.04 546.104 184.933 545.33 185.6C544.557 186.253 543.637 186.58 542.57 186.58ZM551.322 210V189.6H557.882V191.76C558.642 190.8 559.542 190.1 560.582 189.66C561.622 189.22 562.715 189 563.862 189C565.782 189 567.362 189.38 568.602 190.14C569.842 190.887 570.755 191.86 571.342 193.06C571.942 194.247 572.242 195.507 572.242 196.84V210H565.682V198.9C565.682 197.673 565.355 196.707 564.702 196C564.062 195.293 563.115 194.94 561.862 194.94C561.062 194.94 560.362 195.113 559.762 195.46C559.175 195.807 558.715 196.3 558.382 196.94C558.048 197.567 557.882 198.287 557.882 199.1V210H551.322ZM587.292 210V182H593.932V193.94L603.432 182H611.712L601.352 194.86L613.052 210H604.512L596.972 199.88L593.932 203.34V210H587.292ZM616.048 210V189.6H622.608V210H616.048ZM619.328 186.58C618.275 186.58 617.355 186.253 616.568 185.6C615.795 184.933 615.408 184.04 615.408 182.92C615.408 181.8 615.795 180.913 616.568 180.26C617.355 179.607 618.275 179.28 619.328 179.28C620.395 179.28 621.315 179.607 622.088 180.26C622.861 180.913 623.248 181.8 623.248 182.92C623.248 184.04 622.861 184.933 622.088 185.6C621.315 186.253 620.395 186.58 619.328 186.58ZM628.079 210V189.6H634.639V191.76C635.399 190.8 636.299 190.1 637.339 189.66C638.379 189.22 639.473 189 640.619 189C642.539 189 644.119 189.38 645.359 190.14C646.599 190.887 647.513 191.86 648.099 193.06C648.699 194.247 648.999 195.507 648.999 196.84V210H642.439V198.9C642.439 197.673 642.113 196.707 641.459 196C640.819 195.293 639.873 194.94 638.619 194.94C637.819 194.94 637.119 195.113 636.519 195.46C635.933 195.807 635.473 196.3 635.139 196.94C634.806 197.567 634.639 198.287 634.639 199.1V210H628.079ZM662.771 210.6C660.838 210.6 659.105 210.153 657.571 209.26C656.038 208.353 654.831 207.093 653.951 205.48C653.071 203.853 652.631 201.96 652.631 199.8C652.631 198.267 652.885 196.847 653.391 195.54C653.898 194.233 654.605 193.093 655.511 192.12C656.431 191.133 657.518 190.367 658.771 189.82C660.025 189.273 661.398 189 662.891 189C664.451 189 665.858 189.307 667.111 189.92C668.365 190.533 669.458 191.447 670.391 192.66L668.891 194.16V181.2H675.451V210H669.791V204.7L670.691 206.18C670.105 207.487 669.125 208.553 667.751 209.38C666.378 210.193 664.718 210.6 662.771 210.6ZM663.991 204.96C664.925 204.96 665.765 204.753 666.511 204.34C667.258 203.913 667.845 203.313 668.271 202.54C668.698 201.767 668.911 200.853 668.911 199.8C668.911 198.733 668.698 197.82 668.271 197.06C667.858 196.287 667.278 195.693 666.531 195.28C665.785 194.853 664.938 194.64 663.991 194.64C663.045 194.64 662.198 194.853 661.451 195.28C660.705 195.693 660.118 196.287 659.691 197.06C659.265 197.82 659.051 198.733 659.051 199.8C659.051 200.853 659.265 201.767 659.691 202.54C660.131 203.313 660.725 203.913 661.471 204.34C662.218 204.753 663.058 204.96 663.991 204.96ZM690.691 210V182H709.131V188.06H697.331V193.84H707.891V199.66H697.331V210H690.691ZM722.663 210.6C720.436 210.6 718.47 210.113 716.763 209.14C715.056 208.153 713.716 206.84 712.743 205.2C711.783 203.56 711.303 201.76 711.303 199.8C711.303 198.373 711.576 197.013 712.123 195.72C712.683 194.413 713.47 193.26 714.483 192.26C715.496 191.247 716.696 190.453 718.083 189.88C719.47 189.293 720.996 189 722.663 189C724.89 189 726.856 189.493 728.563 190.48C730.27 191.453 731.603 192.76 732.563 194.4C733.523 196.04 734.003 197.84 734.003 199.8C734.003 201.227 733.73 202.593 733.183 203.9C732.636 205.193 731.856 206.34 730.843 207.34C729.83 208.34 728.63 209.133 727.243 209.72C725.856 210.307 724.33 210.6 722.663 210.6ZM722.663 204.96C723.596 204.96 724.436 204.753 725.183 204.34C725.93 203.913 726.516 203.313 726.943 202.54C727.37 201.767 727.583 200.853 727.583 199.8C727.583 198.733 727.37 197.82 726.943 197.06C726.53 196.287 725.95 195.693 725.203 195.28C724.456 194.853 723.61 194.64 722.663 194.64C721.716 194.64 720.87 194.853 720.123 195.28C719.376 195.693 718.79 196.287 718.363 197.06C717.936 197.82 717.723 198.733 717.723 199.8C717.723 200.853 717.936 201.767 718.363 202.54C718.803 203.313 719.396 203.913 720.143 204.34C720.89 204.753 721.73 204.96 722.663 204.96ZM747.78 210.6C745.554 210.6 743.587 210.113 741.88 209.14C740.174 208.153 738.834 206.84 737.86 205.2C736.9 203.56 736.42 201.76 736.42 199.8C736.42 198.373 736.694 197.013 737.24 195.72C737.8 194.413 738.587 193.26 739.6 192.26C740.614 191.247 741.814 190.453 743.2 189.88C744.587 189.293 746.114 189 747.78 189C750.007 189 751.974 189.493 753.68 190.48C755.387 191.453 756.72 192.76 757.68 194.4C758.64 196.04 759.12 197.84 759.12 199.8C759.12 201.227 758.847 202.593 758.3 203.9C757.754 205.193 756.974 206.34 755.96 207.34C754.947 208.34 753.747 209.133 752.36 209.72C750.974 210.307 749.447 210.6 747.78 210.6ZM747.78 204.96C748.714 204.96 749.554 204.753 750.3 204.34C751.047 203.913 751.634 203.313 752.06 202.54C752.487 201.767 752.7 200.853 752.7 199.8C752.7 198.733 752.487 197.82 752.06 197.06C751.647 196.287 751.067 195.693 750.32 195.28C749.574 194.853 748.727 194.64 747.78 194.64C746.834 194.64 745.987 194.853 745.24 195.28C744.494 195.693 743.907 196.287 743.48 197.06C743.054 197.82 742.84 198.733 742.84 199.8C742.84 200.853 743.054 201.767 743.48 202.54C743.92 203.313 744.514 203.913 745.26 204.34C746.007 204.753 746.847 204.96 747.78 204.96ZM771.678 210.6C769.744 210.6 768.011 210.153 766.478 209.26C764.944 208.353 763.738 207.093 762.858 205.48C761.978 203.853 761.538 201.96 761.538 199.8C761.538 198.267 761.791 196.847 762.298 195.54C762.804 194.233 763.511 193.093 764.418 192.12C765.338 191.133 766.424 190.367 767.678 189.82C768.931 189.273 770.304 189 771.798 189C773.358 189 774.764 189.307 776.018 189.92C777.271 190.533 778.364 191.447 779.298 192.66L777.798 194.16V181.2H784.358V210H778.698V204.7L779.598 206.18C779.011 207.487 778.031 208.553 776.658 209.38C775.284 210.193 773.624 210.6 771.678 210.6ZM772.898 204.96C773.831 204.96 774.671 204.753 775.418 204.34C776.164 203.913 776.751 203.313 777.178 202.54C777.604 201.767 777.818 200.853 777.818 199.8C777.818 198.733 777.604 197.82 777.178 197.06C776.764 196.287 776.184 195.693 775.438 195.28C774.691 194.853 773.844 194.64 772.898 194.64C771.951 194.64 771.104 194.853 770.358 195.28C769.611 195.693 769.024 196.287 768.598 197.06C768.171 197.82 767.958 198.733 767.958 199.8C767.958 200.853 768.171 201.767 768.598 202.54C769.038 203.313 769.631 203.913 770.378 204.34C771.124 204.753 771.964 204.96 772.898 204.96ZM793.338 200.24C792.965 198.88 792.831 197.767 792.938 196.9C793.045 196.02 793.331 195.293 793.798 194.72C794.278 194.147 794.885 193.62 795.618 193.14C796.698 192.42 797.431 191.84 797.818 191.4C798.205 190.96 798.398 190.447 798.398 189.86C798.398 189.047 798.105 188.44 797.518 188.04C796.931 187.64 796.045 187.44 794.858 187.44C793.898 187.44 793.025 187.58 792.238 187.86C791.451 188.14 790.631 188.527 789.778 189.02L788.438 183.68C788.731 183.387 789.265 183.067 790.038 182.72C790.825 182.36 791.778 182.053 792.898 181.8C794.031 181.533 795.251 181.4 796.558 181.4C798.331 181.4 799.925 181.693 801.338 182.28C802.765 182.853 803.891 183.667 804.718 184.72C805.558 185.773 805.978 187 805.978 188.4C805.978 189.253 805.825 190.02 805.518 190.7C805.211 191.38 804.718 192.053 804.038 192.72C803.358 193.373 802.465 194.08 801.358 194.84C800.611 195.36 800.071 195.84 799.738 196.28C799.405 196.72 799.211 197.247 799.158 197.86C799.118 198.46 799.158 199.253 799.278 200.24H793.338ZM796.418 210.6C795.325 210.6 794.371 210.253 793.558 209.56C792.758 208.867 792.358 207.927 792.358 206.74C792.358 205.94 792.538 205.253 792.898 204.68C793.271 204.107 793.765 203.66 794.378 203.34C795.005 203.02 795.685 202.86 796.418 202.86C797.525 202.86 798.478 203.207 799.278 203.9C800.078 204.593 800.478 205.54 800.478 206.74C800.478 207.54 800.291 208.227 799.918 208.8C799.545 209.373 799.051 209.813 798.438 210.12C797.825 210.44 797.151 210.6 796.418 210.6Z" fill="#025949"/>
<path d="M860.26 228.26L856.12 218.9C870.88 212.78 878.98 203.6 878.98 190.1L875.56 174.8L885.28 188.48C882.76 191.72 879.16 192.62 875.74 192.62C868.36 192.62 862.24 188.3 862.24 179.66C862.24 171.2 868.72 166.7 875.92 166.7C886 166.7 891.4 174.98 891.4 187.58C891.4 207.02 879.16 221.78 860.26 228.26Z" fill="#F25C78"/>
<path d="M899.26 228.26L895.12 218.9C909.88 212.78 917.98 203.6 917.98 190.1L914.56 174.8L924.28 188.48C921.76 191.72 918.16 192.62 914.74 192.62C907.36 192.62 901.24 188.3 901.24 179.66C901.24 171.2 907.72 166.7 914.92 166.7C925 166.7 930.4 174.98 930.4 187.58C930.4 207.02 918.16 221.78 899.26 228.26Z" fill="#F25C78"/>
<path d="M190.74 162.74L194.88 172.1C180.12 178.22 172.02 187.4 172.02 200.9L175.44 216.2L165.72 202.52C168.24 199.28 171.84 198.38 175.26 198.38C182.64 198.38 188.76 202.7 188.76 211.34C188.76 219.8 182.28 224.3 175.08 224.3C165 224.3 159.6 216.02 159.6 203.42C159.6 183.98 171.84 169.22 190.74 162.74Z" fill="#F25C78"/>
<path d="M151.74 162.74L155.88 172.1C141.12 178.22 133.02 187.4 133.02 200.9L136.44 216.2L126.72 202.52C129.24 199.28 132.84 198.38 136.26 198.38C143.64 198.38 149.76 202.7 149.76 211.34C149.76 219.8 143.28 224.3 136.08 224.3C126 224.3 120.6 216.02 120.6 203.42C120.6 183.98 132.84 169.22 151.74 162.74Z" fill="#F25C78"/>
</svg>
