<svg width="37" height="37" viewBox="0 0 37 37" fill="none" xmlns="http://www.w3.org/2000/svg">
<path d="M18.5 6.16699C11.6874 6.16699 6.16669 11.6892 6.16669 18.5003C6.16669 25.3114 11.6874 30.8337 18.5 30.8337C25.3126 30.8337 30.8334 25.3114 30.8334 18.5003C30.8334 11.6892 25.3126 6.16699 18.5 6.16699ZM24.215 22.0354C24.5041 22.3244 24.6665 22.7165 24.6665 23.1253C24.6665 23.5341 24.5041 23.9262 24.215 24.2153C23.9259 24.5044 23.5338 24.6668 23.125 24.6668C22.7162 24.6668 22.3241 24.5044 22.0351 24.2153L18.5 20.6802L14.965 24.2153C14.8221 24.3589 14.6523 24.4729 14.4653 24.5507C14.2782 24.6285 14.0776 24.6686 13.875 24.6686C13.6724 24.6686 13.4718 24.6285 13.2848 24.5507C13.0977 24.4729 12.9279 24.3589 12.7851 24.2153C12.6418 24.0722 12.5281 23.9023 12.4505 23.7153C12.373 23.5283 12.333 23.3278 12.333 23.1253C12.333 22.9229 12.373 22.7224 12.4505 22.5353C12.5281 22.3483 12.6418 22.1784 12.7851 22.0354L16.3201 18.5003L12.7851 14.9653C12.496 14.6762 12.3336 14.2841 12.3336 13.8753C12.3336 13.4665 12.496 13.0744 12.7851 12.7854C13.0741 12.4963 13.4662 12.3339 13.875 12.3339C14.2838 12.3339 14.6759 12.4963 14.965 12.7854L18.5 16.3204L22.0351 12.7854C22.3241 12.4963 22.7162 12.3339 23.125 12.3339C23.5338 12.3339 23.9259 12.4963 24.215 12.7854C24.5041 13.0744 24.6665 13.4665 24.6665 13.8753C24.6665 14.2841 24.5041 14.6762 24.215 14.9653L20.6799 18.5003L24.215 22.0354Z" fill="#025949"/>
</svg>
