<svg width="96" height="96" viewBox="0 0 96 96" fill="none" xmlns="http://www.w3.org/2000/svg">
<g clip-path="url(#clip0_158_1748)">
<path d="M48 0C41.7231 0 36.9231 4.8 36.9231 11.0769V33.2308C36.9231 39.5077 41.7231 44.3077 48 44.3077H70.1538L84.9231 59.0769V44.3077C91.2 44.3077 96 39.5077 96 33.2308V11.0769C96 4.8 91.2 0 84.9231 0H48ZM63.4634 11.0769H69.8068L76.0394 33.2308H70.5009L68.9982 27.6923H63.4597L62.0788 33.2308H57.2308L63.4634 11.0769ZM66.4615 14.7692C66.0923 16.2462 65.6788 18.048 65.3058 19.1557L64.272 24H68.6548L67.6135 19.152C66.8788 18.048 66.4615 16.2462 66.4615 14.7692ZM11.0769 36.9231C4.8 36.9231 0 41.7231 0 48V70.1538C0 76.4308 4.8 81.2308 11.0769 81.2308V96L25.8462 81.2308H48C54.2769 81.2308 59.0769 76.4308 59.0769 70.1538V48H48C40.9846 48 35.424 43.2 33.5778 36.9231H11.0769ZM28.0394 47.6529C34.3163 47.6529 37.2702 52.8222 37.2702 58.7298C37.2702 63.8991 35.4942 67.1778 32.5403 68.6548C34.0172 69.3932 35.7674 69.7846 37.6135 70.1538L36.2326 73.8462C33.648 73.1077 30.9674 71.9557 28.3828 70.8443C28.0135 70.4751 27.3674 70.5009 26.9982 70.5009C22.5674 70.1317 18.4615 66.4615 18.4615 59.0769C18.4615 52.8 22.1317 47.6529 28.0394 47.6529ZM28.0394 51.6923C25.0855 51.6923 23.6529 55.0154 23.6529 59.0769C23.6529 63.5077 25.0855 66.4615 28.0394 66.4615C30.9932 66.4615 32.5366 63.1385 32.5366 59.0769C32.5366 55.0154 30.9932 51.6923 28.0394 51.6923Z" fill="#025949"/>
</g>
<defs>
<clipPath id="clip0_158_1748">
<rect width="96" height="96" fill="white"/>
</clipPath>
</defs>
</svg>
