<svg width="72" height="72" viewBox="0 0 72 72" fill="none" xmlns="http://www.w3.org/2000/svg">
<path d="M45 42C36.99 42 21 45.99 21 54V60H69V54C69 45.99 53.01 42 45 42ZM18 30V21H12V30H3V36H12V45H18V36H27V30M45 36C48.1826 36 51.2348 34.7357 53.4853 32.4853C55.7357 30.2348 57 27.1826 57 24C57 20.8174 55.7357 17.7652 53.4853 15.5147C51.2348 13.2643 48.1826 12 45 12C41.8174 12 38.7652 13.2643 36.5147 15.5147C34.2643 17.7652 33 20.8174 33 24C33 27.1826 34.2643 30.2348 36.5147 32.4853C38.7652 34.7357 41.8174 36 45 36Z" fill="#BBD94E"/>
</svg>
