<svg width="292" height="87" viewBox="0 0 292 87" fill="none" xmlns="http://www.w3.org/2000/svg">
<path fill-rule="evenodd" clip-rule="evenodd" d="M1.16376 72.1798C1.24376 72.6998 1.08376 73.1998 0.68376 73.6798C0.60376 73.7198 0.58376 73.8598 0.62376 74.0998C0.66376 74.3798 0.68376 74.6398 0.68376 74.8798C1.72376 74.9198 2.76376 74.9198 3.80376 74.8798C4.84376 74.8798 5.92376 74.7398 7.04376 74.4598C7.24376 74.8198 7.50376 74.9998 7.82376 74.9998C8.14376 75.0398 8.44376 74.8598 8.72376 74.4598C9.04376 74.5398 9.34376 74.6198 9.62376 74.6998C9.90376 74.8198 10.1638 74.9198 10.4038 74.9998C10.8038 75.0398 11.1838 75.0398 11.5438 74.9998H12.6838C13.1638 74.9198 13.5038 74.7798 13.7038 74.5798C13.9038 74.4198 14.0238 74.0798 14.0638 73.5598C14.1438 71.4398 14.2038 69.2998 14.2438 67.1398C14.3238 64.9798 14.3838 62.7998 14.4238 60.5998C14.6238 60.7598 14.7438 60.9198 14.7838 61.0798C14.8638 61.1998 14.9238 61.3198 14.9638 61.4398C15.3238 62.3198 15.7038 63.1798 16.1038 64.0198C16.5438 64.8198 17.0838 65.5798 17.7238 66.2998C18.1638 66.6998 18.6238 67.1198 19.1038 67.5598C19.5838 67.9998 20.0838 68.4398 20.6038 68.8798C21.4038 69.4398 22.1838 70.0398 22.9438 70.6798C23.7438 71.2798 24.6838 71.6798 25.7638 71.8798C26.0038 71.9198 26.2238 71.9798 26.4238 72.0598C26.6638 72.1798 26.8238 72.3998 26.9038 72.7198C27.0238 73.1998 27.2838 73.4998 27.6838 73.6198C28.1238 73.7398 28.4838 73.8398 28.7638 73.9198C29.7638 73.9998 30.7438 74.0198 31.7038 73.9798H34.7638C34.8038 73.7398 34.8238 72.8398 34.8238 71.2798C34.8638 69.7198 34.9038 67.7198 34.9438 65.2798C34.9684 63.7769 34.9854 62.1982 34.9949 60.5437C29.8949 59.3995 26.2282 56.2303 26.2282 52.4998C26.2282 48.7711 29.8912 45.6032 34.9873 44.4576C34.9774 43.2037 34.9628 42.0044 34.9438 40.8598C34.9438 38.4198 34.9038 36.4398 34.8238 34.9198C34.7838 33.3598 34.7238 32.4798 34.6438 32.2798C32.6838 32.4798 30.7038 32.7398 28.7038 33.0598C26.7438 33.3398 24.8638 34.0598 23.0638 35.2198C21.3438 36.3398 19.7638 37.5798 18.3238 38.9398C16.8838 40.2598 15.7638 41.9198 14.9638 43.9198C14.7238 43.4798 14.6438 43.0198 14.7238 42.5398C14.7238 42.2998 14.7838 42.0598 14.9038 41.8198C15.0238 41.5398 15.0438 41.2998 14.9638 41.0998C14.8438 40.4598 14.8238 39.8398 14.9038 39.2398C14.9838 38.6398 15.0438 38.0198 15.0838 37.3798C15.1238 36.1398 15.1838 34.9198 15.2638 33.7198C15.3438 32.5198 15.4238 31.3398 15.5038 30.1798V28.4998C15.5438 27.9398 15.5438 27.3998 15.5038 26.8798C15.4638 26.5598 15.4238 26.2798 15.3838 26.0398C15.3838 25.7598 15.4238 25.4598 15.5038 25.1398C15.7438 24.2198 15.3238 23.7598 14.2438 23.7598L11.0038 23.8798H7.64376H2.30376C2.26376 24.1998 2.22376 24.4998 2.18376 24.7798V25.4998C2.22376 26.0598 2.24376 26.6398 2.24376 27.2398C2.28376 27.7998 2.30376 28.3598 2.30376 28.9198C2.26376 30.5998 2.18376 32.2598 2.06376 33.8998C1.94376 35.5398 1.86376 37.1998 1.82376 38.8798L1.70376 47.2798C1.66376 50.0398 1.62376 52.8398 1.58376 55.6798C1.46376 57.3598 1.34376 59.0998 1.22376 60.8998C1.18376 61.2198 1.16376 61.5398 1.16376 61.8598C1.16376 62.1798 1.30376 62.3998 1.58376 62.5198C1.50376 63.1598 1.38376 63.7798 1.22376 64.3798C1.10376 64.9398 1.02376 65.4998 0.98376 66.0598C0.94376 66.6998 0.86376 67.3798 0.74376 68.0998C0.62376 68.7798 0.78376 69.4798 1.22376 70.1998C1.30376 70.2398 1.34376 70.3398 1.34376 70.4998C1.38376 70.6198 1.38376 70.7198 1.34376 70.7998C1.18376 71.2398 1.12376 71.6998 1.16376 72.1798Z" fill="#025949"/>
<path d="M57.9729 39.16C57.6929 39 57.4129 38.96 57.1329 39.04C56.8529 39.12 56.5729 39.14 56.2929 39.1C55.7329 39.02 55.1529 39 54.5529 39.04C53.9929 39.08 53.4129 39.1 52.8129 39.1C51.6529 39.06 50.4729 39.02 49.2729 38.98C48.1129 38.94 46.9129 38.9 45.6729 38.86C45.7129 38.62 45.7329 38.4 45.7329 38.2C45.7729 37.96 45.8129 37.74 45.8529 37.54C45.8529 36.86 45.9929 36.26 46.2729 35.74C46.5529 35.22 46.8729 34.72 47.2329 34.24C47.8729 33.4 48.7729 32.86 49.9329 32.62C50.6129 32.42 51.2729 32.34 51.9129 32.38C52.5529 32.38 53.2129 32.46 53.8929 32.62C54.3329 32.66 54.7529 32.8 55.1529 33.04C55.5529 33.24 55.8929 33.5 56.1729 33.82C56.4929 34.1 56.7929 34.42 57.0729 34.78C57.3929 35.14 57.6129 35.56 57.7329 36.04C57.8529 36.4 58.0329 36.66 58.2729 36.82C58.4729 36.94 58.5529 37.12 58.5129 37.36C58.4729 37.6 58.4529 37.84 58.4529 38.08C58.4529 38.32 58.4329 38.56 58.3929 38.8C58.3929 38.92 58.3529 39.04 58.2729 39.16C58.1929 39.24 58.0929 39.24 57.9729 39.16ZM57.4929 44.2L57.3129 53.92V64.06C57.3929 65.78 57.3929 67.5 57.3129 69.22C57.2329 70.94 57.2929 72.64 57.4929 74.32H47.4129L46.9329 44.32C47.1729 44.28 47.7129 44.26 48.5529 44.26C49.4329 44.22 50.4329 44.22 51.5529 44.26C52.7129 44.26 53.8329 44.26 54.9129 44.26C55.9929 44.26 56.8529 44.24 57.4929 44.2ZM69.5975 58.36V41.98H81.5975C81.6775 42.38 81.7175 42.78 81.7175 43.18C81.7175 43.58 81.7175 43.96 81.7175 44.32C81.8375 50.36 81.8975 56.44 81.8975 62.56C81.8975 64.2 81.8575 65.88 81.7775 67.6C81.7375 69.28 81.6775 70.98 81.5975 72.7H70.4975C70.3375 71.18 70.1775 69.64 70.0175 68.08C69.8975 66.52 69.7575 65 69.5975 63.52C69.5575 62.12 69.5375 60.92 69.5375 59.92C69.5375 58.88 69.5575 58.36 69.5975 58.36ZM94.9775 53.5H95.0375V55.18C94.9975 56.06 94.9775 56.92 94.9775 57.76C94.9775 58.56 94.8975 59.38 94.7375 60.22C94.5775 61.14 94.4975 62.08 94.4975 63.04C94.4975 64 94.4575 64.96 94.3775 65.92C94.3375 66.76 94.2975 67.64 94.2575 68.56C94.2175 69.44 94.1575 70.36 94.0775 71.32C92.9575 71.28 91.8775 71.3 90.8375 71.38C89.7975 71.46 88.7575 71.3 87.7175 70.9C87.1975 70.74 86.8375 70.56 86.6375 70.36C86.4775 70.16 86.4175 69.82 86.4575 69.34C86.6575 66.98 86.8575 64.6 87.0575 62.2C87.2575 59.8 87.4575 57.4 87.6575 55L82.3775 54.82C82.4175 53.26 82.4375 51.7 82.4375 50.14C82.4375 48.54 82.4375 46.94 82.4375 45.34C82.4775 45.18 82.5175 45.04 82.5575 44.92C82.5975 44.76 82.6175 44.6 82.6175 44.44C82.6175 44.24 82.5975 44.02 82.5575 43.78C82.5575 43.5 82.5375 43.16 82.4975 42.76C82.5375 42.76 82.6175 42.7 82.7375 42.58C82.8575 42.46 82.9975 42.4 83.1575 42.4C83.5975 42.4 83.9975 42.42 84.3575 42.46C84.7575 42.5 85.1575 42.56 85.5575 42.64C85.9175 42.68 86.2775 42.76 86.6375 42.88C86.9975 42.96 87.3575 43.04 87.7175 43.12C87.8775 43.16 88.0775 43.26 88.3175 43.42C88.6775 43.58 89.0175 43.8 89.3375 44.08C91.1775 45.12 92.5175 46.46 93.3575 48.1C94.1975 49.74 94.7375 51.54 94.9775 53.5ZM131.43 30.88L131.25 44.56V58.84C131.33 61.28 131.33 63.72 131.25 66.16C131.17 68.6 131.23 71 131.43 73.36H120.99L120.57 31.12C120.81 31.04 121.37 31 122.25 31C123.13 30.96 124.15 30.94 125.31 30.94C126.51 30.94 127.65 30.94 128.73 30.94C129.85 30.94 130.75 30.92 131.43 30.88ZM104.73 59.56C104.73 59.28 104.73 59 104.73 58.72C104.77 58.44 104.77 58.16 104.73 57.88C104.65 56.6 104.79 55.4 105.15 54.28C105.55 53.16 106.07 52.06 106.71 50.98C106.83 50.78 106.97 50.6 107.13 50.44C107.33 50.28 107.51 50.12 107.67 49.96C107.99 49.68 108.31 49.38 108.63 49.06C108.95 48.74 109.29 48.44 109.65 48.16C109.89 47.96 110.15 47.78 110.43 47.62C110.75 47.46 111.05 47.3 111.33 47.14C111.65 46.98 111.97 46.86 112.29 46.78C112.65 46.7 112.91 46.46 113.07 46.06C113.15 45.94 113.31 45.86 113.55 45.82C113.79 45.74 113.99 45.7 114.15 45.7C115.27 45.66 116.37 45.66 117.45 45.7C117.61 45.7 117.89 45.8 118.29 46C117.93 46.52 117.73 47.02 117.69 47.5C117.65 47.98 117.83 48.48 118.23 49C118.15 49.08 118.05 49.18 117.93 49.3C117.85 49.42 117.77 49.54 117.69 49.66C117.93 49.78 118.07 49.94 118.11 50.14C118.19 50.3 118.23 50.52 118.23 50.8V70.6C118.23 70.68 118.21 70.78 118.17 70.9C118.17 71.02 118.17 71.18 118.17 71.38C117.69 71.38 117.21 71.38 116.73 71.38C116.25 71.42 115.77 71.36 115.29 71.2C115.01 71.08 114.71 71 114.39 70.96C114.07 70.92 113.75 70.88 113.43 70.84C112.31 70.6 111.31 70.2 110.43 69.64C109.59 69.08 108.77 68.46 107.97 67.78C107.17 67.06 106.55 66.24 106.11 65.32C105.71 64.4 105.33 63.46 104.97 62.5C104.85 62.02 104.77 61.54 104.73 61.06C104.73 60.54 104.73 60.04 104.73 59.56ZM165.147 40C163.907 40 162.727 40.02 161.607 40.06C160.487 40.1 159.347 39.98 158.187 39.7V44.8C158.667 44.36 159.147 44.12 159.627 44.08C160.147 44 160.687 44 161.247 44.08C161.807 44.16 162.367 44.16 162.927 44.08C162.887 45.32 162.947 46.5 163.107 47.62C163.307 48.7 163.247 49.82 162.927 50.98C162.807 51.62 162.767 52.28 162.807 52.96C162.847 53.64 162.827 54.32 162.747 55C162.707 55.64 162.627 56.04 162.507 56.2C162.387 56.32 162.007 56.38 161.367 56.38H158.007C158.087 59.3 158.087 62.18 158.007 65.02C157.967 67.82 158.067 70.62 158.307 73.42H144.687V22.78C144.927 22.7 145.687 22.64 146.967 22.6C148.247 22.56 149.787 22.54 151.587 22.54C153.387 22.54 155.227 22.54 157.107 22.54C158.987 22.54 160.667 22.56 162.147 22.6C163.627 22.6 164.627 22.64 165.147 22.72V40ZM202.412 53.98C202.372 54.46 202.332 54.96 202.292 55.48C202.252 55.96 202.192 56.44 202.112 56.92C202.072 57.2 201.992 57.44 201.872 57.64C201.752 57.8 201.532 57.8 201.212 57.64C200.652 57.32 200.072 57.22 199.472 57.34C198.912 57.42 198.352 57.44 197.792 57.4C196.632 57.28 195.452 57.24 194.252 57.28C193.092 57.28 191.932 57.26 190.772 57.22C188.372 57.1 185.952 56.96 183.512 56.8C181.112 56.64 178.632 56.48 176.072 56.32C176.152 55.8 176.232 55.32 176.312 54.88C176.432 54.4 176.512 53.96 176.552 53.56C176.592 52.24 176.912 51.04 177.512 49.96C178.152 48.88 178.872 47.86 179.672 46.9C180.352 46.1 181.152 45.44 182.072 44.92C183.032 44.4 184.052 44.02 185.132 43.78C186.532 43.46 187.892 43.34 189.212 43.42C190.572 43.46 191.932 43.64 193.292 43.96C194.212 44.16 195.052 44.5 195.812 44.98C196.572 45.42 197.272 45.94 197.912 46.54C198.592 47.18 199.212 47.88 199.772 48.64C200.372 49.4 200.792 50.26 201.032 51.22C201.112 51.5 201.212 51.8 201.332 52.12C201.492 52.4 201.712 52.64 201.992 52.84C202.152 52.96 202.272 53.12 202.352 53.32C202.472 53.48 202.492 53.7 202.412 53.98ZM175.832 62.14C175.792 62.18 175.712 62.24 175.592 62.32C175.472 62.4 175.312 62.5 175.112 62.62C175.072 62.42 175.032 62.26 174.992 62.14C174.952 61.98 174.952 61.82 174.992 61.66C175.032 61.06 175.072 60.46 175.112 59.86C175.152 59.26 175.192 58.64 175.232 58C175.272 57.68 175.312 57.4 175.352 57.16C175.432 56.92 175.672 56.78 176.072 56.74C176.472 56.66 176.752 56.72 176.912 56.92C177.112 57.12 177.252 57.38 177.332 57.7C177.372 57.74 177.392 57.78 177.392 57.82C177.432 57.86 177.492 57.94 177.572 58.06C178.252 58.1 178.952 58.12 179.672 58.12C180.432 58.12 181.192 58.14 181.952 58.18C184.792 58.22 187.612 58.26 190.412 58.3C193.212 58.3 196.012 58.32 198.812 58.36C198.972 58.36 199.132 58.38 199.292 58.42C199.452 58.46 199.612 58.48 199.772 58.48C200.012 58.52 200.272 58.54 200.552 58.54C200.832 58.5 201.172 58.46 201.572 58.42C201.612 58.46 201.692 58.54 201.812 58.66C201.932 58.78 201.992 58.94 201.992 59.14C201.992 59.9 201.892 60.72 201.692 61.6C201.652 62 201.572 62.4 201.452 62.8C201.332 63.16 201.232 63.54 201.152 63.94C201.112 64.1 201.012 64.3 200.852 64.54C200.732 64.7 200.612 64.88 200.492 65.08C200.372 65.24 200.272 65.42 200.192 65.62C198.992 67.58 197.472 69 195.632 69.88C193.832 70.76 191.852 71.3 189.692 71.5C188.732 71.54 187.772 71.54 186.812 71.5C185.892 71.46 184.972 71.32 184.052 71.08C183.812 71.08 183.632 71.02 183.512 70.9C182.752 70.46 181.992 70 181.232 69.52C180.472 69 179.732 68.48 179.012 67.96C178.812 67.8 178.632 67.58 178.472 67.3C178.312 67.02 178.172 66.76 178.052 66.52C177.652 65.8 177.272 65.08 176.912 64.36C176.592 63.64 176.232 62.9 175.832 62.14ZM239.678 53.98C239.638 54.46 239.598 54.96 239.558 55.48C239.518 55.96 239.458 56.44 239.378 56.92C239.338 57.2 239.258 57.44 239.138 57.64C239.018 57.8 238.798 57.8 238.478 57.64C237.918 57.32 237.338 57.22 236.738 57.34C236.178 57.42 235.618 57.44 235.058 57.4C233.898 57.28 232.718 57.24 231.518 57.28C230.358 57.28 229.198 57.26 228.038 57.22C225.638 57.1 223.218 56.96 220.778 56.8C218.378 56.64 215.898 56.48 213.338 56.32C213.418 55.8 213.498 55.32 213.578 54.88C213.698 54.4 213.778 53.96 213.818 53.56C213.858 52.24 214.178 51.04 214.778 49.96C215.418 48.88 216.138 47.86 216.938 46.9C217.618 46.1 218.418 45.44 219.338 44.92C220.298 44.4 221.318 44.02 222.398 43.78C223.798 43.46 225.158 43.34 226.478 43.42C227.838 43.46 229.198 43.64 230.558 43.96C231.478 44.16 232.318 44.5 233.078 44.98C233.838 45.42 234.538 45.94 235.178 46.54C235.858 47.18 236.478 47.88 237.038 48.64C237.638 49.4 238.058 50.26 238.298 51.22C238.378 51.5 238.478 51.8 238.598 52.12C238.758 52.4 238.978 52.64 239.258 52.84C239.418 52.96 239.538 53.12 239.618 53.32C239.738 53.48 239.758 53.7 239.678 53.98ZM213.098 62.14C213.058 62.18 212.978 62.24 212.858 62.32C212.738 62.4 212.578 62.5 212.378 62.62C212.338 62.42 212.298 62.26 212.258 62.14C212.218 61.98 212.218 61.82 212.258 61.66C212.298 61.06 212.338 60.46 212.378 59.86C212.418 59.26 212.458 58.64 212.498 58C212.538 57.68 212.578 57.4 212.618 57.16C212.698 56.92 212.938 56.78 213.338 56.74C213.738 56.66 214.018 56.72 214.178 56.92C214.378 57.12 214.518 57.38 214.598 57.7C214.638 57.74 214.658 57.78 214.658 57.82C214.698 57.86 214.758 57.94 214.838 58.06C215.518 58.1 216.218 58.12 216.938 58.12C217.698 58.12 218.458 58.14 219.218 58.18C222.058 58.22 224.878 58.26 227.678 58.3C230.478 58.3 233.278 58.32 236.078 58.36C236.238 58.36 236.398 58.38 236.558 58.42C236.718 58.46 236.878 58.48 237.038 58.48C237.278 58.52 237.538 58.54 237.818 58.54C238.098 58.5 238.438 58.46 238.838 58.42C238.878 58.46 238.958 58.54 239.078 58.66C239.198 58.78 239.258 58.94 239.258 59.14C239.258 59.9 239.158 60.72 238.958 61.6C238.918 62 238.838 62.4 238.718 62.8C238.598 63.16 238.498 63.54 238.418 63.94C238.378 64.1 238.278 64.3 238.118 64.54C237.998 64.7 237.878 64.88 237.758 65.08C237.638 65.24 237.538 65.42 237.458 65.62C236.258 67.58 234.738 69 232.898 69.88C231.098 70.76 229.118 71.3 226.958 71.5C225.998 71.54 225.038 71.54 224.078 71.5C223.158 71.46 222.238 71.32 221.318 71.08C221.078 71.08 220.898 71.02 220.778 70.9C220.018 70.46 219.258 70 218.498 69.52C217.738 69 216.998 68.48 216.278 67.96C216.078 67.8 215.898 67.58 215.738 67.3C215.578 67.02 215.438 66.76 215.318 66.52C214.918 65.8 214.538 65.08 214.178 64.36C213.858 63.64 213.498 62.9 213.098 62.14ZM275.863 30.88L275.683 44.56V58.84C275.763 61.28 275.763 63.72 275.683 66.16C275.603 68.6 275.663 71 275.863 73.36H265.423L265.003 31.12C265.243 31.04 265.803 31 266.683 31C267.563 30.96 268.583 30.94 269.743 30.94C270.943 30.94 272.083 30.94 273.163 30.94C274.283 30.94 275.183 30.92 275.863 30.88ZM249.163 59.56C249.163 59.28 249.163 59 249.163 58.72C249.203 58.44 249.203 58.16 249.163 57.88C249.083 56.6 249.223 55.4 249.583 54.28C249.983 53.16 250.503 52.06 251.143 50.98C251.263 50.78 251.403 50.6 251.563 50.44C251.763 50.28 251.943 50.12 252.103 49.96C252.423 49.68 252.743 49.38 253.063 49.06C253.383 48.74 253.723 48.44 254.083 48.16C254.323 47.96 254.583 47.78 254.863 47.62C255.183 47.46 255.483 47.3 255.763 47.14C256.083 46.98 256.403 46.86 256.723 46.78C257.083 46.7 257.343 46.46 257.503 46.06C257.583 45.94 257.743 45.86 257.983 45.82C258.223 45.74 258.423 45.7 258.583 45.7C259.703 45.66 260.803 45.66 261.883 45.7C262.043 45.7 262.323 45.8 262.723 46C262.363 46.52 262.163 47.02 262.123 47.5C262.083 47.98 262.263 48.48 262.663 49C262.583 49.08 262.483 49.18 262.363 49.3C262.283 49.42 262.203 49.54 262.123 49.66C262.363 49.78 262.503 49.94 262.543 50.14C262.623 50.3 262.663 50.52 262.663 50.8V70.6C262.663 70.68 262.643 70.78 262.603 70.9C262.603 71.02 262.603 71.18 262.603 71.38C262.123 71.38 261.643 71.38 261.163 71.38C260.683 71.42 260.203 71.36 259.723 71.2C259.443 71.08 259.143 71 258.823 70.96C258.503 70.92 258.183 70.88 257.863 70.84C256.743 70.6 255.743 70.2 254.863 69.64C254.023 69.08 253.203 68.46 252.403 67.78C251.603 67.06 250.983 66.24 250.543 65.32C250.143 64.4 249.763 63.46 249.403 62.5C249.283 62.02 249.203 61.54 249.163 61.06C249.163 60.54 249.163 60.04 249.163 59.56Z" fill="#025949"/>
</svg>
