<svg width="219" height="261" viewBox="0 0 219 261" fill="none" xmlns="http://www.w3.org/2000/svg">
<path d="M190.74 32.74L194.88 42.1C180.12 48.22 172.02 57.4 172.02 70.9L175.44 86.2L165.72 72.52C168.24 69.28 171.84 68.38 175.26 68.38C182.64 68.38 188.76 72.7 188.76 81.34C188.76 89.8 182.28 94.3 175.08 94.3C165 94.3 159.6 86.02 159.6 73.42C159.6 53.98 171.84 39.22 190.74 32.74Z" fill="#F25C78"/>
<path d="M151.74 32.74L155.88 42.1C141.12 48.22 133.02 57.4 133.02 70.9L136.44 86.2L126.72 72.52C129.24 69.28 132.84 68.38 136.26 68.38C143.64 68.38 149.76 72.7 149.76 81.34C149.76 89.8 143.28 94.3 136.08 94.3C126 94.3 120.6 86.02 120.6 73.42C120.6 53.98 132.84 39.22 151.74 32.74Z" fill="#F25C78"/>
</svg>
