<svg width="1003" height="391" viewBox="0 0 1003 391" fill="none" xmlns="http://www.w3.org/2000/svg">
<path d="M244.08 209L235.58 181H242.44L247.28 199.1L252.5 181H259.14L264.36 199.08L269.2 181H275.9L267.4 209H260.86L255.72 190.82L250.56 209H244.08ZM279.204 209V180.2H285.764V193.16L284.404 191.54C285.284 190.46 286.331 189.6 287.544 188.96C288.758 188.32 290.098 188 291.564 188C293.471 188 295.058 188.38 296.324 189.14C297.604 189.9 298.558 190.893 299.184 192.12C299.811 193.347 300.124 194.667 300.124 196.08V209H293.564V197.92C293.564 196.747 293.224 195.793 292.544 195.06C291.864 194.327 290.911 193.953 289.684 193.94C288.858 193.927 288.151 194.093 287.564 194.44C286.991 194.773 286.544 195.26 286.224 195.9C285.918 196.527 285.764 197.273 285.764 198.14V209H279.204ZM313.836 209.6C311.916 209.6 310.196 209.153 308.676 208.26C307.156 207.353 305.956 206.093 305.076 204.48C304.196 202.853 303.756 200.96 303.756 198.8C303.756 197.173 304.01 195.7 304.516 194.38C305.023 193.047 305.73 191.907 306.636 190.96C307.543 190.013 308.61 189.287 309.836 188.78C311.063 188.26 312.396 188 313.836 188C315.73 188 317.343 188.413 318.676 189.24C320.01 190.053 320.963 191.14 321.536 192.5L320.636 193.92V188.6H326.276V209H320.636V203.68L321.536 205.08C320.963 206.44 320.01 207.533 318.676 208.36C317.343 209.187 315.73 209.6 313.836 209.6ZM314.956 203.96C315.863 203.96 316.676 203.753 317.396 203.34C318.13 202.913 318.71 202.313 319.136 201.54C319.563 200.767 319.776 199.853 319.776 198.8C319.776 197.733 319.563 196.82 319.136 196.06C318.71 195.287 318.13 194.693 317.396 194.28C316.676 193.853 315.863 193.64 314.956 193.64C314.05 193.64 313.236 193.853 312.516 194.28C311.796 194.693 311.223 195.287 310.796 196.06C310.37 196.82 310.156 197.733 310.156 198.8C310.156 199.853 310.37 200.767 310.796 201.54C311.223 202.313 311.796 202.913 312.516 203.34C313.236 203.753 314.05 203.96 314.956 203.96ZM340.684 209.6C338.418 209.6 336.638 208.967 335.344 207.7C334.051 206.42 333.404 204.513 333.404 201.98V182.76H339.964V188.6H344.744V193.8H339.964V200.84C339.964 201.933 340.204 202.7 340.684 203.14C341.164 203.58 341.784 203.8 342.544 203.8C342.958 203.8 343.364 203.753 343.764 203.66C344.178 203.553 344.558 203.4 344.904 203.2L345.744 208.34C345.118 208.687 344.364 208.98 343.484 209.22C342.604 209.473 341.671 209.6 340.684 209.6ZM329.444 193.8V188.6H334.004V193.8H329.444ZM368.632 209.6C366.405 209.6 364.439 209.113 362.732 208.14C361.025 207.153 359.685 205.84 358.712 204.2C357.752 202.56 357.272 200.76 357.272 198.8C357.272 197.373 357.545 196.013 358.092 194.72C358.652 193.413 359.439 192.26 360.452 191.26C361.465 190.247 362.665 189.453 364.052 188.88C365.439 188.293 366.965 188 368.632 188C370.859 188 372.825 188.493 374.532 189.48C376.239 190.453 377.572 191.76 378.532 193.4C379.492 195.04 379.972 196.84 379.972 198.8C379.972 200.227 379.699 201.593 379.152 202.9C378.605 204.193 377.825 205.34 376.812 206.34C375.799 207.34 374.599 208.133 373.212 208.72C371.825 209.307 370.299 209.6 368.632 209.6ZM368.632 203.96C369.565 203.96 370.405 203.753 371.152 203.34C371.899 202.913 372.485 202.313 372.912 201.54C373.339 200.767 373.552 199.853 373.552 198.8C373.552 197.733 373.339 196.82 372.912 196.06C372.499 195.287 371.919 194.693 371.172 194.28C370.425 193.853 369.579 193.64 368.632 193.64C367.685 193.64 366.839 193.853 366.092 194.28C365.345 194.693 364.759 195.287 364.332 196.06C363.905 196.82 363.692 197.733 363.692 198.8C363.692 199.853 363.905 200.767 364.332 201.54C364.772 202.313 365.365 202.913 366.112 203.34C366.859 203.753 367.699 203.96 368.632 203.96ZM391.814 209.6C389.96 209.6 388.427 209.24 387.214 208.52C386 207.787 385.094 206.78 384.494 205.5C383.907 204.207 383.614 202.707 383.614 201V188.6H390.174V200.02C390.174 201.14 390.467 202.027 391.054 202.68C391.654 203.333 392.52 203.66 393.654 203.66C394.387 203.66 395.027 203.5 395.574 203.18C396.134 202.847 396.56 202.393 396.854 201.82C397.16 201.247 397.314 200.58 397.314 199.82V188.6H403.874V209H398.214V206.84C397.56 207.573 396.734 208.22 395.734 208.78C394.734 209.327 393.427 209.6 391.814 209.6ZM409.322 209V188.6H415.882V190.98C416.495 189.927 417.308 189.16 418.322 188.68C419.335 188.2 420.435 187.96 421.622 187.96C422.075 187.96 422.482 187.987 422.842 188.04C423.202 188.093 423.555 188.153 423.902 188.22L423.122 194.96C422.668 194.8 422.188 194.673 421.682 194.58C421.175 194.473 420.668 194.42 420.162 194.42C418.922 194.42 417.895 194.78 417.082 195.5C416.282 196.207 415.882 197.247 415.882 198.62V209H409.322ZM444.275 209.6C442.421 209.6 440.888 209.24 439.675 208.52C438.461 207.787 437.555 206.78 436.955 205.5C436.368 204.207 436.075 202.707 436.075 201V188.6H442.635V200.02C442.635 201.14 442.928 202.027 443.515 202.68C444.115 203.333 444.981 203.66 446.115 203.66C446.848 203.66 447.488 203.5 448.035 203.18C448.595 202.847 449.021 202.393 449.315 201.82C449.621 201.247 449.775 200.58 449.775 199.82V188.6H456.335V209H450.675V206.84C450.021 207.573 449.195 208.22 448.195 208.78C447.195 209.327 445.888 209.6 444.275 209.6ZM469.443 209.56C467.549 209.56 465.816 209.327 464.243 208.86C462.683 208.393 461.336 207.733 460.203 206.88L462.243 202.38C463.349 203.087 464.536 203.647 465.803 204.06C467.069 204.46 468.269 204.66 469.403 204.66C470.443 204.66 471.236 204.52 471.783 204.24C472.329 203.947 472.603 203.527 472.603 202.98C472.603 202.5 472.349 202.147 471.843 201.92C471.349 201.693 470.376 201.447 468.923 201.18C466.176 200.713 464.163 199.947 462.883 198.88C461.616 197.8 460.983 196.327 460.983 194.46C460.983 193.127 461.349 191.96 462.083 190.96C462.816 189.96 463.829 189.187 465.123 188.64C466.429 188.08 467.929 187.8 469.622 187.8C471.276 187.8 472.836 188.02 474.303 188.46C475.783 188.9 477.049 189.513 478.103 190.3L476.123 194.8C475.576 194.387 474.943 194.02 474.223 193.7C473.516 193.38 472.783 193.133 472.023 192.96C471.263 192.787 470.523 192.7 469.803 192.7C468.909 192.7 468.183 192.84 467.623 193.12C467.076 193.387 466.803 193.76 466.803 194.24C466.803 194.733 467.043 195.1 467.523 195.34C468.003 195.58 468.963 195.853 470.403 196.16C473.309 196.747 475.369 197.54 476.583 198.54C477.796 199.527 478.403 200.913 478.403 202.7C478.403 204.087 478.023 205.293 477.263 206.32C476.516 207.347 475.469 208.147 474.123 208.72C472.789 209.28 471.229 209.56 469.443 209.56ZM492.341 209.6C490.101 209.6 488.134 209.153 486.441 208.26C484.748 207.353 483.428 206.093 482.481 204.48C481.534 202.853 481.061 200.953 481.061 198.78C481.061 197.207 481.334 195.76 481.881 194.44C482.441 193.12 483.214 191.98 484.201 191.02C485.201 190.06 486.374 189.32 487.721 188.8C489.081 188.267 490.574 188 492.201 188C493.988 188 495.581 188.32 496.981 188.96C498.381 189.587 499.534 190.467 500.441 191.6C501.361 192.72 501.994 194.047 502.341 195.58C502.688 197.1 502.701 198.753 502.381 200.54H487.061C487.074 201.34 487.314 202.04 487.781 202.64C488.248 203.24 488.888 203.713 489.701 204.06C490.514 204.393 491.461 204.56 492.541 204.56C493.741 204.56 494.881 204.407 495.961 204.1C497.041 203.78 498.074 203.293 499.061 202.64L501.121 207.08C500.494 207.56 499.681 207.993 498.681 208.38C497.694 208.753 496.641 209.047 495.521 209.26C494.414 209.487 493.354 209.6 492.341 209.6ZM487.461 196.12H496.141C496.114 195.093 495.734 194.273 495.001 193.66C494.268 193.047 493.274 192.74 492.021 192.74C490.754 192.74 489.701 193.047 488.861 193.66C488.034 194.273 487.568 195.093 487.461 196.12ZM506.431 209V188.6H512.991V190.98C513.604 189.927 514.418 189.16 515.431 188.68C516.444 188.2 517.544 187.96 518.731 187.96C519.184 187.96 519.591 187.987 519.951 188.04C520.311 188.093 520.664 188.153 521.011 188.22L520.231 194.96C519.778 194.8 519.298 194.673 518.791 194.58C518.284 194.473 517.778 194.42 517.271 194.42C516.031 194.42 515.004 194.78 514.191 195.5C513.391 196.207 512.991 197.247 512.991 198.62V209H506.431ZM531.825 209.56C529.932 209.56 528.199 209.327 526.625 208.86C525.065 208.393 523.719 207.733 522.585 206.88L524.625 202.38C525.732 203.087 526.919 203.647 528.185 204.06C529.452 204.46 530.652 204.66 531.785 204.66C532.825 204.66 533.619 204.52 534.165 204.24C534.712 203.947 534.985 203.527 534.985 202.98C534.985 202.5 534.732 202.147 534.225 201.92C533.732 201.693 532.759 201.447 531.305 201.18C528.559 200.713 526.545 199.947 525.265 198.88C523.999 197.8 523.365 196.327 523.365 194.46C523.365 193.127 523.732 191.96 524.465 190.96C525.199 189.96 526.212 189.187 527.505 188.64C528.812 188.08 530.312 187.8 532.005 187.8C533.659 187.8 535.219 188.02 536.685 188.46C538.165 188.9 539.432 189.513 540.485 190.3L538.505 194.8C537.959 194.387 537.325 194.02 536.605 193.7C535.899 193.38 535.165 193.133 534.405 192.96C533.645 192.787 532.905 192.7 532.185 192.7C531.292 192.7 530.565 192.84 530.005 193.12C529.459 193.387 529.185 193.76 529.185 194.24C529.185 194.733 529.425 195.1 529.905 195.34C530.385 195.58 531.345 195.853 532.785 196.16C535.692 196.747 537.752 197.54 538.965 198.54C540.179 199.527 540.785 200.913 540.785 202.7C540.785 204.087 540.405 205.293 539.645 206.32C538.899 207.347 537.852 208.147 536.505 208.72C535.172 209.28 533.612 209.56 531.825 209.56ZM562.743 209.6C560.823 209.6 559.103 209.153 557.583 208.26C556.063 207.353 554.863 206.093 553.983 204.48C553.103 202.853 552.663 200.96 552.663 198.8C552.663 197.173 552.916 195.7 553.423 194.38C553.929 193.047 554.636 191.907 555.543 190.96C556.449 190.013 557.516 189.287 558.743 188.78C559.969 188.26 561.303 188 562.743 188C564.636 188 566.249 188.413 567.583 189.24C568.916 190.053 569.869 191.14 570.443 192.5L569.543 193.92V188.6H575.183V209H569.543V203.68L570.443 205.08C569.869 206.44 568.916 207.533 567.583 208.36C566.249 209.187 564.636 209.6 562.743 209.6ZM563.863 203.96C564.769 203.96 565.583 203.753 566.303 203.34C567.036 202.913 567.616 202.313 568.043 201.54C568.469 200.767 568.683 199.853 568.683 198.8C568.683 197.733 568.469 196.82 568.043 196.06C567.616 195.287 567.036 194.693 566.303 194.28C565.583 193.853 564.769 193.64 563.863 193.64C562.956 193.64 562.143 193.853 561.423 194.28C560.703 194.693 560.129 195.287 559.703 196.06C559.276 196.82 559.063 197.733 559.063 198.8C559.063 199.853 559.276 200.767 559.703 201.54C560.129 202.313 560.703 202.913 561.423 203.34C562.143 203.753 562.956 203.96 563.863 203.96ZM580.611 209V188.6H587.171V190.98C587.784 189.927 588.597 189.16 589.611 188.68C590.624 188.2 591.724 187.96 592.911 187.96C593.364 187.96 593.771 187.987 594.131 188.04C594.491 188.093 594.844 188.153 595.191 188.22L594.411 194.96C593.957 194.8 593.477 194.673 592.971 194.58C592.464 194.473 591.957 194.42 591.451 194.42C590.211 194.42 589.184 194.78 588.371 195.5C587.571 196.207 587.171 197.247 587.171 198.62V209H580.611ZM607.614 209.6C605.374 209.6 603.408 209.153 601.714 208.26C600.021 207.353 598.701 206.093 597.754 204.48C596.808 202.853 596.334 200.953 596.334 198.78C596.334 197.207 596.608 195.76 597.154 194.44C597.714 193.12 598.488 191.98 599.474 191.02C600.474 190.06 601.648 189.32 602.994 188.8C604.354 188.267 605.848 188 607.474 188C609.261 188 610.854 188.32 612.254 188.96C613.654 189.587 614.808 190.467 615.714 191.6C616.634 192.72 617.268 194.047 617.614 195.58C617.961 197.1 617.974 198.753 617.654 200.54H602.334C602.348 201.34 602.588 202.04 603.054 202.64C603.521 203.24 604.161 203.713 604.974 204.06C605.788 204.393 606.734 204.56 607.814 204.56C609.014 204.56 610.154 204.407 611.234 204.1C612.314 203.78 613.348 203.293 614.334 202.64L616.394 207.08C615.768 207.56 614.954 207.993 613.954 208.38C612.968 208.753 611.914 209.047 610.794 209.26C609.688 209.487 608.628 209.6 607.614 209.6ZM602.734 196.12H611.414C611.388 195.093 611.008 194.273 610.274 193.66C609.541 193.047 608.548 192.74 607.294 192.74C606.028 192.74 604.974 193.047 604.134 193.66C603.308 194.273 602.841 195.093 602.734 196.12ZM638.583 209.56C636.69 209.56 634.956 209.327 633.383 208.86C631.823 208.393 630.476 207.733 629.343 206.88L631.383 202.38C632.49 203.087 633.676 203.647 634.943 204.06C636.21 204.46 637.41 204.66 638.543 204.66C639.583 204.66 640.376 204.52 640.923 204.24C641.47 203.947 641.743 203.527 641.743 202.98C641.743 202.5 641.49 202.147 640.983 201.92C640.49 201.693 639.516 201.447 638.063 201.18C635.316 200.713 633.303 199.947 632.023 198.88C630.756 197.8 630.123 196.327 630.123 194.46C630.123 193.127 630.49 191.96 631.223 190.96C631.956 189.96 632.97 189.187 634.263 188.64C635.57 188.08 637.07 187.8 638.763 187.8C640.416 187.8 641.976 188.02 643.443 188.46C644.923 188.9 646.19 189.513 647.243 190.3L645.263 194.8C644.716 194.387 644.083 194.02 643.363 193.7C642.656 193.38 641.923 193.133 641.163 192.96C640.403 192.787 639.663 192.7 638.943 192.7C638.05 192.7 637.323 192.84 636.763 193.12C636.216 193.387 635.943 193.76 635.943 194.24C635.943 194.733 636.183 195.1 636.663 195.34C637.143 195.58 638.103 195.853 639.543 196.16C642.45 196.747 644.51 197.54 645.723 198.54C646.936 199.527 647.543 200.913 647.543 202.7C647.543 204.087 647.163 205.293 646.403 206.32C645.656 207.347 644.61 208.147 643.263 208.72C641.93 209.28 640.37 209.56 638.583 209.56ZM660.282 209.6C658.362 209.6 656.642 209.153 655.122 208.26C653.602 207.353 652.402 206.093 651.522 204.48C650.642 202.853 650.202 200.96 650.202 198.8C650.202 197.173 650.455 195.7 650.962 194.38C651.468 193.047 652.175 191.907 653.082 190.96C653.988 190.013 655.055 189.287 656.282 188.78C657.508 188.26 658.842 188 660.282 188C662.175 188 663.788 188.413 665.122 189.24C666.455 190.053 667.408 191.14 667.982 192.5L667.082 193.92V188.6H672.722V209H667.082V203.68L667.982 205.08C667.408 206.44 666.455 207.533 665.122 208.36C663.788 209.187 662.175 209.6 660.282 209.6ZM661.402 203.96C662.308 203.96 663.122 203.753 663.842 203.34C664.575 202.913 665.155 202.313 665.582 201.54C666.008 200.767 666.222 199.853 666.222 198.8C666.222 197.733 666.008 196.82 665.582 196.06C665.155 195.287 664.575 194.693 663.842 194.28C663.122 193.853 662.308 193.64 661.402 193.64C660.495 193.64 659.682 193.853 658.962 194.28C658.242 194.693 657.668 195.287 657.242 196.06C656.815 196.82 656.602 197.733 656.602 198.8C656.602 199.853 656.815 200.767 657.242 201.54C657.668 202.313 658.242 202.913 658.962 203.34C659.682 203.753 660.495 203.96 661.402 203.96ZM681.19 217.94C680.256 217.94 679.343 217.847 678.45 217.66C677.556 217.473 676.736 217.173 675.99 216.76L677.37 211.28C677.81 211.507 678.29 211.687 678.81 211.82C679.33 211.953 679.816 212.02 680.27 212.02C681.003 212.02 681.623 211.867 682.13 211.56C682.65 211.253 683.023 210.747 683.25 210.04L683.55 209.08L675.63 188.6H682.75L687.27 202.58L691.65 188.6H698.59L690.13 211.02C689.436 212.753 688.63 214.12 687.71 215.12C686.803 216.133 685.796 216.853 684.69 217.28C683.583 217.72 682.416 217.94 681.19 217.94ZM701.431 209V188.6H707.991V209H701.431ZM704.711 185.58C703.658 185.58 702.738 185.253 701.951 184.6C701.178 183.933 700.791 183.04 700.791 181.92C700.791 180.8 701.178 179.913 701.951 179.26C702.738 178.607 703.658 178.28 704.711 178.28C705.778 178.28 706.698 178.607 707.471 179.26C708.244 179.913 708.631 180.8 708.631 181.92C708.631 183.04 708.244 183.933 707.471 184.6C706.698 185.253 705.778 185.58 704.711 185.58ZM713.462 209V188.6H720.022V190.76C720.782 189.8 721.682 189.1 722.722 188.66C723.762 188.22 724.856 188 726.002 188C727.922 188 729.502 188.38 730.742 189.14C731.982 189.887 732.896 190.86 733.482 192.06C734.082 193.247 734.382 194.507 734.382 195.84V209H727.822V197.9C727.822 196.673 727.496 195.707 726.842 195C726.202 194.293 725.256 193.94 724.002 193.94C723.202 193.94 722.502 194.113 721.902 194.46C721.316 194.807 720.856 195.3 720.522 195.94C720.189 196.567 720.022 197.287 720.022 198.1V209H713.462ZM748.674 218C747.207 218 745.814 217.86 744.494 217.58C743.174 217.313 741.961 216.873 740.854 216.26L742.214 211.08C743.147 211.533 744.114 211.867 745.114 212.08C746.114 212.307 747.147 212.42 748.214 212.42C750.281 212.42 751.847 211.98 752.914 211.1C753.994 210.233 754.534 209 754.534 207.4V202.92L755.374 204.32C754.854 205.667 753.941 206.733 752.634 207.52C751.341 208.307 749.741 208.7 747.834 208.7C745.861 208.7 744.134 208.26 742.654 207.38C741.174 206.5 740.021 205.28 739.194 203.72C738.367 202.16 737.954 200.367 737.954 198.34C737.954 196.833 738.187 195.447 738.654 194.18C739.121 192.913 739.787 191.82 740.654 190.9C741.534 189.967 742.581 189.253 743.794 188.76C745.007 188.253 746.354 188 747.834 188C749.741 188 751.341 188.393 752.634 189.18C753.941 189.953 754.854 191.013 755.374 192.36L754.534 193.78V188.56H760.454V206.3C760.454 210.047 759.447 212.933 757.434 214.96C755.421 216.987 752.501 218 748.674 218ZM749.154 203.2C750.087 203.2 750.914 203 751.634 202.6C752.367 202.2 752.934 201.633 753.334 200.9C753.747 200.167 753.954 199.313 753.954 198.34C753.954 197.38 753.747 196.533 753.334 195.8C752.934 195.067 752.367 194.5 751.634 194.1C750.914 193.687 750.087 193.48 749.154 193.48C748.207 193.48 747.374 193.687 746.654 194.1C745.934 194.5 745.367 195.067 744.954 195.8C744.541 196.533 744.334 197.38 744.334 198.34C744.334 199.313 744.541 200.167 744.954 200.9C745.367 201.633 745.934 202.2 746.654 202.6C747.374 203 748.207 203.2 749.154 203.2Z" fill="#025949"/>
<path d="M812.26 228.26L808.12 218.9C822.88 212.78 830.98 203.6 830.98 190.1L827.56 174.8L837.28 188.48C834.76 191.72 831.16 192.62 827.74 192.62C820.36 192.62 814.24 188.3 814.24 179.66C814.24 171.2 820.72 166.7 827.92 166.7C838 166.7 843.4 174.98 843.4 187.58C843.4 207.02 831.16 221.78 812.26 228.26Z" fill="#F25C78"/>
<path d="M851.26 228.26L847.12 218.9C861.88 212.78 869.98 203.6 869.98 190.1L866.56 174.8L876.28 188.48C873.76 191.72 870.16 192.62 866.74 192.62C859.36 192.62 853.24 188.3 853.24 179.66C853.24 171.2 859.72 166.7 866.92 166.7C877 166.7 882.4 174.98 882.4 187.58C882.4 207.02 870.16 221.78 851.26 228.26Z" fill="#F25C78"/>
<path d="M190.74 162.74L194.88 172.1C180.12 178.22 172.02 187.4 172.02 200.9L175.44 216.2L165.72 202.52C168.24 199.28 171.84 198.38 175.26 198.38C182.64 198.38 188.76 202.7 188.76 211.34C188.76 219.8 182.28 224.3 175.08 224.3C165 224.3 159.6 216.02 159.6 203.42C159.6 183.98 171.84 169.22 190.74 162.74Z" fill="#F25C78"/>
<path d="M151.74 162.74L155.88 172.1C141.12 178.22 133.02 187.4 133.02 200.9L136.44 216.2L126.72 202.52C129.24 199.28 132.84 198.38 136.26 198.38C143.64 198.38 149.76 202.7 149.76 211.34C149.76 219.8 143.28 224.3 136.08 224.3C126 224.3 120.6 216.02 120.6 203.42C120.6 183.98 132.84 169.22 151.74 162.74Z" fill="#F25C78"/>
</svg>
