<svg width="847" height="391" viewBox="0 0 847 391" fill="none" xmlns="http://www.w3.org/2000/svg">
<path d="M230.3 209V181H248.74V187.06H236.94V192.84H247.5V198.66H236.94V209H230.3ZM262.273 209.6C260.046 209.6 258.079 209.113 256.373 208.14C254.666 207.153 253.326 205.84 252.353 204.2C251.393 202.56 250.913 200.76 250.913 198.8C250.913 197.373 251.186 196.013 251.733 194.72C252.293 193.413 253.079 192.26 254.093 191.26C255.106 190.247 256.306 189.453 257.693 188.88C259.079 188.293 260.606 188 262.273 188C264.499 188 266.466 188.493 268.173 189.48C269.879 190.453 271.213 191.76 272.173 193.4C273.133 195.04 273.613 196.84 273.613 198.8C273.613 200.227 273.339 201.593 272.793 202.9C272.246 204.193 271.466 205.34 270.453 206.34C269.439 207.34 268.239 208.133 266.853 208.72C265.466 209.307 263.939 209.6 262.273 209.6ZM262.273 203.96C263.206 203.96 264.046 203.753 264.793 203.34C265.539 202.913 266.126 202.313 266.553 201.54C266.979 200.767 267.193 199.853 267.193 198.8C267.193 197.733 266.979 196.82 266.553 196.06C266.139 195.287 265.559 194.693 264.813 194.28C264.066 193.853 263.219 193.64 262.273 193.64C261.326 193.64 260.479 193.853 259.733 194.28C258.986 194.693 258.399 195.287 257.973 196.06C257.546 196.82 257.333 197.733 257.333 198.8C257.333 199.853 257.546 200.767 257.973 201.54C258.413 202.313 259.006 202.913 259.753 203.34C260.499 203.753 261.339 203.96 262.273 203.96ZM287.39 209.6C285.163 209.6 283.196 209.113 281.49 208.14C279.783 207.153 278.443 205.84 277.47 204.2C276.51 202.56 276.03 200.76 276.03 198.8C276.03 197.373 276.303 196.013 276.85 194.72C277.41 193.413 278.196 192.26 279.21 191.26C280.223 190.247 281.423 189.453 282.81 188.88C284.196 188.293 285.723 188 287.39 188C289.616 188 291.583 188.493 293.29 189.48C294.996 190.453 296.33 191.76 297.29 193.4C298.25 195.04 298.73 196.84 298.73 198.8C298.73 200.227 298.456 201.593 297.91 202.9C297.363 204.193 296.583 205.34 295.57 206.34C294.556 207.34 293.356 208.133 291.97 208.72C290.583 209.307 289.056 209.6 287.39 209.6ZM287.39 203.96C288.323 203.96 289.163 203.753 289.91 203.34C290.656 202.913 291.243 202.313 291.67 201.54C292.096 200.767 292.31 199.853 292.31 198.8C292.31 197.733 292.096 196.82 291.67 196.06C291.256 195.287 290.676 194.693 289.93 194.28C289.183 193.853 288.336 193.64 287.39 193.64C286.443 193.64 285.596 193.853 284.85 194.28C284.103 194.693 283.516 195.287 283.09 196.06C282.663 196.82 282.45 197.733 282.45 198.8C282.45 199.853 282.663 200.767 283.09 201.54C283.53 202.313 284.123 202.913 284.87 203.34C285.616 203.753 286.456 203.96 287.39 203.96ZM311.287 209.6C309.354 209.6 307.62 209.153 306.087 208.26C304.554 207.353 303.347 206.093 302.467 204.48C301.587 202.853 301.147 200.96 301.147 198.8C301.147 197.267 301.4 195.847 301.907 194.54C302.414 193.233 303.12 192.093 304.027 191.12C304.947 190.133 306.034 189.367 307.287 188.82C308.54 188.273 309.914 188 311.407 188C312.967 188 314.374 188.307 315.627 188.92C316.88 189.533 317.974 190.447 318.907 191.66L317.407 193.16V180.2H323.967V209H318.307V203.7L319.207 205.18C318.62 206.487 317.64 207.553 316.267 208.38C314.894 209.193 313.234 209.6 311.287 209.6ZM312.507 203.96C313.44 203.96 314.28 203.753 315.027 203.34C315.774 202.913 316.36 202.313 316.787 201.54C317.214 200.767 317.427 199.853 317.427 198.8C317.427 197.733 317.214 196.82 316.787 196.06C316.374 195.287 315.794 194.693 315.047 194.28C314.3 193.853 313.454 193.64 312.507 193.64C311.56 193.64 310.714 193.853 309.967 194.28C309.22 194.693 308.634 195.287 308.207 196.06C307.78 196.82 307.567 197.733 307.567 198.8C307.567 199.853 307.78 200.767 308.207 201.54C308.647 202.313 309.24 202.913 309.987 203.34C310.734 203.753 311.574 203.96 312.507 203.96ZM329.408 209V188.6H335.968V209H329.408ZM332.688 185.58C331.634 185.58 330.714 185.253 329.928 184.6C329.154 183.933 328.768 183.04 328.768 181.92C328.768 180.8 329.154 179.913 329.928 179.26C330.714 178.607 331.634 178.28 332.688 178.28C333.754 178.28 334.674 178.607 335.448 179.26C336.221 179.913 336.608 180.8 336.608 181.92C336.608 183.04 336.221 183.933 335.448 184.6C334.674 185.253 333.754 185.58 332.688 185.58ZM351.099 209.6C348.859 209.6 346.892 209.153 345.199 208.26C343.505 207.353 342.185 206.093 341.239 204.48C340.292 202.853 339.819 200.953 339.819 198.78C339.819 197.207 340.092 195.76 340.639 194.44C341.199 193.12 341.972 191.98 342.959 191.02C343.959 190.06 345.132 189.32 346.479 188.8C347.839 188.267 349.332 188 350.959 188C352.745 188 354.339 188.32 355.739 188.96C357.139 189.587 358.292 190.467 359.199 191.6C360.119 192.72 360.752 194.047 361.099 195.58C361.445 197.1 361.459 198.753 361.139 200.54H345.819C345.832 201.34 346.072 202.04 346.539 202.64C347.005 203.24 347.645 203.713 348.459 204.06C349.272 204.393 350.219 204.56 351.299 204.56C352.499 204.56 353.639 204.407 354.719 204.1C355.799 203.78 356.832 203.293 357.819 202.64L359.879 207.08C359.252 207.56 358.439 207.993 357.439 208.38C356.452 208.753 355.399 209.047 354.279 209.26C353.172 209.487 352.112 209.6 351.099 209.6ZM346.219 196.12H354.899C354.872 195.093 354.492 194.273 353.759 193.66C353.025 193.047 352.032 192.74 350.779 192.74C349.512 192.74 348.459 193.047 347.619 193.66C346.792 194.273 346.325 195.093 346.219 196.12ZM374.988 209V181H385.828C388.681 181 390.961 181.6 392.668 182.8C394.374 183.987 395.228 185.753 395.228 188.1C395.228 188.953 395.054 189.74 394.708 190.46C394.361 191.18 393.888 191.82 393.288 192.38C392.701 192.927 392.041 193.367 391.308 193.7C392.814 194.233 394.028 195.12 394.948 196.36C395.881 197.6 396.348 199.073 396.348 200.78C396.348 202.447 395.928 203.893 395.088 205.12C394.261 206.347 393.081 207.3 391.548 207.98C390.014 208.66 388.194 209 386.088 209H374.988ZM381.628 204.1H385.128C386.568 204.1 387.648 203.807 388.368 203.22C389.088 202.633 389.448 201.753 389.448 200.58C389.448 199.46 389.101 198.593 388.408 197.98C387.728 197.353 386.708 197.04 385.348 197.04H381.628V204.1ZM381.628 192.48H384.928C385.728 192.48 386.414 192.347 386.988 192.08C387.574 191.813 388.021 191.427 388.328 190.92C388.648 190.413 388.808 189.807 388.808 189.1C388.808 188.073 388.461 187.28 387.768 186.72C387.088 186.16 386.108 185.88 384.828 185.88H381.628V192.48ZM409.196 209.6C407.276 209.6 405.556 209.153 404.036 208.26C402.516 207.353 401.316 206.093 400.436 204.48C399.556 202.853 399.116 200.96 399.116 198.8C399.116 197.173 399.369 195.7 399.876 194.38C400.382 193.047 401.089 191.907 401.996 190.96C402.902 190.013 403.969 189.287 405.196 188.78C406.422 188.26 407.756 188 409.196 188C411.089 188 412.702 188.413 414.036 189.24C415.369 190.053 416.322 191.14 416.896 192.5L415.996 193.92V188.6H421.636V209H415.996V203.68L416.896 205.08C416.322 206.44 415.369 207.533 414.036 208.36C412.702 209.187 411.089 209.6 409.196 209.6ZM410.316 203.96C411.222 203.96 412.036 203.753 412.756 203.34C413.489 202.913 414.069 202.313 414.496 201.54C414.922 200.767 415.136 199.853 415.136 198.8C415.136 197.733 414.922 196.82 414.496 196.06C414.069 195.287 413.489 194.693 412.756 194.28C412.036 193.853 411.222 193.64 410.316 193.64C409.409 193.64 408.596 193.853 407.876 194.28C407.156 194.693 406.582 195.287 406.156 196.06C405.729 196.82 405.516 197.733 405.516 198.8C405.516 199.853 405.729 200.767 406.156 201.54C406.582 202.313 407.156 202.913 407.876 203.34C408.596 203.753 409.409 203.96 410.316 203.96ZM436.104 218C434.637 218 433.244 217.86 431.924 217.58C430.604 217.313 429.39 216.873 428.284 216.26L429.644 211.08C430.577 211.533 431.544 211.867 432.544 212.08C433.544 212.307 434.577 212.42 435.644 212.42C437.71 212.42 439.277 211.98 440.344 211.1C441.424 210.233 441.964 209 441.964 207.4V202.92L442.804 204.32C442.284 205.667 441.37 206.733 440.064 207.52C438.77 208.307 437.17 208.7 435.264 208.7C433.29 208.7 431.564 208.26 430.084 207.38C428.604 206.5 427.45 205.28 426.624 203.72C425.797 202.16 425.384 200.367 425.384 198.34C425.384 196.833 425.617 195.447 426.084 194.18C426.55 192.913 427.217 191.82 428.084 190.9C428.964 189.967 430.01 189.253 431.224 188.76C432.437 188.253 433.784 188 435.264 188C437.17 188 438.77 188.393 440.064 189.18C441.37 189.953 442.284 191.013 442.804 192.36L441.964 193.78V188.56H447.884V206.3C447.884 210.047 446.877 212.933 444.864 214.96C442.85 216.987 439.93 218 436.104 218ZM436.584 203.2C437.517 203.2 438.344 203 439.064 202.6C439.797 202.2 440.364 201.633 440.764 200.9C441.177 200.167 441.384 199.313 441.384 198.34C441.384 197.38 441.177 196.533 440.764 195.8C440.364 195.067 439.797 194.5 439.064 194.1C438.344 193.687 437.517 193.48 436.584 193.48C435.637 193.48 434.804 193.687 434.084 194.1C433.364 194.5 432.797 195.067 432.384 195.8C431.97 196.533 431.764 197.38 431.764 198.34C431.764 199.313 431.97 200.167 432.384 200.9C432.797 201.633 433.364 202.2 434.084 202.6C434.804 203 435.637 203.2 436.584 203.2ZM460.974 209.56C459.08 209.56 457.347 209.327 455.774 208.86C454.214 208.393 452.867 207.733 451.734 206.88L453.774 202.38C454.88 203.087 456.067 203.647 457.334 204.06C458.6 204.46 459.8 204.66 460.934 204.66C461.974 204.66 462.767 204.52 463.314 204.24C463.86 203.947 464.134 203.527 464.134 202.98C464.134 202.5 463.88 202.147 463.374 201.92C462.88 201.693 461.907 201.447 460.454 201.18C457.707 200.713 455.694 199.947 454.414 198.88C453.147 197.8 452.514 196.327 452.514 194.46C452.514 193.127 452.88 191.96 453.614 190.96C454.347 189.96 455.36 189.187 456.654 188.64C457.96 188.08 459.46 187.8 461.154 187.8C462.807 187.8 464.367 188.02 465.834 188.46C467.314 188.9 468.58 189.513 469.634 190.3L467.654 194.8C467.107 194.387 466.474 194.02 465.754 193.7C465.047 193.38 464.314 193.133 463.554 192.96C462.794 192.787 462.054 192.7 461.334 192.7C460.44 192.7 459.714 192.84 459.154 193.12C458.607 193.387 458.334 193.76 458.334 194.24C458.334 194.733 458.574 195.1 459.054 195.34C459.534 195.58 460.494 195.853 461.934 196.16C464.84 196.747 466.9 197.54 468.114 198.54C469.327 199.527 469.934 200.913 469.934 202.7C469.934 204.087 469.554 205.293 468.794 206.32C468.047 207.347 467 208.147 465.654 208.72C464.32 209.28 462.76 209.56 460.974 209.56ZM484.011 209V181H490.571L502.091 198.16V181H508.531V209H501.971L490.431 191.6V209H484.011ZM524.224 209.6C521.984 209.6 520.017 209.153 518.324 208.26C516.63 207.353 515.31 206.093 514.364 204.48C513.417 202.853 512.944 200.953 512.944 198.78C512.944 197.207 513.217 195.76 513.764 194.44C514.324 193.12 515.097 191.98 516.084 191.02C517.084 190.06 518.257 189.32 519.604 188.8C520.964 188.267 522.457 188 524.084 188C525.87 188 527.464 188.32 528.864 188.96C530.264 189.587 531.417 190.467 532.324 191.6C533.244 192.72 533.877 194.047 534.224 195.58C534.57 197.1 534.584 198.753 534.264 200.54H518.944C518.957 201.34 519.197 202.04 519.664 202.64C520.13 203.24 520.77 203.713 521.584 204.06C522.397 204.393 523.344 204.56 524.424 204.56C525.624 204.56 526.764 204.407 527.844 204.1C528.924 203.78 529.957 203.293 530.944 202.64L533.004 207.08C532.377 207.56 531.564 207.993 530.564 208.38C529.577 208.753 528.524 209.047 527.404 209.26C526.297 209.487 525.237 209.6 524.224 209.6ZM519.344 196.12H528.024C527.997 195.093 527.617 194.273 526.884 193.66C526.15 193.047 525.157 192.74 523.904 192.74C522.637 192.74 521.584 193.047 520.744 193.66C519.917 194.273 519.45 195.093 519.344 196.12ZM546.969 209.6C545.049 209.6 543.329 209.153 541.809 208.26C540.289 207.353 539.089 206.093 538.209 204.48C537.329 202.853 536.889 200.96 536.889 198.8C536.889 197.173 537.142 195.7 537.649 194.38C538.156 193.047 538.862 191.907 539.769 190.96C540.676 190.013 541.742 189.287 542.969 188.78C544.196 188.26 545.529 188 546.969 188C548.862 188 550.476 188.413 551.809 189.24C553.142 190.053 554.096 191.14 554.669 192.5L553.769 193.92V188.6H559.409V209H553.769V203.68L554.669 205.08C554.096 206.44 553.142 207.533 551.809 208.36C550.476 209.187 548.862 209.6 546.969 209.6ZM548.089 203.96C548.996 203.96 549.809 203.753 550.529 203.34C551.262 202.913 551.842 202.313 552.269 201.54C552.696 200.767 552.909 199.853 552.909 198.8C552.909 197.733 552.696 196.82 552.269 196.06C551.842 195.287 551.262 194.693 550.529 194.28C549.809 193.853 548.996 193.64 548.089 193.64C547.182 193.64 546.369 193.853 545.649 194.28C544.929 194.693 544.356 195.287 543.929 196.06C543.502 196.82 543.289 197.733 543.289 198.8C543.289 199.853 543.502 200.767 543.929 201.54C544.356 202.313 544.929 202.913 545.649 203.34C546.369 203.753 547.182 203.96 548.089 203.96ZM564.837 209V188.6H571.397V190.98C572.011 189.927 572.824 189.16 573.837 188.68C574.851 188.2 575.951 187.96 577.137 187.96C577.591 187.96 577.997 187.987 578.357 188.04C578.717 188.093 579.071 188.153 579.417 188.22L578.637 194.96C578.184 194.8 577.704 194.673 577.197 194.58C576.691 194.473 576.184 194.42 575.677 194.42C574.437 194.42 573.411 194.78 572.597 195.5C571.797 196.207 571.397 197.247 571.397 198.62V209H564.837ZM595.252 209.6C593.985 209.6 592.825 209.413 591.772 209.04C590.718 208.667 589.812 208.14 589.052 207.46C588.305 206.78 587.732 205.993 587.332 205.1L588.232 203.64V209H582.572V180.2H589.112V193.2L587.632 191.7C588.565 190.487 589.658 189.567 590.912 188.94C592.165 188.313 593.572 188 595.132 188C597.132 188 598.905 188.48 600.452 189.44C601.998 190.387 603.205 191.673 604.072 193.3C604.952 194.927 605.392 196.76 605.392 198.8C605.392 200.413 605.138 201.887 604.632 203.22C604.125 204.54 603.412 205.68 602.492 206.64C601.585 207.587 600.518 208.32 599.292 208.84C598.065 209.347 596.718 209.6 595.252 209.6ZM594.032 203.96C594.978 203.96 595.818 203.753 596.552 203.34C597.298 202.913 597.885 202.313 598.312 201.54C598.752 200.767 598.972 199.853 598.972 198.8C598.972 197.733 598.758 196.82 598.332 196.06C597.905 195.287 597.318 194.693 596.572 194.28C595.825 193.853 594.978 193.64 594.032 193.64C593.085 193.64 592.238 193.853 591.492 194.28C590.758 194.693 590.178 195.287 589.752 196.06C589.325 196.82 589.112 197.733 589.112 198.8C589.112 199.853 589.325 200.767 589.752 201.54C590.178 202.313 590.765 202.913 591.512 203.34C592.258 203.753 593.098 203.96 594.032 203.96ZM612.057 217.94C611.124 217.94 610.21 217.847 609.317 217.66C608.424 217.473 607.604 217.173 606.857 216.76L608.237 211.28C608.677 211.507 609.157 211.687 609.677 211.82C610.197 211.953 610.684 212.02 611.137 212.02C611.87 212.02 612.49 211.867 612.997 211.56C613.517 211.253 613.89 210.747 614.117 210.04L614.417 209.08L606.497 188.6H613.617L618.137 202.58L622.517 188.6H629.457L620.997 211.02C620.304 212.753 619.497 214.12 618.577 215.12C617.67 216.133 616.664 216.853 615.557 217.28C614.45 217.72 613.284 217.94 612.057 217.94Z" fill="#025949"/>
<path d="M656.26 228.26L652.12 218.9C666.88 212.78 674.98 203.6 674.98 190.1L671.56 174.8L681.28 188.48C678.76 191.72 675.16 192.62 671.74 192.62C664.36 192.62 658.24 188.3 658.24 179.66C658.24 171.2 664.72 166.7 671.92 166.7C682 166.7 687.4 174.98 687.4 187.58C687.4 207.02 675.16 221.78 656.26 228.26Z" fill="#F25C78"/>
<path d="M695.26 228.26L691.12 218.9C705.88 212.78 713.98 203.6 713.98 190.1L710.56 174.8L720.28 188.48C717.76 191.72 714.16 192.62 710.74 192.62C703.36 192.62 697.24 188.3 697.24 179.66C697.24 171.2 703.72 166.7 710.92 166.7C721 166.7 726.4 174.98 726.4 187.58C726.4 207.02 714.16 221.78 695.26 228.26Z" fill="#F25C78"/>
<path d="M190.74 162.74L194.88 172.1C180.12 178.22 172.02 187.4 172.02 200.9L175.44 216.2L165.72 202.52C168.24 199.28 171.84 198.38 175.26 198.38C182.64 198.38 188.76 202.7 188.76 211.34C188.76 219.8 182.28 224.3 175.08 224.3C165 224.3 159.6 216.02 159.6 203.42C159.6 183.98 171.84 169.22 190.74 162.74Z" fill="#F25C78"/>
<path d="M151.74 162.74L155.88 172.1C141.12 178.22 133.02 187.4 133.02 200.9L136.44 216.2L126.72 202.52C129.24 199.28 132.84 198.38 136.26 198.38C143.64 198.38 149.76 202.7 149.76 211.34C149.76 219.8 143.28 224.3 136.08 224.3C126 224.3 120.6 216.02 120.6 203.42C120.6 183.98 132.84 169.22 151.74 162.74Z" fill="#F25C78"/>
</svg>
