<svg width="492" height="74" viewBox="0 0 492 74" fill="none" xmlns="http://www.w3.org/2000/svg">
<path d="M0.84 72.12C0.946667 71.7467 1.05333 71.3733 1.16 71C1.32 70.68 1.42667 70.3333 1.48 69.96C1.58667 69.5867 1.58667 69.2667 1.48 69C1.42667 68.7333 1.42667 68.4133 1.48 68.04C1.58667 67.6133 1.66667 67.1867 1.72 66.76C1.77333 66.3333 1.58667 65.9333 1.16 65.56C1.10667 65.5067 1.16 65.3467 1.32 65.08C1.48 64.8133 1.61333 64.5733 1.72 64.36C1.13333 63.6133 0.866667 62.84 0.92 62.04C0.973333 61.24 1.05333 60.44 1.16 59.64C1.26667 59 1.42667 58.4133 1.64 57.88C1.85333 57.2933 2.04 56.7333 2.2 56.2C2.25333 56.0933 2.28 56.0133 2.28 55.96C2.28 55.9067 2.28 55.88 2.28 55.88C1.58667 55.08 1.34667 54.28 1.56 53.48C1.77333 52.6267 1.88 51.8267 1.88 51.08C1.93333 48.52 1.96 45.9867 1.96 43.48C1.96 40.92 1.98667 38.36 2.04 35.8C2.14667 33.6133 2.25333 31.4267 2.36 29.24C2.52 27.0533 2.65333 24.8933 2.76 22.76C2.81333 20.6267 2.84 18.52 2.84 16.44C2.84 14.36 2.86667 12.28 2.92 10.2C3.02667 8.97333 3.08 7.77333 3.08 6.6C3.08 5.37333 3.10667 4.12 3.16 2.84C3.16 2.68 3.18667 2.52 3.24 2.36C3.29333 2.14666 3.34667 2.01333 3.4 1.96C5.26667 1.58666 7.13333 1.45333 9 1.56C10.92 1.66666 12.84 1.74666 14.76 1.8C16.68 1.85333 18.6 1.64 20.52 1.16C20.7867 1.32 21.0267 1.56 21.24 1.88C21.4533 2.14667 21.56 2.49333 21.56 2.92C21.4533 5.05333 21.3467 7.21333 21.24 9.4C21.1333 11.5867 21.0267 13.7733 20.92 15.96C20.92 16.6533 20.9467 17.32 21 17.96C21.0533 18.5467 21.08 19.1867 21.08 19.88C21.0267 20.4667 21.0267 21.0533 21.08 21.64C21.1333 22.2267 20.92 22.8133 20.44 23.4C20.3333 23.6667 20.3333 23.8533 20.44 23.96C21.0267 24.8133 21.16 25.5867 20.84 26.28C20.52 26.9733 20.2267 27.7467 19.96 28.6C20.6 29.0267 20.9467 29.5867 21 30.28C21.0533 30.92 21.0267 31.5867 20.92 32.28C20.3867 36.0133 20.2267 39.7733 20.44 43.56C20.44 44.5733 20.3867 45.5867 20.28 46.6C20.1733 47.56 20.0667 48.5467 19.96 49.56V53.72C19.9067 54.5733 19.88 55.4267 19.88 56.28C19.88 57.1333 19.8533 58.0133 19.8 58.92C19.7467 60.8933 19.6667 62.92 19.56 65C19.5067 67.08 19.4267 69.16 19.32 71.24C19.2667 72.5733 18.6 73.24 17.32 73.24C16.5733 73.24 15.8 73.24 15 73.24C14.2 73.2933 13.48 73.0533 12.84 72.52C12.7333 72.4133 12.6 72.3333 12.44 72.28C12.3333 72.28 12.2267 72.28 12.12 72.28C11.64 72.7067 11.16 72.8133 10.68 72.6C10.2533 72.3867 9.82667 72.2 9.4 72.04C9.18667 72.2 8.97333 72.3867 8.76 72.6C8.54667 72.8133 8.30667 73 8.04 73.16C7.82667 73.16 7.69333 73.1333 7.64 73.08C7.26667 72.6 6.81333 72.36 6.28 72.36C5.74667 72.36 5.26667 72.4667 4.84 72.68C3.72 73.3733 2.76 73.32 1.96 72.52C1.85333 72.4133 1.69333 72.3333 1.48 72.28C1.32 72.28 1.10667 72.2267 0.84 72.12ZM20.68 71.4C20.68 69.1067 20.68 66.84 20.68 64.6C20.68 62.3067 20.8933 60.0133 21.32 57.72C21.4267 56.9733 21.4533 56.2 21.4 55.4C21.3467 54.5467 21.32 53.6933 21.32 52.84C21.3733 52.36 21.4 51.88 21.4 51.4C21.4533 50.92 21.5067 50.36 21.56 49.72C23.2133 49.6667 24.84 49.64 26.44 49.64C28.0933 49.5867 29.7467 49.6933 31.4 49.96C31.4 51.24 31.4 52.52 31.4 53.8C31.4533 55.08 31.4533 56.36 31.4 57.64C31.2933 59.8267 31.16 62.04 31 64.28C30.84 66.4667 30.7067 68.6533 30.6 70.84C30.5467 71.8533 30.3867 72.4933 30.12 72.76C29.8533 73.08 29.2133 73.24 28.2 73.24H22.52C21.7733 73.24 21.2667 73.1067 21 72.84C20.7867 72.6267 20.68 72.1467 20.68 71.4ZM64.3156 67.24C58.6623 65.32 53.6756 62.12 49.3556 57.64C47.969 56.0933 46.8756 54.4133 46.0756 52.6C45.329 50.7867 44.5023 49 43.5956 47.24C43.3823 46.8667 43.2756 46.44 43.2756 45.96C43.329 45.48 43.329 45.0267 43.2756 44.6C43.2756 42.2533 43.2756 39.9067 43.2756 37.56C43.2756 35.16 43.3023 32.8133 43.3556 30.52C43.3556 29.08 43.6223 27.6933 44.1556 26.36C46.6623 20.6533 50.1023 16.1733 54.4756 12.92C58.849 9.61333 63.969 7.24 69.8356 5.8C70.7423 5.58666 71.7023 5.53333 72.7156 5.64C73.729 5.74666 74.7956 5.8 75.9156 5.8C75.8623 7.88 75.7823 9.88 75.6756 11.8C75.569 13.6667 75.4623 15.5333 75.3556 17.4C75.3023 19.0533 75.249 20.7067 75.1956 22.36C75.1423 24.0133 75.0623 25.6933 74.9556 27.4C74.9023 28.4133 74.769 29.4267 74.5556 30.44C74.3956 31.4 74.3423 32.3867 74.3956 33.4C74.5023 36.3867 74.6356 39.4267 74.7956 42.52C75.009 45.56 75.1956 48.6267 75.3556 51.72C75.3556 51.9333 75.3023 52.1467 75.1956 52.36C75.1423 52.52 75.1156 52.7067 75.1156 52.92C75.0623 54.3067 74.9023 55.6933 74.6356 57.08C74.4223 58.4133 74.6623 59.8 75.3556 61.24C75.7823 62.0933 75.9156 63.08 75.7556 64.2C75.649 65.32 75.5423 66.3867 75.4356 67.4C75.3823 68.0933 75.1156 68.52 74.6356 68.68C74.209 68.8933 73.729 68.9467 73.1956 68.84C71.7023 68.6267 70.1823 68.4133 68.6356 68.2C67.1423 67.9867 65.7023 67.6667 64.3156 67.24ZM110.556 36.92C110.556 37.6133 110.556 38.3333 110.556 39.08C110.556 39.8267 110.609 40.5733 110.716 41.32C111.142 44.6267 110.742 47.6667 109.516 50.44C108.289 53.2133 106.742 55.9067 104.876 58.52C102.636 61.4533 99.9956 63.8267 96.9556 65.64C93.969 67.4533 90.7156 68.8133 87.1956 69.72C86.0223 70.04 84.7956 70.12 83.5156 69.96C82.2356 69.8533 80.7956 69.8 79.1956 69.8C78.9823 59.4 78.7156 49.0267 78.3956 38.68C78.0756 28.3333 77.7556 17.9333 77.4356 7.48C77.969 7.32 78.449 7.16 78.8756 7C79.3023 6.78666 79.729 6.73333 80.1556 6.84C83.3023 6.89333 86.3423 7.37333 89.2756 8.28C92.209 9.13333 95.009 10.44 97.6756 12.2C101.302 14.6 104.076 17.5067 105.996 20.92C107.916 24.3333 109.409 28.0133 110.476 31.96C110.689 32.7067 110.742 33.5333 110.636 34.44C110.582 35.2933 110.556 36.12 110.556 36.92ZM154.75 19.8C154.697 21.5067 154.59 23.1867 154.43 24.84C154.27 26.4933 154.137 28.1733 154.03 29.88C153.977 31.3733 153.95 32.8667 153.95 34.36C153.95 35.8 153.95 37.2933 153.95 38.84C154.003 40.44 154.057 42.04 154.11 43.64C154.217 45.1867 154.297 46.76 154.35 48.36C154.457 49.8533 154.483 51.3733 154.43 52.92C154.43 54.4133 154.27 55.9067 153.95 57.4C153.897 57.6667 153.923 57.96 154.03 58.28C154.19 58.5467 154.297 58.84 154.35 59.16C154.457 59.5333 154.563 59.9067 154.67 60.28C154.83 60.6 154.937 60.92 154.99 61.24C155.043 62.1467 154.963 63.0533 154.75 63.96C154.59 64.8133 154.617 65.6933 154.83 66.6C154.937 67.08 154.83 67.4267 154.51 67.64C154.19 67.9067 153.763 68.0667 153.23 68.12C152.003 68.1733 150.803 68.0667 149.63 67.8C148.51 67.5867 147.337 67.32 146.11 67C144.083 66.4133 142.137 65.6133 140.27 64.6C138.457 63.5867 136.617 62.52 134.75 61.4C131.817 59.48 129.47 57.1333 127.71 54.36C126.003 51.5333 124.59 48.4667 123.47 45.16C123.417 44.8933 123.363 44.6 123.31 44.28C123.31 43.96 123.31 43.6667 123.31 43.4C123.31 41.7467 123.337 40.0933 123.39 38.44C123.443 36.7867 123.39 35.1333 123.23 33.48C123.07 30.8667 123.417 28.4667 124.27 26.28C125.177 24.0933 126.297 21.9867 127.63 19.96C129.923 16.6533 132.617 13.88 135.71 11.64C138.803 9.4 142.27 7.66666 146.11 6.44C146.537 6.33333 146.99 6.17333 147.47 5.96C147.95 5.69333 148.403 5.56 148.83 5.56C149.897 5.45333 150.963 5.4 152.03 5.4C153.097 5.4 154.137 5.4 155.15 5.4C155.15 6.2 155.177 6.92 155.23 7.56C155.283 8.2 155.257 8.81333 155.15 9.4C155.097 11.16 155.043 12.92 154.99 14.68C154.937 16.3867 154.857 18.0933 154.75 19.8ZM156.43 5.64H164.43C164.27 7.13333 164.217 8.6 164.27 10.04C164.377 11.4267 164.297 12.84 164.03 14.28C163.763 15.56 163.603 16.8667 163.55 18.2C163.55 19.5333 163.523 20.8667 163.47 22.2C163.417 22.7333 163.363 23.24 163.31 23.72C163.31 24.2 163.283 24.7067 163.23 25.24C163.177 25.7733 163.017 26.2 162.75 26.52C162.537 26.84 162.137 26.9733 161.55 26.92C160.75 26.8667 159.95 26.8133 159.15 26.76C158.403 26.7067 157.657 26.5733 156.91 26.36C155.897 26.2533 155.39 25.6667 155.39 24.6C155.497 21.4533 155.63 18.3333 155.79 15.24C155.95 12.1467 156.083 9.05333 156.19 5.96C156.19 5.96 156.19 5.93333 156.19 5.88C156.243 5.82666 156.323 5.74666 156.43 5.64ZM163.47 53C163.47 54.0667 163.443 55.1067 163.39 56.12C163.337 57.1333 163.31 58.1733 163.31 59.24C163.31 60.2533 163.283 61.2933 163.23 62.36C163.177 63.3733 163.257 64.4133 163.47 65.48C163.577 66.1733 163.497 66.6267 163.23 66.84C163.017 67.0533 162.563 67.2133 161.87 67.32C161.177 67.4267 160.483 67.5333 159.79 67.64C159.15 67.8 158.483 67.9333 157.79 68.04C156.35 68.2 155.55 67.6133 155.39 66.28C155.39 65.64 155.363 65 155.31 64.36C155.31 63.6667 155.337 63.0267 155.39 62.44C155.39 60.5733 155.417 58.7333 155.47 56.92C155.523 55.0533 155.577 53.1867 155.63 51.32C155.63 50.4133 155.763 49.8267 156.03 49.56C156.297 49.2933 156.857 49.16 157.71 49.16C158.563 49.1067 159.417 49.1067 160.27 49.16C161.177 49.16 162.19 49.16 163.31 49.16C163.31 49.8533 163.337 50.52 163.39 51.16C163.443 51.8 163.47 52.4133 163.47 53ZM204.752 72.28C204.272 72.28 203.952 72.1733 203.792 71.96C203.632 71.7467 203.499 71.4 203.392 70.92C203.392 68.7867 203.339 66.6267 203.232 64.44C203.179 62.2533 203.099 60.12 202.992 58.04V48.44H198.272C198.219 49.1333 198.192 49.8 198.192 50.44C198.192 51.08 198.192 51.72 198.192 52.36C198.139 53.64 198.085 54.9467 198.032 56.28C198.032 57.56 197.979 58.8667 197.872 60.2C197.819 61.8 197.765 63.4267 197.712 65.08C197.659 66.7333 197.579 68.4133 197.472 70.12C197.472 70.76 197.392 71.1867 197.232 71.4C197.072 71.6133 196.619 71.72 195.872 71.72C195.285 71.7733 194.672 71.8533 194.032 71.96C193.445 72.0667 192.885 71.88 192.352 71.4C192.299 71.3467 192.165 71.3733 191.952 71.48C191.792 71.5867 191.659 71.6133 191.552 71.56C191.285 71.56 190.992 71.5333 190.672 71.48C190.405 71.4267 190.112 71.3733 189.792 71.32C188.779 71.6933 187.712 71.8267 186.592 71.72C185.525 71.6667 184.379 71.6133 183.152 71.56V68.6C183.259 66.9467 183.232 65.32 183.072 63.72C182.965 62.0667 183.179 60.4667 183.712 58.92C183.819 58.76 183.872 58.4933 183.872 58.12C183.872 56.9467 183.845 55.8267 183.792 54.76C183.739 53.64 183.712 52.52 183.712 51.4C183.872 48.52 183.952 45.72 183.952 43C184.112 40.5467 184.219 38.12 184.272 35.72C184.325 33.32 184.352 30.8933 184.352 28.44C184.459 26.5733 184.512 24.7067 184.512 22.84C184.512 20.9733 184.512 19.1067 184.512 17.24C184.459 16.5467 184.379 15.8533 184.272 15.16C184.219 14.4667 184.245 13.7467 184.352 13C184.832 10.92 185.579 9.05333 186.592 7.39999C187.605 5.74666 188.992 4.33333 190.752 3.16C191.499 2.68 192.219 2.22666 192.912 1.8C193.659 1.32 194.459 0.973328 195.312 0.759995C195.419 0.759995 195.552 0.706662 195.712 0.599997C195.872 0.493331 196.059 0.439999 196.272 0.439999C197.765 0.439999 199.259 0.413331 200.752 0.359995C202.299 0.306662 203.819 0.386663 205.312 0.599997C206.059 0.653329 206.805 0.919996 207.552 1.4C208.352 1.82666 209.045 2.28 209.632 2.76C211.179 3.93333 212.432 5.32 213.392 6.92C214.405 8.52 215.259 10.2 215.952 11.96C215.739 13.08 215.872 14.1733 216.352 15.24C216.832 16.3067 217.205 17.3733 217.472 18.44V72.36H208.672C207.979 72.36 207.312 72.3333 206.672 72.28C206.085 72.28 205.445 72.28 204.752 72.28ZM202.992 33.32C202.885 31.7733 202.912 30.3067 203.072 28.92C203.232 27.48 203.259 26.04 203.152 24.6C203.045 23.2133 203.045 21.8267 203.152 20.44C203.259 19 203.179 17.56 202.912 16.12C202.272 16.1733 201.632 16.2267 200.992 16.28C200.405 16.28 199.819 16.3067 199.232 16.36C199.179 19.1867 199.099 22.0133 198.992 24.84C198.885 27.6667 198.779 30.4933 198.672 33.32H202.992ZM255.349 68.76C255.349 68.9733 255.322 69.1867 255.269 69.4C255.269 69.6133 255.269 69.8533 255.269 70.12H241.829C241.775 68.6267 241.695 67.16 241.589 65.72C241.535 64.28 241.589 62.8667 241.749 61.48C241.909 60.0933 241.989 58.68 241.989 57.24C241.989 55.8 242.015 54.4133 242.069 53.08C242.122 51.5867 242.175 50.12 242.229 48.68C242.282 47.1867 242.335 45.72 242.389 44.28C242.442 42.84 242.469 41.3733 242.469 39.88C242.469 38.3867 242.469 36.92 242.469 35.48C242.522 34.04 242.575 32.5733 242.629 31.08C242.682 29.5867 242.735 28.12 242.789 26.68C242.842 25.1867 242.895 23.72 242.949 22.28C243.002 20.7867 243.055 19.2133 243.109 17.56H251.429V17.32H235.029V5.16C235.455 5.10666 235.855 5.08 236.229 5.08C236.655 5.08 237.055 5.08 237.429 5.08C240.469 5.02666 243.509 5 246.549 5C249.589 4.94666 252.629 4.92 255.669 4.92C257.375 4.92 259.055 4.94666 260.709 5C262.415 5.05333 264.149 5.10666 265.909 5.16V16.36C264.362 16.52 262.789 16.68 261.189 16.84C259.642 17 258.122 17.16 256.629 17.32C256.629 18.9733 256.629 20.6267 256.629 22.28C256.682 23.88 256.682 25.48 256.629 27.08C256.575 27.9867 256.575 28.8933 256.629 29.8C256.682 30.3333 256.682 30.8667 256.629 31.4C256.575 31.88 256.495 32.3333 256.389 32.76C256.335 33.56 256.202 34.36 255.989 35.16C255.829 35.96 255.802 36.7333 255.909 37.48C256.229 39.1867 256.309 40.92 256.149 42.68C256.042 44.3867 256.015 46.12 256.069 47.88C256.175 49.0533 256.149 50.2533 255.989 51.48C255.882 52.7067 255.775 53.9067 255.669 55.08C255.615 57.4267 255.562 59.72 255.509 61.96C255.509 64.2 255.455 66.4667 255.349 68.76ZM302.308 19.96V36.12C302.308 38.7867 302.308 41.5067 302.308 44.28C302.308 47 302.254 49.6933 302.148 52.36C302.148 55.0267 302.174 57.72 302.228 60.44C302.281 63.1067 302.094 65.7733 301.668 68.44H284.868C284.814 68.1733 284.761 67.88 284.708 67.56C284.708 67.2933 284.708 67.0533 284.708 66.84V40.44C284.708 40.0667 284.761 39.6933 284.868 39.32C285.028 38.9467 285.134 38.5733 285.188 38.2C285.348 37.56 285.428 36.92 285.428 36.28C285.481 33.1867 285.508 30.12 285.508 27.08C285.508 24.04 285.561 20.9733 285.668 17.88C285.668 15.5333 285.721 13.1867 285.828 10.84C285.988 8.49333 286.094 6.14666 286.148 3.8H302.148C302.254 6.52 302.281 9.24 302.228 11.96C302.228 14.6267 302.254 17.2933 302.308 19.96ZM339.159 67.24C333.506 65.32 328.519 62.12 324.199 57.64C322.813 56.0933 321.719 54.4133 320.919 52.6C320.173 50.7867 319.346 49 318.439 47.24C318.226 46.8667 318.119 46.44 318.119 45.96C318.173 45.48 318.173 45.0267 318.119 44.6C318.119 42.2533 318.119 39.9067 318.119 37.56C318.119 35.16 318.146 32.8133 318.199 30.52C318.199 29.08 318.466 27.6933 318.999 26.36C321.506 20.6533 324.946 16.1733 329.319 12.92C333.693 9.61333 338.813 7.24 344.679 5.8C345.586 5.58666 346.546 5.53333 347.559 5.64C348.573 5.74666 349.639 5.8 350.759 5.8C350.706 7.88 350.626 9.88 350.519 11.8C350.413 13.6667 350.306 15.5333 350.199 17.4C350.146 19.0533 350.093 20.7067 350.039 22.36C349.986 24.0133 349.906 25.6933 349.799 27.4C349.746 28.4133 349.613 29.4267 349.399 30.44C349.239 31.4 349.186 32.3867 349.239 33.4C349.346 36.3867 349.479 39.4267 349.639 42.52C349.853 45.56 350.039 48.6267 350.199 51.72C350.199 51.9333 350.146 52.1467 350.039 52.36C349.986 52.52 349.959 52.7067 349.959 52.92C349.906 54.3067 349.746 55.6933 349.479 57.08C349.266 58.4133 349.506 59.8 350.199 61.24C350.626 62.0933 350.759 63.08 350.599 64.2C350.493 65.32 350.386 66.3867 350.279 67.4C350.226 68.0933 349.959 68.52 349.479 68.68C349.053 68.8933 348.573 68.9467 348.039 68.84C346.546 68.6267 345.026 68.4133 343.479 68.2C341.986 67.9867 340.546 67.6667 339.159 67.24ZM385.399 36.92C385.399 37.6133 385.399 38.3333 385.399 39.08C385.399 39.8267 385.453 40.5733 385.559 41.32C385.986 44.6267 385.586 47.6667 384.359 50.44C383.133 53.2133 381.586 55.9067 379.719 58.52C377.479 61.4533 374.839 63.8267 371.799 65.64C368.813 67.4533 365.559 68.8133 362.039 69.72C360.866 70.04 359.639 70.12 358.359 69.96C357.079 69.8533 355.639 69.8 354.039 69.8C353.826 59.4 353.559 49.0267 353.239 38.68C352.919 28.3333 352.599 17.9333 352.279 7.48C352.813 7.32 353.293 7.16 353.719 7C354.146 6.78666 354.573 6.73333 354.999 6.84C358.146 6.89333 361.186 7.37333 364.119 8.28C367.053 9.13333 369.853 10.44 372.519 12.2C376.146 14.6 378.919 17.5067 380.839 20.92C382.759 24.3333 384.253 28.0133 385.319 31.96C385.533 32.7067 385.586 33.5333 385.479 34.44C385.426 35.2933 385.399 36.12 385.399 36.92ZM431.674 69.08C430.34 68.9733 428.98 69 427.594 69.16C426.26 69.3733 424.954 69.4 423.674 69.24C422.927 69.24 422.42 68.8933 422.154 68.2C420.927 65.2133 419.647 62.2533 418.314 59.32C417.034 56.3867 415.7 53.4533 414.314 50.52C414.207 53.6133 414.074 56.7067 413.914 59.8C413.807 62.84 413.7 65.9333 413.594 69.08C413.22 69.08 412.874 69.1067 412.554 69.16C412.287 69.2133 412.02 69.24 411.754 69.24H400.394C399.434 69.24 398.847 69.1333 398.634 68.92C398.474 68.7067 398.394 68.0933 398.394 67.08V5.8H413.594C415.034 9.21333 416.474 12.68 417.914 16.2C419.354 19.6667 420.82 23.16 422.314 26.68H422.634V8.04C422.634 6.92 422.74 6.28 422.954 6.12C423.167 5.90666 423.834 5.8 424.954 5.8C429.007 5.8 433.034 5.72 437.034 5.56H439.354V68.68C439.14 68.68 438.874 68.68 438.554 68.68C438.287 68.7333 437.994 68.76 437.674 68.76C436.714 68.8133 435.7 68.8933 434.634 69C433.62 69.16 432.634 69.1867 431.674 69.08ZM456.688 28.92C455.995 27.6933 455.435 26.4667 455.008 25.24C454.635 23.96 454.528 22.6267 454.688 21.24C454.848 20.2267 454.848 19.2933 454.688 18.44C454.475 16.0933 454.848 14.04 455.808 12.28C456.821 10.4667 458.021 8.78666 459.408 7.24C460.795 5.69333 462.395 4.49333 464.208 3.64C466.021 2.73333 467.861 1.90667 469.728 1.16C470.368 0.946665 471.061 0.893331 471.808 0.999996C472.608 1.10666 473.355 1.16 474.048 1.16C473.941 4.2 473.781 7.16 473.568 10.04C473.408 12.92 473.355 15.8267 473.408 18.76C473.461 21.5333 473.488 24.36 473.488 27.24C473.541 30.0667 473.701 32.8933 473.968 35.72C474.395 35.88 474.821 35.96 475.248 35.96C478.875 36.3333 481.915 37.48 484.368 39.4C486.821 41.2667 488.741 43.8533 490.128 47.16C490.555 48.0133 490.875 48.92 491.088 49.88C491.301 50.7867 491.355 51.7467 491.248 52.76C491.248 53.4533 491.221 54.1467 491.168 54.84C491.168 55.48 491.195 56.0933 491.248 56.68C491.621 59.0267 491.248 61.0533 490.128 62.76C489.061 64.4667 487.835 66.0667 486.448 67.56C485.061 69.1067 483.408 70.3067 481.488 71.16C479.621 72.0133 477.595 72.4933 475.408 72.6C475.035 72.6 474.688 72.5733 474.368 72.52C474.048 72.52 473.755 72.5733 473.488 72.68C472.688 73.0533 471.941 72.9467 471.248 72.36C471.035 72.1467 470.741 72.0133 470.368 71.96C470.048 71.96 469.755 71.9067 469.488 71.8C466.288 71 463.888 69.24 462.288 66.52C461.808 65.56 461.541 64.4133 461.488 63.08C461.435 61.7467 461.568 60.44 461.888 59.16C462.261 57.88 462.768 56.84 463.408 56.04C464.101 55.24 464.795 54.4667 465.488 53.72C466.181 52.9733 467.061 52.4667 468.128 52.2C468.715 52.04 469.275 51.9067 469.808 51.8C470.395 51.6933 470.981 51.6133 471.568 51.56C471.835 52.68 471.941 53.7467 471.888 54.76C471.835 55.7733 471.835 56.7867 471.888 57.8C471.995 58.1733 472.075 58.52 472.128 58.84C472.181 59.16 472.235 59.48 472.288 59.8C472.288 57.9867 472.288 56.1733 472.288 54.36C472.288 52.4933 472.235 50.6533 472.128 48.84C472.128 47.1333 472.075 45.4533 471.968 43.8C471.915 42.0933 471.861 40.3333 471.808 38.52C471.221 38.36 470.635 38.2267 470.048 38.12C469.515 37.96 468.981 37.8 468.448 37.64C465.995 36.8933 463.728 35.8267 461.648 34.44C459.621 33.0533 457.968 31.2133 456.688 28.92ZM474.848 1.16C476.928 1.32 478.635 1.88 479.968 2.84C481.835 4.06666 483.355 5.53333 484.528 7.24C485.755 8.89333 486.288 10.8933 486.128 13.24C485.861 17.6667 483.701 20.8133 479.648 22.68C478.795 23 477.915 23.2933 477.008 23.56C476.101 23.7733 475.115 23.5867 474.048 23C474.048 19.4267 474.075 15.8267 474.128 12.2C474.181 8.57333 474.421 4.89333 474.848 1.16ZM472.368 65.16H472.848C472.795 64.4667 472.715 63.8 472.608 63.16C472.555 62.52 472.475 61.88 472.368 61.24V65.16Z" fill="#BBD94E"/>
</svg>
