<svg width="764" height="392" viewBox="0 0 764 392" fill="none" xmlns="http://www.w3.org/2000/svg">
<path d="M221.3 211V183H232.52C234.613 183 236.467 183.367 238.08 184.1C239.693 184.82 240.96 185.873 241.88 187.26C242.813 188.647 243.28 190.313 243.28 192.26C243.28 194.233 242.853 195.907 242 197.28C241.147 198.653 239.907 199.7 238.28 200.42C236.653 201.14 234.68 201.5 232.36 201.5H227.94V211H221.3ZM227.94 195.94H232.2C233.6 195.94 234.687 195.667 235.46 195.12C236.247 194.56 236.64 193.64 236.64 192.36C236.64 191.08 236.233 190.153 235.42 189.58C234.62 188.993 233.56 188.7 232.24 188.7H227.94V195.94ZM256.241 211.6C254.015 211.6 252.048 211.113 250.341 210.14C248.635 209.153 247.295 207.84 246.321 206.2C245.361 204.56 244.881 202.76 244.881 200.8C244.881 199.373 245.155 198.013 245.701 196.72C246.261 195.413 247.048 194.26 248.061 193.26C249.075 192.247 250.275 191.453 251.661 190.88C253.048 190.293 254.575 190 256.241 190C258.468 190 260.435 190.493 262.141 191.48C263.848 192.453 265.181 193.76 266.141 195.4C267.101 197.04 267.581 198.84 267.581 200.8C267.581 202.227 267.308 203.593 266.761 204.9C266.215 206.193 265.435 207.34 264.421 208.34C263.408 209.34 262.208 210.133 260.821 210.72C259.435 211.307 257.908 211.6 256.241 211.6ZM256.241 205.96C257.175 205.96 258.015 205.753 258.761 205.34C259.508 204.913 260.095 204.313 260.521 203.54C260.948 202.767 261.161 201.853 261.161 200.8C261.161 199.733 260.948 198.82 260.521 198.06C260.108 197.287 259.528 196.693 258.781 196.28C258.035 195.853 257.188 195.64 256.241 195.64C255.295 195.64 254.448 195.853 253.701 196.28C252.955 196.693 252.368 197.287 251.941 198.06C251.515 198.82 251.301 199.733 251.301 200.8C251.301 201.853 251.515 202.767 251.941 203.54C252.381 204.313 252.975 204.913 253.721 205.34C254.468 205.753 255.308 205.96 256.241 205.96ZM271.423 219.4V190.6H277.083V192.94C277.843 192.047 278.81 191.333 279.983 190.8C281.17 190.267 282.543 190 284.103 190C286.05 190 287.783 190.447 289.303 191.34C290.836 192.233 292.043 193.493 292.923 195.12C293.803 196.747 294.243 198.64 294.243 200.8C294.243 202.32 293.99 203.74 293.483 205.06C292.99 206.367 292.283 207.513 291.363 208.5C290.443 209.473 289.356 210.233 288.103 210.78C286.863 211.327 285.49 211.6 283.983 211.6C282.783 211.6 281.676 211.407 280.663 211.02C279.663 210.633 278.763 210.087 277.963 209.38V219.4H271.423ZM282.883 205.96C283.83 205.96 284.676 205.753 285.423 205.34C286.17 204.913 286.756 204.313 287.183 203.54C287.61 202.767 287.823 201.853 287.823 200.8C287.823 199.733 287.603 198.82 287.163 198.06C286.736 197.287 286.15 196.693 285.403 196.28C284.67 195.853 283.83 195.64 282.883 195.64C281.95 195.64 281.11 195.853 280.363 196.28C279.616 196.693 279.03 197.287 278.603 198.06C278.176 198.82 277.963 199.733 277.963 200.8C277.963 201.853 278.176 202.767 278.603 203.54C279.03 204.313 279.61 204.913 280.343 205.34C281.09 205.753 281.936 205.96 282.883 205.96ZM306.064 211.6C304.21 211.6 302.677 211.24 301.464 210.52C300.25 209.787 299.344 208.78 298.744 207.5C298.157 206.207 297.864 204.707 297.864 203V190.6H304.424V202.02C304.424 203.14 304.717 204.027 305.304 204.68C305.904 205.333 306.77 205.66 307.904 205.66C308.637 205.66 309.277 205.5 309.824 205.18C310.384 204.847 310.81 204.393 311.104 203.82C311.41 203.247 311.564 202.58 311.564 201.82V190.6H318.124V211H312.464V208.84C311.81 209.573 310.984 210.22 309.984 210.78C308.984 211.327 307.677 211.6 306.064 211.6ZM323.572 211V182.2H330.132V211H323.572ZM344.063 211.6C342.143 211.6 340.423 211.153 338.903 210.26C337.383 209.353 336.183 208.093 335.303 206.48C334.423 204.853 333.983 202.96 333.983 200.8C333.983 199.173 334.236 197.7 334.743 196.38C335.249 195.047 335.956 193.907 336.863 192.96C337.769 192.013 338.836 191.287 340.063 190.78C341.289 190.26 342.623 190 344.063 190C345.956 190 347.569 190.413 348.903 191.24C350.236 192.053 351.189 193.14 351.763 194.5L350.863 195.92V190.6H356.503V211H350.863V205.68L351.763 207.08C351.189 208.44 350.236 209.533 348.903 210.36C347.569 211.187 345.956 211.6 344.063 211.6ZM345.183 205.96C346.089 205.96 346.903 205.753 347.623 205.34C348.356 204.913 348.936 204.313 349.363 203.54C349.789 202.767 350.003 201.853 350.003 200.8C350.003 199.733 349.789 198.82 349.363 198.06C348.936 197.287 348.356 196.693 347.623 196.28C346.903 195.853 346.089 195.64 345.183 195.64C344.276 195.64 343.463 195.853 342.743 196.28C342.023 196.693 341.449 197.287 341.023 198.06C340.596 198.82 340.383 199.733 340.383 200.8C340.383 201.853 340.596 202.767 341.023 203.54C341.449 204.313 342.023 204.913 342.743 205.34C343.463 205.753 344.276 205.96 345.183 205.96ZM361.931 211V190.6H368.491V192.98C369.104 191.927 369.918 191.16 370.931 190.68C371.944 190.2 373.044 189.96 374.231 189.96C374.684 189.96 375.091 189.987 375.451 190.04C375.811 190.093 376.164 190.153 376.511 190.22L375.731 196.96C375.278 196.8 374.798 196.673 374.291 196.58C373.784 196.473 373.278 196.42 372.771 196.42C371.531 196.42 370.504 196.78 369.691 197.5C368.891 198.207 368.491 199.247 368.491 200.62V211H361.931ZM402.424 211.6C399.531 211.6 396.977 211.007 394.764 209.82C392.551 208.633 390.824 206.953 389.584 204.78C388.344 202.607 387.724 200.04 387.724 197.08C387.724 194.92 388.084 192.947 388.804 191.16C389.537 189.36 390.564 187.807 391.884 186.5C393.217 185.193 394.784 184.187 396.584 183.48C398.397 182.76 400.377 182.4 402.524 182.4C404.857 182.4 406.817 182.693 408.404 183.28C409.991 183.867 411.424 184.7 412.704 185.78L409.384 191.24C408.611 190.44 407.677 189.847 406.584 189.46C405.491 189.06 404.284 188.86 402.964 188.86C401.657 188.86 400.491 189.053 399.464 189.44C398.451 189.813 397.584 190.353 396.864 191.06C396.157 191.767 395.617 192.62 395.244 193.62C394.871 194.62 394.684 195.74 394.684 196.98C394.684 198.687 395.017 200.147 395.684 201.36C396.364 202.573 397.331 203.507 398.584 204.16C399.837 204.8 401.337 205.12 403.084 205.12C404.337 205.12 405.577 204.933 406.804 204.56C408.044 204.173 409.217 203.553 410.324 202.7L413.364 208.28C412.071 209.28 410.524 210.087 408.724 210.7C406.924 211.3 404.824 211.6 402.424 211.6ZM416.814 211V182.2H423.374V195.16L422.014 193.54C422.894 192.46 423.94 191.6 425.154 190.96C426.367 190.32 427.707 190 429.174 190C431.08 190 432.667 190.38 433.934 191.14C435.214 191.9 436.167 192.893 436.794 194.12C437.42 195.347 437.734 196.667 437.734 198.08V211H431.174V199.92C431.174 198.747 430.834 197.793 430.154 197.06C429.474 196.327 428.52 195.953 427.294 195.94C426.467 195.927 425.76 196.093 425.174 196.44C424.6 196.773 424.154 197.26 423.834 197.9C423.527 198.527 423.374 199.273 423.374 200.14V211H416.814ZM452.726 211.6C450.499 211.6 448.532 211.113 446.826 210.14C445.119 209.153 443.779 207.84 442.806 206.2C441.846 204.56 441.366 202.76 441.366 200.8C441.366 199.373 441.639 198.013 442.186 196.72C442.746 195.413 443.532 194.26 444.546 193.26C445.559 192.247 446.759 191.453 448.146 190.88C449.532 190.293 451.059 190 452.726 190C454.952 190 456.919 190.493 458.626 191.48C460.332 192.453 461.666 193.76 462.626 195.4C463.586 197.04 464.066 198.84 464.066 200.8C464.066 202.227 463.792 203.593 463.246 204.9C462.699 206.193 461.919 207.34 460.906 208.34C459.892 209.34 458.692 210.133 457.306 210.72C455.919 211.307 454.392 211.6 452.726 211.6ZM452.726 205.96C453.659 205.96 454.499 205.753 455.246 205.34C455.992 204.913 456.579 204.313 457.006 203.54C457.432 202.767 457.646 201.853 457.646 200.8C457.646 199.733 457.432 198.82 457.006 198.06C456.592 197.287 456.012 196.693 455.266 196.28C454.519 195.853 453.672 195.64 452.726 195.64C451.779 195.64 450.932 195.853 450.186 196.28C449.439 196.693 448.852 197.287 448.426 198.06C447.999 198.82 447.786 199.733 447.786 200.8C447.786 201.853 447.999 202.767 448.426 203.54C448.866 204.313 449.459 204.913 450.206 205.34C450.952 205.753 451.792 205.96 452.726 205.96ZM467.908 211V190.6H474.468V211H467.908ZM471.188 187.58C470.134 187.58 469.214 187.253 468.428 186.6C467.654 185.933 467.268 185.04 467.268 183.92C467.268 182.8 467.654 181.913 468.428 181.26C469.214 180.607 470.134 180.28 471.188 180.28C472.254 180.28 473.174 180.607 473.948 181.26C474.721 181.913 475.108 182.8 475.108 183.92C475.108 185.04 474.721 185.933 473.948 186.6C473.174 187.253 472.254 187.58 471.188 187.58ZM489.619 211.6C487.459 211.6 485.525 211.133 483.819 210.2C482.125 209.253 480.785 207.967 479.799 206.34C478.812 204.7 478.319 202.853 478.319 200.8C478.319 199.253 478.605 197.827 479.179 196.52C479.765 195.213 480.585 194.073 481.639 193.1C482.692 192.113 483.919 191.353 485.319 190.82C486.719 190.273 488.239 190 489.879 190C491.425 190 492.859 190.213 494.179 190.64C495.499 191.053 496.685 191.68 497.739 192.52L494.859 197.38C494.205 196.78 493.485 196.34 492.699 196.06C491.925 195.78 491.112 195.64 490.259 195.64C489.139 195.64 488.172 195.84 487.359 196.24C486.545 196.64 485.919 197.227 485.479 198C485.052 198.773 484.839 199.7 484.839 200.78C484.839 202.407 485.319 203.68 486.279 204.6C487.252 205.507 488.585 205.96 490.279 205.96C491.239 205.96 492.139 205.787 492.979 205.44C493.832 205.08 494.612 204.56 495.319 203.88L497.979 208.84C496.832 209.693 495.519 210.367 494.039 210.86C492.572 211.353 491.099 211.6 489.619 211.6ZM510.653 211.6C508.413 211.6 506.447 211.153 504.753 210.26C503.06 209.353 501.74 208.093 500.793 206.48C499.847 204.853 499.373 202.953 499.373 200.78C499.373 199.207 499.647 197.76 500.193 196.44C500.753 195.12 501.527 193.98 502.513 193.02C503.513 192.06 504.687 191.32 506.033 190.8C507.393 190.267 508.887 190 510.513 190C512.3 190 513.893 190.32 515.293 190.96C516.693 191.587 517.847 192.467 518.753 193.6C519.673 194.72 520.307 196.047 520.653 197.58C521 199.1 521.013 200.753 520.693 202.54H505.373C505.387 203.34 505.627 204.04 506.093 204.64C506.56 205.24 507.2 205.713 508.013 206.06C508.827 206.393 509.773 206.56 510.853 206.56C512.053 206.56 513.193 206.407 514.273 206.1C515.353 205.78 516.387 205.293 517.373 204.64L519.433 209.08C518.807 209.56 517.993 209.993 516.993 210.38C516.007 210.753 514.953 211.047 513.833 211.26C512.727 211.487 511.667 211.6 510.653 211.6ZM505.773 198.12H514.453C514.427 197.093 514.047 196.273 513.313 195.66C512.58 195.047 511.587 194.74 510.333 194.74C509.067 194.74 508.013 195.047 507.173 195.66C506.347 196.273 505.88 197.093 505.773 198.12ZM532.403 211.56C530.51 211.56 528.777 211.327 527.203 210.86C525.643 210.393 524.297 209.733 523.163 208.88L525.203 204.38C526.31 205.087 527.497 205.647 528.763 206.06C530.03 206.46 531.23 206.66 532.363 206.66C533.403 206.66 534.197 206.52 534.743 206.24C535.29 205.947 535.563 205.527 535.563 204.98C535.563 204.5 535.31 204.147 534.803 203.92C534.31 203.693 533.337 203.447 531.883 203.18C529.137 202.713 527.123 201.947 525.843 200.88C524.577 199.8 523.943 198.327 523.943 196.46C523.943 195.127 524.31 193.96 525.043 192.96C525.777 191.96 526.79 191.187 528.083 190.64C529.39 190.08 530.89 189.8 532.583 189.8C534.237 189.8 535.797 190.02 537.263 190.46C538.743 190.9 540.01 191.513 541.063 192.3L539.083 196.8C538.537 196.387 537.903 196.02 537.183 195.7C536.477 195.38 535.743 195.133 534.983 194.96C534.223 194.787 533.483 194.7 532.763 194.7C531.87 194.7 531.143 194.84 530.583 195.12C530.037 195.387 529.763 195.76 529.763 196.24C529.763 196.733 530.003 197.1 530.483 197.34C530.963 197.58 531.923 197.853 533.363 198.16C536.27 198.747 538.33 199.54 539.543 200.54C540.757 201.527 541.363 202.913 541.363 204.7C541.363 206.087 540.983 207.293 540.223 208.32C539.477 209.347 538.43 210.147 537.083 210.72C535.75 211.28 534.19 211.56 532.403 211.56Z" fill="#025949"/>
<path d="M573.26 228.26L569.12 218.9C583.88 212.78 591.98 203.6 591.98 190.1L588.56 174.8L598.28 188.48C595.76 191.72 592.16 192.62 588.74 192.62C581.36 192.62 575.24 188.3 575.24 179.66C575.24 171.2 581.72 166.7 588.92 166.7C599 166.7 604.4 174.98 604.4 187.58C604.4 207.02 592.16 221.78 573.26 228.26Z" fill="#F25C78"/>
<path d="M612.26 228.26L608.12 218.9C622.88 212.78 630.98 203.6 630.98 190.1L627.56 174.8L637.28 188.48C634.76 191.72 631.16 192.62 627.74 192.62C620.36 192.62 614.24 188.3 614.24 179.66C614.24 171.2 620.72 166.7 627.92 166.7C638 166.7 643.4 174.98 643.4 187.58C643.4 207.02 631.16 221.78 612.26 228.26Z" fill="#F25C78"/>
<path d="M190.74 163.74L194.88 173.1C180.12 179.22 172.02 188.4 172.02 201.9L175.44 217.2L165.72 203.52C168.24 200.28 171.84 199.38 175.26 199.38C182.64 199.38 188.76 203.7 188.76 212.34C188.76 220.8 182.28 225.3 175.08 225.3C165 225.3 159.6 217.02 159.6 204.42C159.6 184.98 171.84 170.22 190.74 163.74Z" fill="#F25C78"/>
<path d="M151.74 163.74L155.88 173.1C141.12 179.22 133.02 188.4 133.02 201.9L136.44 217.2L126.72 203.52C129.24 200.28 132.84 199.38 136.26 199.38C143.64 199.38 149.76 203.7 149.76 212.34C149.76 220.8 143.28 225.3 136.08 225.3C126 225.3 120.6 217.02 120.6 204.42C120.6 184.98 132.84 170.22 151.74 163.74Z" fill="#F25C78"/>
</svg>
