<svg width="294" height="56" viewBox="0 0 294 56" fill="none" xmlns="http://www.w3.org/2000/svg">
<path d="M36.82 6.32C36.98 6.68 37.1 7.06 37.18 7.46C37.3 7.82 37.44 8.2 37.6 8.6C37.68 8.92 37.72 9.26 37.72 9.62C37.72 9.94 37.56 10.22 37.24 10.46C37.12 10.5 37.04 10.58 37 10.7C36.96 10.78 36.94 10.86 36.94 10.94C37.14 11.94 37.18 12.92 37.06 13.88C36.94 14.84 36.96 15.84 37.12 16.88C37.32 17.92 37.36 19.02 37.24 20.18C37.16 21.3 37.12 22.44 37.12 23.6C37.12 25.12 37.14 26.66 37.18 28.22C37.22 29.74 37.24 31.26 37.24 32.78C37.24 34.82 37.22 36.84 37.18 38.84C37.14 40.84 37.12 42.84 37.12 44.84C37.08 46.04 37.02 47.26 36.94 48.5C36.9 49.7 36.84 50.92 36.76 52.16C36.76 52.8 36.68 53.2 36.52 53.36C36.4 53.56 36 53.66 35.32 53.66C34.68 53.62 34.06 53.58 33.46 53.54C32.9 53.5 32.3 53.46 31.66 53.42C30.98 53.3 30.3 53.2 29.62 53.12C28.94 53.08 28.24 53.04 27.52 53C27.28 53 26.86 52.94 26.26 52.82V13.04C25.62 14.52 24.8 15.7 23.8 16.58C22.8 17.46 21.5 17.94 19.9 18.02C18.18 18.1 16.78 17.7 15.7 16.82C14.66 15.94 13.74 14.8 12.94 13.4C12.9 14.56 12.84 15.66 12.76 16.7C12.72 17.74 12.68 18.78 12.64 19.82C12.6 20.46 12.54 21.08 12.46 21.68C12.38 22.24 12.34 22.84 12.34 23.48C12.42 24 12.44 24.52 12.4 25.04C12.4 25.56 12.28 26.06 12.04 26.54C12.4 27.66 12.56 28.78 12.52 29.9C12.48 31.02 12.38 32.14 12.22 33.26C12.1 34.34 12.04 35.44 12.04 36.56C12.04 37.44 12.06 38.34 12.1 39.26C12.14 40.18 12.16 41.1 12.16 42.02C12.16 42.46 12.12 42.9 12.04 43.34C12 43.74 11.94 44.14 11.86 44.54C11.82 45.74 11.78 46.94 11.74 48.14C11.74 49.34 11.72 50.54 11.68 51.74C11.64 52.5 11.48 53 11.2 53.24C10.92 53.52 10.38 53.66 9.58 53.66C9.18 53.66 8.76 53.66 8.32 53.66C7.92 53.66 7.6 53.42 7.36 52.94C7.12 53.02 6.88 53.12 6.64 53.24C6.44 53.4 6.22 53.52 5.98 53.6C5.9 53.32 5.78 53.06 5.62 52.82C5.46 52.98 5.28 53.1 5.08 53.18C4.92 53.3 4.74 53.44 4.54 53.6C4.26 53.28 3.94 53.12 3.58 53.12C3.22 53.12 2.84 53.22 2.44 53.42C1.96 53.66 1.52 53.64 1.12 53.36C0.72 53.08 0.52 52.68 0.52 52.16V47.42C0.48 46.7 0.5 46 0.58 45.32C0.66 44.64 0.84 44.02 1.12 43.46C1.16 43.34 1.18 43.18 1.18 42.98C0.82 42.02 0.66 41.06 0.7 40.1C0.78 39.1 0.9 38.1 1.06 37.1C1.26 36.1 1.3 35.12 1.18 34.16C1.1 33.36 1.08 32.58 1.12 31.82C1.16 31.06 1.18 30.26 1.18 29.42C1.26 28.38 1.32 27.32 1.36 26.24C1.4 25.12 1.42 24.04 1.42 23C1.46 21 1.5 19 1.54 17C1.58 15 1.62 13 1.66 11C1.66 10.92 1.62 10.82 1.54 10.7C1.5 10.54 1.48 10.42 1.48 10.34C1.44 10.1 1.38 9.86 1.3 9.62C1.22 9.38 1.16 9.14 1.12 8.9C1.12 8.1 1.18 7.16 1.3 6.08C1.38 6.08 1.5 6.1 1.66 6.14C1.82 6.18 1.92 6.2 1.96 6.2C2.52 5.56 3 4.94 3.4 4.34C3.84 3.74 4.32 3.18 4.84 2.66C5.32 2.18 5.84 1.8 6.4 1.52C7 1.24 7.66 1.1 8.38 1.1H12.7C14.02 1.1 15.18 1.56 16.18 2.48C16.82 3.04 17.38 3.68 17.86 4.4C18.38 5.08 18.82 5.9 19.18 6.86C19.46 6.42 19.7 6.02 19.9 5.66C20.14 5.26 20.38 4.9 20.62 4.58C21.42 3.54 22.36 2.7 23.44 2.06C24.52 1.38 25.78 1.06 27.22 1.1C27.54 1.1 27.88 1.12 28.24 1.16C28.64 1.16 29.04 1.14 29.44 1.1C30.72 0.979998 31.84 1.18 32.8 1.7C33.8 2.22 34.64 2.92 35.32 3.8C36 4.64 36.5 5.48 36.82 6.32ZM79.3722 4.04C79.9722 4.08 80.2722 4.42 80.2722 5.06C80.1922 7.26 79.7122 9.28 78.8322 11.12C77.9522 12.92 76.7522 14.58 75.2322 16.1C74.5922 16.74 73.8922 17.34 73.1322 17.9C72.3722 18.46 71.5722 19.1 70.7322 19.82C70.6922 21.38 70.6522 23.02 70.6122 24.74C70.5722 26.42 70.5322 28.14 70.4922 29.9C70.4522 30.7 70.3922 31.48 70.3122 32.24C70.2722 33 70.2522 33.78 70.2522 34.58C70.2522 35.42 70.2922 36.26 70.3722 37.1C70.4522 37.9 70.4922 38.72 70.4922 39.56C70.4522 41.24 70.4122 42.92 70.3722 44.6C70.3722 46.28 70.3322 47.98 70.2522 49.7C70.2522 50.14 70.1522 50.44 69.9522 50.6C69.7922 50.8 69.4522 50.88 68.9322 50.84C68.2522 50.8 67.5522 50.8 66.8322 50.84C66.1522 50.88 65.4722 50.88 64.7922 50.84C64.0322 50.8 63.2922 50.82 62.5722 50.9C61.8922 51.02 61.1922 51.1 60.4722 51.14C59.5522 51.22 58.9322 51.12 58.6122 50.84C58.2922 50.56 58.1522 50 58.1922 49.16C58.2322 46.56 58.2722 43.94 58.3122 41.3C58.3922 38.66 58.4522 36.06 58.4922 33.5C58.5322 32.82 58.5522 32.14 58.5522 31.46C58.5522 30.78 58.5522 30.08 58.5522 29.36C58.6322 27.64 58.6922 25.94 58.7322 24.26C58.7722 22.58 58.8122 20.92 58.8522 19.28C58.1722 18.84 57.4922 18.4 56.8122 17.96C56.1722 17.52 55.5122 17.1 54.8322 16.7C53.5922 15.98 52.6122 15.08 51.8922 14C51.1722 12.88 50.5322 11.7 49.9722 10.46C49.5722 9.54 49.3922 8.62 49.4322 7.7C49.4722 6.74 49.4522 5.8 49.3722 4.88C50.2122 4.8 51.0122 4.74 51.7722 4.7C52.5322 4.62 53.2522 4.58 53.9322 4.58C56.9322 4.5 59.9322 4.46 62.9322 4.46C65.9322 4.42 68.9322 4.38 71.9322 4.34C73.0522 4.34 74.1322 4.3 75.1722 4.22C76.2522 4.14 77.3322 4.08 78.4122 4.04H79.3722ZM95.477 21.44C94.957 20.52 94.537 19.6 94.217 18.68C93.937 17.72 93.857 16.72 93.977 15.68C94.097 14.92 94.097 14.22 93.977 13.58C93.817 11.82 94.097 10.28 94.817 8.96C95.577 7.6 96.477 6.34 97.517 5.18C98.557 4.02 99.757 3.12 101.117 2.48C102.477 1.8 103.857 1.18 105.257 0.619999C105.737 0.459999 106.257 0.419998 106.817 0.499997C107.417 0.579998 107.977 0.619999 108.497 0.619999C108.417 2.9 108.297 5.12 108.137 7.28C108.017 9.44 107.977 11.62 108.017 13.82C108.057 15.9 108.077 18.02 108.077 20.18C108.117 22.3 108.237 24.42 108.437 26.54C108.757 26.66 109.077 26.72 109.397 26.72C112.117 27 114.397 27.86 116.237 29.3C118.077 30.7 119.517 32.64 120.557 35.12C120.877 35.76 121.117 36.44 121.277 37.16C121.437 37.84 121.477 38.56 121.397 39.32C121.397 39.84 121.377 40.36 121.337 40.88C121.337 41.36 121.357 41.82 121.397 42.26C121.677 44.02 121.397 45.54 120.557 46.82C119.757 48.1 118.837 49.3 117.797 50.42C116.757 51.58 115.517 52.48 114.077 53.12C112.677 53.76 111.157 54.12 109.517 54.2C109.237 54.2 108.977 54.18 108.737 54.14C108.497 54.14 108.277 54.18 108.077 54.26C107.477 54.54 106.917 54.46 106.397 54.02C106.237 53.86 106.017 53.76 105.737 53.72C105.497 53.72 105.277 53.68 105.077 53.6C102.677 53 100.877 51.68 99.677 49.64C99.317 48.92 99.117 48.06 99.077 47.06C99.037 46.06 99.137 45.08 99.377 44.12C99.657 43.16 100.037 42.38 100.517 41.78C101.037 41.18 101.557 40.6 102.077 40.04C102.597 39.48 103.257 39.1 104.057 38.9C104.497 38.78 104.917 38.68 105.317 38.6C105.757 38.52 106.197 38.46 106.637 38.42C106.837 39.26 106.917 40.06 106.877 40.82C106.837 41.58 106.837 42.34 106.877 43.1C106.957 43.38 107.017 43.64 107.057 43.88C107.097 44.12 107.137 44.36 107.177 44.6C107.177 43.24 107.177 41.88 107.177 40.52C107.177 39.12 107.137 37.74 107.057 36.38C107.057 35.1 107.017 33.84 106.937 32.6C106.897 31.32 106.857 30 106.817 28.64C106.377 28.52 105.937 28.42 105.497 28.34C105.097 28.22 104.697 28.1 104.297 27.98C102.457 27.42 100.757 26.62 99.197 25.58C97.677 24.54 96.437 23.16 95.477 21.44ZM109.097 0.619999C110.657 0.739998 111.937 1.16 112.937 1.88C114.337 2.8 115.477 3.9 116.357 5.18C117.277 6.42 117.677 7.92 117.557 9.68C117.357 13 115.737 15.36 112.697 16.76C112.057 17 111.397 17.22 110.717 17.42C110.037 17.58 109.297 17.44 108.497 17C108.497 14.32 108.517 11.62 108.557 8.9C108.597 6.18 108.777 3.42 109.097 0.619999ZM107.237 48.62H107.597C107.557 48.1 107.497 47.6 107.417 47.12C107.377 46.64 107.317 46.16 107.237 45.68V48.62ZM150.078 51.32C150.078 51.48 150.058 51.64 150.018 51.8C150.018 51.96 150.018 52.14 150.018 52.34H139.938C139.898 51.22 139.838 50.12 139.758 49.04C139.718 47.96 139.758 46.9 139.878 45.86C139.998 44.82 140.058 43.76 140.058 42.68C140.058 41.6 140.078 40.56 140.118 39.56C140.158 38.44 140.198 37.34 140.238 36.26C140.278 35.14 140.318 34.04 140.358 32.96C140.398 31.88 140.418 30.78 140.418 29.66C140.418 28.54 140.418 27.44 140.418 26.36C140.458 25.28 140.498 24.18 140.538 23.06C140.578 21.94 140.618 20.84 140.658 19.76C140.698 18.64 140.738 17.54 140.778 16.46C140.818 15.34 140.858 14.16 140.898 12.92H147.138V12.74H134.838V3.62C135.158 3.58 135.458 3.56 135.738 3.56C136.058 3.56 136.358 3.56 136.638 3.56C138.918 3.52 141.198 3.5 143.478 3.5C145.758 3.46 148.038 3.44 150.318 3.44C151.598 3.44 152.858 3.46 154.098 3.5C155.378 3.54 156.678 3.58 157.998 3.62V12.02C156.838 12.14 155.658 12.26 154.458 12.38C153.298 12.5 152.158 12.62 151.038 12.74C151.038 13.98 151.038 15.22 151.038 16.46C151.078 17.66 151.078 18.86 151.038 20.06C150.998 20.74 150.998 21.42 151.038 22.1C151.078 22.5 151.078 22.9 151.038 23.3C150.998 23.66 150.938 24 150.858 24.32C150.818 24.92 150.718 25.52 150.558 26.12C150.438 26.72 150.418 27.3 150.498 27.86C150.738 29.14 150.798 30.44 150.678 31.76C150.598 33.04 150.578 34.34 150.618 35.66C150.698 36.54 150.678 37.44 150.558 38.36C150.478 39.28 150.398 40.18 150.318 41.06C150.278 42.82 150.238 44.54 150.198 46.22C150.198 47.9 150.158 49.6 150.078 51.32ZM182.057 50.18C177.817 48.74 174.077 46.34 170.837 42.98C169.797 41.82 168.977 40.56 168.377 39.2C167.817 37.84 167.197 36.5 166.517 35.18C166.357 34.9 166.277 34.58 166.277 34.22C166.317 33.86 166.317 33.52 166.277 33.2C166.277 31.44 166.277 29.68 166.277 27.92C166.277 26.12 166.297 24.36 166.337 22.64C166.337 21.56 166.537 20.52 166.937 19.52C168.817 15.24 171.397 11.88 174.677 9.44C177.957 6.96 181.797 5.18 186.197 4.1C186.877 3.94 187.597 3.9 188.357 3.98C189.117 4.06 189.917 4.1 190.757 4.1C190.717 5.66 190.657 7.16 190.577 8.6C190.497 10 190.417 11.4 190.337 12.8C190.297 14.04 190.257 15.28 190.217 16.52C190.177 17.76 190.117 19.02 190.037 20.3C189.997 21.06 189.897 21.82 189.737 22.58C189.617 23.3 189.577 24.04 189.617 24.8C189.697 27.04 189.797 29.32 189.917 31.64C190.077 33.92 190.217 36.22 190.337 38.54C190.337 38.7 190.297 38.86 190.217 39.02C190.177 39.14 190.157 39.28 190.157 39.44C190.117 40.48 189.997 41.52 189.797 42.56C189.637 43.56 189.817 44.6 190.337 45.68C190.657 46.32 190.757 47.06 190.637 47.9C190.557 48.74 190.477 49.54 190.397 50.3C190.357 50.82 190.157 51.14 189.797 51.26C189.477 51.42 189.117 51.46 188.717 51.38C187.597 51.22 186.457 51.06 185.297 50.9C184.177 50.74 183.097 50.5 182.057 50.18ZM216.737 27.44C216.737 27.96 216.737 28.5 216.737 29.06C216.737 29.62 216.777 30.18 216.857 30.74C217.177 33.22 216.877 35.5 215.957 37.58C215.037 39.66 213.877 41.68 212.477 43.64C210.797 45.84 208.817 47.62 206.537 48.98C204.297 50.34 201.857 51.36 199.217 52.04C198.337 52.28 197.417 52.34 196.457 52.22C195.497 52.14 194.417 52.1 193.217 52.1C193.057 44.3 192.857 36.52 192.617 28.76C192.377 21 192.137 13.2 191.897 5.36C192.297 5.24 192.657 5.12 192.977 5C193.297 4.84 193.617 4.8 193.937 4.88C196.297 4.92 198.577 5.28 200.777 5.96C202.977 6.6 205.077 7.58 207.077 8.9C209.797 10.7 211.877 12.88 213.317 15.44C214.757 18 215.877 20.76 216.677 23.72C216.837 24.28 216.877 24.9 216.797 25.58C216.757 26.22 216.737 26.84 216.737 27.44ZM253.903 9.14C254.343 9.9 254.723 10.68 255.043 11.48C255.363 12.24 255.483 13.08 255.403 14C255.363 14.64 255.343 15.28 255.343 15.92C255.343 16.56 255.363 17.2 255.403 17.84C255.523 18.72 255.483 19.6 255.283 20.48C255.123 21.32 254.783 22.08 254.263 22.76C253.863 23.48 253.363 24.14 252.763 24.74C252.163 25.34 251.563 25.92 250.963 26.48C250.243 27.12 249.463 27.62 248.623 27.98C247.823 28.3 246.963 28.6 246.043 28.88H249.463C250.383 28.88 250.923 29 251.083 29.24C251.283 29.44 251.423 30 251.503 30.92C251.783 34.32 251.883 37.72 251.803 41.12C251.723 44.52 251.723 47.92 251.803 51.32V53.78C251.403 53.86 251.023 53.96 250.663 54.08C250.303 54.2 249.963 54.26 249.643 54.26C248.763 54.3 247.903 54.3 247.063 54.26C246.263 54.26 245.443 54.26 244.603 54.26C244.003 54.26 243.603 54.16 243.403 53.96C243.203 53.8 243.003 53.44 242.803 52.88C242.523 51.84 242.383 50.82 242.383 49.82C242.383 48.82 242.343 47.82 242.263 46.82C242.143 45.46 242.043 44.08 241.963 42.68C241.923 41.28 241.863 39.9 241.783 38.54C241.743 37.78 241.703 37.06 241.663 36.38C241.663 35.66 241.623 34.96 241.543 34.28C241.503 33.6 241.783 33.08 242.383 32.72C242.103 32.36 241.863 32.02 241.663 31.7C241.463 31.38 241.583 30.96 242.023 30.44C242.223 30.16 242.303 29.8 242.263 29.36C242.263 28.88 242.243 28.44 242.203 28.04C242.163 27.12 242.083 26.24 241.963 25.4C241.883 24.52 241.823 23.64 241.783 22.76C241.743 20.48 241.703 18.2 241.663 15.92C241.663 13.6 241.623 11.28 241.543 8.96C241.543 8.48 241.563 8 241.603 7.52C241.683 7 241.723 6.48 241.723 5.96C241.723 5.4 241.663 4.8 241.543 4.16C241.423 3.32 241.763 2.8 242.563 2.6C243.043 2.52 243.503 2.46 243.943 2.42C244.383 2.38 244.823 2.5 245.263 2.78C245.423 2.9 245.603 2.98 245.803 3.02C246.003 3.06 246.163 3.1 246.283 3.14C246.283 3.14 246.343 3.18 246.463 3.26C246.623 3.3 246.903 3.5 247.303 3.86C250.143 4.86 252.343 6.62 253.903 9.14ZM240.763 31.16C240.763 32.32 240.823 33.48 240.943 34.64C241.063 35.76 241.043 36.9 240.883 38.06C240.723 39.1 240.703 40.14 240.823 41.18C240.983 42.18 241.003 43.2 240.883 44.24C240.763 45.68 240.683 47.14 240.643 48.62C240.603 50.1 240.543 51.6 240.463 53.12C240.463 53.28 240.423 53.44 240.343 53.6C240.263 53.8 240.203 54 240.163 54.2H226.783V2.48H240.463C240.543 3.2 240.623 3.92 240.703 4.64C240.823 5.36 240.883 6.08 240.883 6.8C241.003 9.36 240.943 11.92 240.703 14.48C240.583 15.76 240.583 17.04 240.703 18.32C240.863 19.6 240.943 20.88 240.943 22.16C240.943 23.36 240.903 24.56 240.823 25.76C240.743 26.96 240.683 28.14 240.643 29.3C240.643 29.58 240.643 29.88 240.643 30.2C240.683 30.52 240.723 30.84 240.763 31.16ZM284.658 24.2C284.618 26.04 284.538 27.9 284.418 29.78C284.338 31.66 284.258 33.54 284.178 35.42C284.138 35.94 284.078 36.48 283.998 37.04C283.958 37.56 283.938 38.08 283.938 38.6C284.018 41.04 283.998 43.44 283.878 45.8C283.758 48.12 283.718 50.46 283.758 52.82C283.798 53.46 283.658 53.9 283.338 54.14C283.058 54.42 282.578 54.56 281.898 54.56C281.098 54.56 280.518 54.56 280.158 54.56C279.798 54.56 279.498 54.52 279.258 54.44C279.018 54.36 278.698 54.22 278.298 54.02C278.138 54.14 277.958 54.28 277.758 54.44C277.558 54.64 277.298 54.9 276.978 55.22C276.818 54.98 276.658 54.72 276.498 54.44C276.378 54.2 276.218 53.94 276.018 53.66C275.858 53.94 275.698 54.14 275.538 54.26C275.418 54.42 275.298 54.6 275.178 54.8C275.138 54.8 275.058 54.8 274.938 54.8C274.858 54.84 274.798 54.84 274.758 54.8C274.478 54.4 274.138 54.18 273.738 54.14C273.378 54.1 273.018 54.14 272.658 54.26C272.138 54.5 271.658 54.56 271.218 54.44C270.778 54.36 270.318 54.22 269.838 54.02C269.758 53.42 269.778 52.8 269.898 52.16C270.018 51.52 270.118 50.88 270.198 50.24C270.198 50.16 270.198 50.06 270.198 49.94C270.238 49.82 270.238 49.74 270.198 49.7C269.798 48.78 269.618 47.86 269.658 46.94C269.738 46.02 269.878 45.12 270.078 44.24C270.158 43.84 270.238 43.44 270.318 43.04C270.438 42.64 270.538 42.2 270.618 41.72C270.258 41.52 270.058 41.22 270.018 40.82C270.018 40.38 270.038 39.96 270.078 39.56C270.198 38.6 270.278 37.64 270.318 36.68C270.358 35.68 270.398 34.72 270.438 33.8C270.478 32.32 270.518 30.86 270.558 29.42C270.598 27.98 270.638 26.56 270.678 25.16C270.758 22.6 270.838 20.04 270.918 17.48C270.998 14.88 271.058 12.3 271.098 9.74C271.178 8.58 271.218 7.42 271.218 6.26C271.218 5.06 271.238 3.9 271.278 2.78C271.278 2.54 271.298 2.34 271.338 2.18C271.378 1.98 271.418 1.74 271.458 1.46C271.738 1.46 272.018 1.46 272.298 1.46C272.578 1.42 272.838 1.4 273.078 1.4H282.618C282.818 1.4 283.038 1.38 283.278 1.34C283.558 1.3 283.818 1.26 284.058 1.22C284.938 1.22 285.318 1.62 285.198 2.42C285.038 3.3 284.978 4.16 285.018 5C285.098 5.8 285.098 6.64 285.018 7.52C284.938 8.24 284.878 8.98 284.838 9.74C284.798 10.46 284.738 11.18 284.658 11.9C284.658 12.5 284.678 13.1 284.718 13.7C284.798 14.26 284.838 14.84 284.838 15.44C284.838 15.72 284.798 16 284.718 16.28C284.678 16.56 284.638 16.86 284.598 17.18C284.558 17.3 284.498 17.44 284.418 17.6C284.378 17.72 284.378 17.84 284.418 17.96C284.698 18.56 284.758 19.16 284.598 19.76C284.478 20.32 284.278 20.88 283.998 21.44C284.518 21.76 284.778 22.16 284.778 22.64C284.778 23.12 284.738 23.64 284.658 24.2ZM293.058 12.02C292.978 13.14 292.898 14.26 292.818 15.38C292.778 16.5 292.718 17.6 292.638 18.68C292.638 18.72 292.618 18.76 292.578 18.8C292.578 18.8 292.578 18.84 292.578 18.92C291.418 18.84 290.238 18.84 289.038 18.92C287.878 19 286.658 18.92 285.378 18.68C285.418 17.52 285.458 16.36 285.498 15.2C285.538 14.04 285.578 12.88 285.618 11.72C285.698 11.12 285.738 10.54 285.738 9.98C285.738 9.38 285.758 8.78 285.798 8.18C285.878 7.18 285.978 6.2 286.098 5.24C286.218 4.28 286.298 3.3 286.338 2.3C286.338 1.7 286.598 1.4 287.118 1.4C288.198 1.44 289.258 1.5 290.298 1.58C291.378 1.62 292.498 1.66 293.658 1.7C293.618 2.78 293.578 3.82 293.538 4.82C293.498 5.82 293.458 6.8 293.418 7.76C293.378 8.52 293.318 9.26 293.238 9.98C293.198 10.66 293.138 11.34 293.058 12.02ZM289.518 22.22C290.278 22.26 290.778 22.42 291.018 22.7C291.298 22.94 291.398 23.46 291.318 24.26C291.278 25.02 291.238 25.76 291.198 26.48C291.158 27.2 291.118 27.94 291.078 28.7C291.078 29.58 291.138 30.5 291.258 31.46C291.298 32.18 291.218 32.66 291.018 32.9C290.818 33.14 290.358 33.28 289.638 33.32C289.398 33.36 289.198 33.38 289.038 33.38C288.878 33.34 288.698 33.32 288.498 33.32C287.618 33.36 287.018 33.36 286.698 33.32C286.378 33.24 286.198 33.04 286.158 32.72C286.158 32.36 286.158 31.82 286.158 31.1V24.2C286.198 23.4 286.338 22.88 286.578 22.64C286.818 22.4 287.318 22.28 288.078 22.28C288.318 22.24 288.558 22.22 288.798 22.22C289.078 22.22 289.318 22.22 289.518 22.22ZM285.918 54.2C284.918 54.2 284.418 53.68 284.418 52.64V45.5C284.418 44.98 284.358 44.42 284.238 43.82C284.238 43.74 284.218 43.66 284.178 43.58C284.178 43.46 284.178 43.38 284.178 43.34C284.498 42.34 284.598 41.38 284.478 40.46C284.358 39.5 284.318 38.54 284.358 37.58C284.438 36.82 284.558 36.38 284.718 36.26C284.878 36.1 285.338 36.02 286.098 36.02H292.218C292.218 36.38 292.218 36.7 292.218 36.98C292.258 37.22 292.278 37.48 292.278 37.76C292.278 38.92 292.238 40.08 292.158 41.24C292.118 42.4 292.098 43.56 292.098 44.72C292.098 45.56 292.158 46.4 292.278 47.24C292.438 48.04 292.538 48.88 292.578 49.76C292.618 50.28 292.638 50.84 292.638 51.44C292.638 52.04 292.638 52.64 292.638 53.24C292.638 53.92 292.298 54.26 291.618 54.26C290.658 54.22 289.698 54.2 288.738 54.2C287.778 54.24 286.838 54.24 285.918 54.2Z" fill="#BBD94E"/>
</svg>
