<svg width="200" height="208" viewBox="0 0 200 208" fill="none" xmlns="http://www.w3.org/2000/svg">
<path fill-rule="evenodd" clip-rule="evenodd" d="M0.84 72.63C0.96 73.41 0.72 74.16 0.12 74.88C-4.61935e-07 74.94 -0.0299999 75.15 0.0300002 75.51C0.0899999 75.93 0.12 76.32 0.12 76.68C1.68 76.74 3.24 76.74 4.8 76.68C6.36 76.68 7.98 76.47 9.66 76.05C9.96 76.59 10.35 76.86 10.83 76.86C11.31 76.92 11.76 76.65 12.18 76.05C12.66 76.17 13.11 76.29 13.53 76.41C13.95 76.59 14.34 76.74 14.7 76.86C15.3 76.92 15.87 76.92 16.41 76.86H18.12C18.84 76.74 19.35 76.53 19.65 76.23C19.95 75.99 20.13 75.48 20.19 74.7C20.31 71.52 20.4 68.31 20.46 65.07C20.58 61.83 20.67 58.56 20.73 55.26C21.03 55.5 21.21 55.74 21.27 55.98C21.39 56.16 21.48 56.34 21.54 56.52C22.08 57.84 22.65 59.13 23.25 60.39C23.91 61.59 24.72 62.73 25.68 63.81C26.34 64.41 27.03 65.04 27.75 65.7C28.47 66.36 29.22 67.02 30 67.68C31.2 68.52 32.37 69.42 33.51 70.38C34.71 71.28 36.12 71.88 37.74 72.18C38.1 72.24 38.43 72.33 38.73 72.45C39.09 72.63 39.33 72.96 39.45 73.44C39.63 74.16 40.02 74.61 40.62 74.79C41.28 74.97 41.82 75.12 42.24 75.24C43.74 75.36 45.21 75.39 46.65 75.33H51.24C51.3 74.97 51.33 73.62 51.33 71.28C51.39 68.94 51.45 65.94 51.51 62.28C51.5523 59.6975 51.5797 56.9656 51.5922 54.0843C50.6774 54.2648 49.7263 54.36 48.75 54.36C41.5703 54.36 35.75 49.2113 35.75 42.86C35.75 36.5087 41.5703 31.36 48.75 31.36C49.7219 31.36 50.6688 31.4543 51.5798 31.6332C51.5648 29.5391 51.5416 27.5447 51.51 25.65C51.51 21.99 51.45 19.02 51.33 16.74C51.27 14.4 51.18 13.08 51.06 12.78C48.12 13.08 45.15 13.47 42.15 13.95C39.21 14.37 36.39 15.45 33.69 17.19C31.11 18.87 28.74 20.73 26.58 22.77C24.42 24.75 22.74 27.24 21.54 30.24C21.18 29.58 21.06 28.89 21.18 28.17C21.18 27.81 21.27 27.45 21.45 27.09C21.63 26.67 21.66 26.31 21.54 26.01C21.36 25.05 21.33 24.12 21.45 23.22C21.57 22.32 21.66 21.39 21.72 20.43C21.78 18.57 21.87 16.74 21.99 14.94C22.11 13.14 22.23 11.37 22.35 9.63V7.11C22.41 6.27 22.41 5.46 22.35 4.68C22.29 4.2 22.23 3.78 22.17 3.42C22.17 3 22.23 2.55 22.35 2.07C22.71 0.69 22.08 0 20.46 0L15.6 0.179998H10.56H2.55C2.49 0.659999 2.43 1.11 2.37 1.53V2.61C2.43 3.45 2.46 4.32 2.46 5.22C2.52 6.06 2.55 6.9 2.55 7.74C2.49 10.26 2.37 12.75 2.19 15.21C2.01 17.67 1.89 20.16 1.83 22.68L1.65 35.28C1.59 39.42 1.53 43.62 1.47 47.88C1.29 50.4 1.11 53.01 0.93 55.71C0.87 56.19 0.84 56.67 0.84 57.15C0.84 57.63 1.05 57.96 1.47 58.14C1.35 59.1 1.17 60.03 0.93 60.93C0.75 61.77 0.63 62.61 0.57 63.45C0.51 64.41 0.39 65.43 0.21 66.51C0.03 67.53 0.27 68.58 0.93 69.66C1.05 69.72 1.11 69.87 1.11 70.11C1.17 70.29 1.17 70.44 1.11 70.56C0.87 71.22 0.78 71.91 0.84 72.63ZM85.4899 25.92C85.9099 25.8 86.3299 25.86 86.7499 26.1C86.9299 26.22 87.0799 26.22 87.1999 26.1C87.3199 25.92 87.3799 25.74 87.3799 25.56C87.4399 25.2 87.4699 24.84 87.4699 24.48C87.4699 24.12 87.4999 23.76 87.5599 23.4C87.6199 23.04 87.4999 22.77 87.1999 22.59C86.8399 22.35 86.5699 21.96 86.3899 21.42C86.2099 20.7 85.8799 20.07 85.3999 19.53C84.9799 18.99 84.5299 18.51 84.0499 18.09C83.6299 17.61 83.1199 17.22 82.5199 16.92C81.9199 16.56 81.2899 16.35 80.6299 16.29C79.6099 16.05 78.6199 15.93 77.6599 15.93C76.6999 15.87 75.7099 15.99 74.6899 16.29C72.9499 16.65 71.5999 17.46 70.6399 18.72C70.0999 19.44 69.6199 20.19 69.1999 20.97C68.7799 21.75 68.5699 22.65 68.5699 23.67C68.5099 23.97 68.4499 24.3 68.3899 24.66C68.3899 24.96 68.3599 25.29 68.2999 25.65C70.1599 25.71 71.9599 25.77 73.6999 25.83C75.4999 25.89 77.2699 25.95 79.0099 26.01C79.9099 26.01 80.7799 25.98 81.6199 25.92C82.5199 25.86 83.3899 25.89 84.2299 26.01C84.6499 26.07 85.0699 26.04 85.4899 25.92ZM85.7599 48.24L86.0299 33.66C85.0699 33.72 83.7799 33.75 82.1599 33.75H77.1199C75.4399 33.69 73.9399 33.69 72.6199 33.75C71.3599 33.75 70.5499 33.78 70.1899 33.84L70.9099 78.84H86.0299C85.7299 76.32 85.6399 73.77 85.7599 71.19C85.8799 68.61 85.8799 66.03 85.7599 63.45V48.24ZM104.187 30.33V54.9C104.127 54.9 104.097 55.68 104.097 57.24C104.097 58.74 104.127 60.54 104.187 62.64C104.427 64.86 104.637 67.14 104.817 69.48C105.057 71.82 105.297 74.13 105.537 76.41H122.187C122.307 73.83 122.397 71.28 122.457 68.76C122.577 66.18 122.637 63.66 122.637 61.2C122.637 52.02 122.547 42.9 122.367 33.84V32.13C122.367 31.53 122.307 30.93 122.187 30.33H104.187ZM142.347 47.61H142.257C141.897 44.67 141.087 41.97 139.827 39.51C138.567 37.05 136.557 35.04 133.797 33.48C133.317 33.06 132.807 32.73 132.267 32.49C131.907 32.25 131.607 32.1 131.367 32.04L129.747 31.68C129.207 31.5 128.667 31.38 128.127 31.32C127.527 31.2 126.927 31.11 126.327 31.05C125.787 30.99 125.187 30.96 124.527 30.96C124.287 30.96 124.077 31.05 123.897 31.23C123.717 31.41 123.597 31.5 123.537 31.5C123.597 32.1 123.627 32.61 123.627 33.03C123.687 33.39 123.717 33.72 123.717 34.02C123.717 34.26 123.687 34.5 123.627 34.74C123.567 34.92 123.507 35.13 123.447 35.37V42.57C123.447 44.91 123.417 47.25 123.357 49.59L131.277 49.86L130.377 60.66C130.077 64.26 129.777 67.83 129.477 71.37C129.417 72.09 129.507 72.6 129.747 72.9C130.047 73.2 130.587 73.47 131.367 73.71C132.927 74.31 134.487 74.55 136.047 74.43C137.607 74.31 139.227 74.28 140.907 74.34C141.027 72.9 141.117 71.52 141.177 70.2C141.237 68.82 141.297 67.5 141.357 66.24C141.477 64.8 141.537 63.36 141.537 61.92C141.537 60.48 141.657 59.07 141.897 57.69C142.137 56.43 142.257 55.2 142.257 54C142.257 52.74 142.287 51.45 142.347 50.13V47.61ZM196.665 34.2L196.935 13.68C195.915 13.74 194.565 13.77 192.885 13.77H187.755C186.015 13.77 184.485 13.8 183.165 13.86C181.845 13.86 181.005 13.92 180.645 14.04L181.275 77.4H196.935C196.635 73.86 196.545 70.26 196.665 66.6C196.785 62.94 196.785 59.28 196.665 55.62V34.2ZM156.885 55.44V56.7V58.95C156.945 59.67 157.065 60.39 157.245 61.11C157.785 62.55 158.355 63.96 158.955 65.34C159.615 66.72 160.545 67.95 161.745 69.03C162.945 70.05 164.175 70.98 165.435 71.82C166.755 72.66 168.255 73.26 169.935 73.62L171.375 73.8C171.855 73.86 172.305 73.98 172.725 74.16C173.445 74.4 174.165 74.49 174.885 74.43H177.045V73.71C177.105 73.53 177.135 73.38 177.135 73.26V43.56C177.135 43.14 177.075 42.81 176.955 42.57C176.895 42.27 176.685 42.03 176.325 41.85L176.685 41.31L177.135 40.86C176.535 40.08 176.265 39.33 176.325 38.61C176.385 37.89 176.685 37.14 177.225 36.36C176.625 36.06 176.205 35.91 175.965 35.91C174.345 35.85 172.695 35.85 171.015 35.91C170.775 35.91 170.475 35.97 170.115 36.09C169.755 36.15 169.515 36.27 169.395 36.45C169.155 37.05 168.765 37.41 168.225 37.53C167.745 37.65 167.265 37.83 166.785 38.07C166.365 38.31 165.915 38.55 165.435 38.79C165.015 39.03 164.625 39.3 164.265 39.6C163.725 40.02 163.215 40.47 162.735 40.95C162.255 41.43 161.775 41.88 161.295 42.3C161.055 42.54 160.785 42.78 160.485 43.02C160.245 43.26 160.035 43.53 159.855 43.83C158.895 45.45 158.115 47.1 157.515 48.78C156.975 50.46 156.765 52.26 156.885 54.18C156.945 54.6 156.945 55.02 156.885 55.44ZM27.66 157.45C29.34 157.39 31.11 157.36 32.97 157.36V131.44C32.19 131.32 30.69 131.26 28.47 131.26C26.25 131.2 23.73 131.17 20.91 131.17H12.63C9.93 131.17 7.62 131.2 5.7 131.26C3.78 131.32 2.64 131.41 2.28 131.53V207.49H22.71C22.35 203.29 22.2 199.09 22.26 194.89C22.38 190.63 22.38 186.31 22.26 181.93H27.3C28.26 181.93 28.83 181.84 29.01 181.66C29.19 181.42 29.31 180.82 29.37 179.86C29.49 178.84 29.52 177.82 29.46 176.8C29.4 175.78 29.46 174.79 29.64 173.83C30.12 172.09 30.21 170.41 29.91 168.79C29.67 167.11 29.58 165.34 29.64 163.48C28.8 163.6 27.96 163.6 27.12 163.48C26.28 163.36 25.47 163.36 24.69 163.48C23.97 163.54 23.25 163.9 22.53 164.56V156.91C24.27 157.33 25.98 157.51 27.66 157.45ZM88.6877 180.58C88.7477 179.8 88.8077 179.05 88.8677 178.33C88.9877 177.91 88.9577 177.58 88.7777 177.34C88.6577 177.04 88.4777 176.8 88.2377 176.62C87.8177 176.32 87.4877 175.96 87.2477 175.54C87.0677 175.06 86.9177 174.61 86.7977 174.19C86.4377 172.75 85.8077 171.46 84.9077 170.32C84.0677 169.18 83.1377 168.13 82.1177 167.17C81.1577 166.27 80.1077 165.49 78.9677 164.83C77.8277 164.11 76.5677 163.6 75.1877 163.3C73.1477 162.82 71.1077 162.55 69.0677 162.49C67.0877 162.37 65.0477 162.55 62.9477 163.03C61.3277 163.39 59.7977 163.96 58.3577 164.74C56.9777 165.52 55.7777 166.51 54.7577 167.71C53.5577 169.15 52.4777 170.68 51.5177 172.3C50.6177 173.92 50.1377 175.72 50.0777 177.7C50.0177 178.3 49.8977 178.96 49.7177 179.68C49.5977 180.34 49.4777 181.06 49.3577 181.84C53.1977 182.08 56.9177 182.32 60.5177 182.56C64.1777 182.8 67.8077 183.01 71.4077 183.19C73.1477 183.25 74.8877 183.28 76.6277 183.28C78.4277 183.22 80.1977 183.28 81.9377 183.46C82.7777 183.52 83.6177 183.49 84.4577 183.37C85.3577 183.19 86.2277 183.34 87.0677 183.82C87.5477 184.06 87.8777 184.06 88.0577 183.82C88.2377 183.52 88.3577 183.16 88.4177 182.74C88.5377 182.02 88.6277 181.3 88.6877 180.58ZM48.6377 190.84C48.8177 190.72 48.9377 190.63 48.9977 190.57C49.5977 191.71 50.1377 192.82 50.6177 193.9C51.1577 194.98 51.7277 196.06 52.3277 197.14C52.5077 197.5 52.7177 197.89 52.9577 198.31C53.1977 198.73 53.4677 199.06 53.7677 199.3C54.8477 200.08 55.9577 200.86 57.0977 201.64C58.2377 202.36 59.3777 203.05 60.5177 203.71C60.6977 203.89 60.9677 203.98 61.3277 203.98C62.7077 204.34 64.0877 204.55 65.4677 204.61C66.9077 204.67 68.3477 204.67 69.7877 204.61C73.0277 204.31 75.9977 203.5 78.6977 202.18C81.4577 200.86 83.7377 198.73 85.5377 195.79C85.6577 195.49 85.8077 195.22 85.9877 194.98C86.1677 194.68 86.3477 194.41 86.5277 194.17C86.7677 193.81 86.9177 193.51 86.9777 193.27C87.0977 192.67 87.2477 192.1 87.4277 191.56C87.6077 190.96 87.7277 190.36 87.7877 189.76C88.0877 188.44 88.2377 187.21 88.2377 186.07C88.2377 185.77 88.1477 185.53 87.9677 185.35L87.6077 184.99C87.0077 185.05 86.4977 185.11 86.0777 185.17C85.6577 185.17 85.2677 185.14 84.9077 185.08C84.6677 185.08 84.4277 185.05 84.1877 184.99C83.9477 184.93 83.7077 184.9 83.4677 184.9C79.2677 184.84 75.0677 184.81 70.8677 184.81C66.6677 184.75 62.4377 184.69 58.1777 184.63C57.0377 184.57 55.8977 184.54 54.7577 184.54C53.6777 184.54 52.6277 184.51 51.6077 184.45C51.4877 184.27 51.3977 184.15 51.3377 184.09C51.3377 184.03 51.3077 183.97 51.2477 183.91C51.1277 183.43 50.9177 183.04 50.6177 182.74C50.3777 182.44 49.9577 182.35 49.3577 182.47C48.7577 182.53 48.3977 182.74 48.2777 183.1C48.2177 183.46 48.1577 183.88 48.0977 184.36C48.0377 185.32 47.9777 186.25 47.9177 187.15L47.7377 189.85C47.6777 190.09 47.6777 190.33 47.7377 190.57C47.7977 190.75 47.8577 190.99 47.9177 191.29C48.2177 191.11 48.4577 190.96 48.6377 190.84ZM144.586 180.58C144.646 179.8 144.706 179.05 144.766 178.33C144.886 177.91 144.856 177.58 144.676 177.34C144.556 177.04 144.376 176.8 144.136 176.62C143.716 176.32 143.386 175.96 143.146 175.54C142.966 175.06 142.816 174.61 142.696 174.19C142.336 172.75 141.706 171.46 140.806 170.32C139.966 169.18 139.036 168.13 138.016 167.17C137.056 166.27 136.006 165.49 134.866 164.83C133.726 164.11 132.466 163.6 131.086 163.3C129.046 162.82 127.006 162.55 124.966 162.49C122.986 162.37 120.946 162.55 118.846 163.03C117.226 163.39 115.696 163.96 114.256 164.74C112.876 165.52 111.676 166.51 110.656 167.71C109.456 169.15 108.376 170.68 107.416 172.3C106.516 173.92 106.036 175.72 105.976 177.7C105.916 178.3 105.796 178.96 105.616 179.68C105.496 180.34 105.376 181.06 105.256 181.84C109.096 182.08 112.816 182.32 116.416 182.56C120.076 182.8 123.706 183.01 127.306 183.19C129.046 183.25 130.786 183.28 132.526 183.28C134.326 183.22 136.096 183.28 137.836 183.46C138.676 183.52 139.516 183.49 140.356 183.37C141.256 183.19 142.126 183.34 142.966 183.82C143.446 184.06 143.776 184.06 143.956 183.82C144.136 183.52 144.256 183.16 144.316 182.74C144.436 182.02 144.526 181.3 144.586 180.58ZM104.536 190.84C104.716 190.72 104.836 190.63 104.896 190.57C105.496 191.71 106.036 192.82 106.516 193.9C107.056 194.98 107.626 196.06 108.226 197.14C108.406 197.5 108.616 197.89 108.856 198.31C109.096 198.73 109.366 199.06 109.666 199.3C110.746 200.08 111.856 200.86 112.996 201.64C114.136 202.36 115.276 203.05 116.416 203.71C116.596 203.89 116.866 203.98 117.226 203.98C118.606 204.34 119.986 204.55 121.366 204.61C122.806 204.67 124.246 204.67 125.686 204.61C128.926 204.31 131.896 203.5 134.596 202.18C137.356 200.86 139.636 198.73 141.436 195.79C141.556 195.49 141.706 195.22 141.886 194.98C142.066 194.68 142.246 194.41 142.426 194.17C142.666 193.81 142.816 193.51 142.876 193.27C142.996 192.67 143.146 192.1 143.326 191.56C143.506 190.96 143.626 190.36 143.686 189.76C143.986 188.44 144.136 187.21 144.136 186.07C144.136 185.77 144.046 185.53 143.866 185.35L143.506 184.99C142.906 185.05 142.396 185.11 141.976 185.17C141.556 185.17 141.166 185.14 140.806 185.08C140.566 185.08 140.326 185.05 140.086 184.99C139.846 184.93 139.606 184.9 139.366 184.9C135.166 184.84 130.966 184.81 126.766 184.81C122.566 184.75 118.336 184.69 114.076 184.63C112.936 184.57 111.796 184.54 110.656 184.54C109.576 184.54 108.526 184.51 107.506 184.45C107.386 184.27 107.296 184.15 107.236 184.09C107.236 184.03 107.206 183.97 107.146 183.91C107.026 183.43 106.816 183.04 106.516 182.74C106.276 182.44 105.856 182.35 105.256 182.47C104.656 182.53 104.296 182.74 104.176 183.1C104.116 183.46 104.056 183.88 103.996 184.36C103.936 185.32 103.876 186.25 103.816 187.15L103.636 189.85C103.576 190.09 103.576 190.33 103.636 190.57C103.696 190.75 103.756 190.99 103.816 191.29C104.116 191.11 104.356 190.96 104.536 190.84ZM198.775 164.2L199.045 143.68C198.025 143.74 196.675 143.77 194.995 143.77H189.865C188.125 143.77 186.595 143.8 185.275 143.86C183.955 143.86 183.115 143.92 182.755 144.04L183.385 207.4H199.045C198.745 203.86 198.655 200.26 198.775 196.6C198.895 192.94 198.895 189.28 198.775 185.62V164.2ZM158.995 185.44V186.7V188.95C159.055 189.67 159.175 190.39 159.355 191.11C159.895 192.55 160.465 193.96 161.065 195.34C161.725 196.72 162.655 197.95 163.855 199.03C165.055 200.05 166.285 200.98 167.545 201.82C168.865 202.66 170.365 203.26 172.045 203.62L173.485 203.8C173.965 203.86 174.415 203.98 174.835 204.16C175.555 204.4 176.275 204.49 176.995 204.43H179.155V203.71C179.215 203.53 179.245 203.38 179.245 203.26V173.56C179.245 173.14 179.185 172.81 179.065 172.57C179.005 172.27 178.795 172.03 178.435 171.85L178.795 171.31L179.245 170.86C178.645 170.08 178.375 169.33 178.435 168.61C178.495 167.89 178.795 167.14 179.335 166.36C178.735 166.06 178.315 165.91 178.075 165.91C176.455 165.85 174.805 165.85 173.125 165.91C172.885 165.91 172.585 165.97 172.225 166.09C171.865 166.15 171.625 166.27 171.505 166.45C171.265 167.05 170.875 167.41 170.335 167.53C169.855 167.65 169.375 167.83 168.895 168.07C168.475 168.31 168.025 168.55 167.545 168.79C167.125 169.03 166.735 169.3 166.375 169.6C165.835 170.02 165.325 170.47 164.845 170.95C164.365 171.43 163.885 171.88 163.405 172.3C163.165 172.54 162.895 172.78 162.595 173.02C162.355 173.26 162.145 173.53 161.965 173.83C161.005 175.45 160.225 177.1 159.625 178.78C159.085 180.46 158.875 182.26 158.995 184.18C159.055 184.6 159.055 185.02 158.995 185.44Z" fill="#BBD94E"/>
</svg>
