<svg width="1075" height="396" viewBox="0 0 1075 396" fill="none" xmlns="http://www.w3.org/2000/svg">
<path d="M221.3 209V181H227.94V191.38H238.98V181H245.62V209H238.98V197.44H227.94V209H221.3ZM260.118 209.6C258.198 209.6 256.478 209.153 254.958 208.26C253.438 207.353 252.238 206.093 251.358 204.48C250.478 202.853 250.038 200.96 250.038 198.8C250.038 197.173 250.291 195.7 250.798 194.38C251.304 193.047 252.011 191.907 252.918 190.96C253.824 190.013 254.891 189.287 256.118 188.78C257.344 188.26 258.678 188 260.118 188C262.011 188 263.624 188.413 264.958 189.24C266.291 190.053 267.244 191.14 267.818 192.5L266.918 193.92V188.6H272.558V209H266.918V203.68L267.818 205.08C267.244 206.44 266.291 207.533 264.958 208.36C263.624 209.187 262.011 209.6 260.118 209.6ZM261.238 203.96C262.144 203.96 262.958 203.753 263.678 203.34C264.411 202.913 264.991 202.313 265.418 201.54C265.844 200.767 266.058 199.853 266.058 198.8C266.058 197.733 265.844 196.82 265.418 196.06C264.991 195.287 264.411 194.693 263.678 194.28C262.958 193.853 262.144 193.64 261.238 193.64C260.331 193.64 259.518 193.853 258.798 194.28C258.078 194.693 257.504 195.287 257.078 196.06C256.651 196.82 256.438 197.733 256.438 198.8C256.438 199.853 256.651 200.767 257.078 201.54C257.504 202.313 258.078 202.913 258.798 203.34C259.518 203.753 260.331 203.96 261.238 203.96ZM282.786 209L275.586 188.6H282.626L286.966 203.34H286.246L290.486 188.6H297.366L290.426 209H282.786ZM309.872 209.6C307.632 209.6 305.666 209.153 303.972 208.26C302.279 207.353 300.959 206.093 300.012 204.48C299.066 202.853 298.592 200.953 298.592 198.78C298.592 197.207 298.866 195.76 299.412 194.44C299.972 193.12 300.746 191.98 301.732 191.02C302.732 190.06 303.906 189.32 305.252 188.8C306.612 188.267 308.106 188 309.732 188C311.519 188 313.112 188.32 314.512 188.96C315.912 189.587 317.066 190.467 317.972 191.6C318.892 192.72 319.526 194.047 319.872 195.58C320.219 197.1 320.232 198.753 319.912 200.54H304.592C304.606 201.34 304.846 202.04 305.312 202.64C305.779 203.24 306.419 203.713 307.232 204.06C308.046 204.393 308.992 204.56 310.072 204.56C311.272 204.56 312.412 204.407 313.492 204.1C314.572 203.78 315.606 203.293 316.592 202.64L318.652 207.08C318.026 207.56 317.212 207.993 316.212 208.38C315.226 208.753 314.172 209.047 313.052 209.26C311.946 209.487 310.886 209.6 309.872 209.6ZM304.992 196.12H313.672C313.646 195.093 313.266 194.273 312.532 193.66C311.799 193.047 310.806 192.74 309.552 192.74C308.286 192.74 307.232 193.047 306.392 193.66C305.566 194.273 305.099 195.093 304.992 196.12ZM347.841 217.4V204.42L349.321 205.92C348.388 207.133 347.294 208.053 346.041 208.68C344.788 209.293 343.381 209.6 341.821 209.6C339.821 209.6 338.048 209.127 336.501 208.18C334.954 207.22 333.741 205.927 332.861 204.3C331.994 202.66 331.561 200.827 331.561 198.8C331.561 197.173 331.814 195.7 332.321 194.38C332.828 193.047 333.534 191.907 334.441 190.96C335.361 190.013 336.434 189.287 337.661 188.78C338.901 188.26 340.248 188 341.701 188C342.994 188 344.168 188.187 345.221 188.56C346.274 188.92 347.168 189.433 347.901 190.1C348.648 190.767 349.221 191.533 349.621 192.4L348.721 193.88V188.6H354.381V217.4H347.841ZM342.921 203.96C343.868 203.96 344.714 203.753 345.461 203.34C346.208 202.913 346.788 202.313 347.201 201.54C347.628 200.767 347.841 199.853 347.841 198.8C347.841 197.733 347.628 196.82 347.201 196.06C346.774 195.287 346.188 194.693 345.441 194.28C344.694 193.853 343.854 193.64 342.921 193.64C341.988 193.64 341.148 193.853 340.401 194.28C339.654 194.693 339.061 195.287 338.621 196.06C338.194 196.82 337.981 197.733 337.981 198.8C337.981 199.853 338.194 200.767 338.621 201.54C339.048 202.313 339.634 202.913 340.381 203.34C341.128 203.753 341.974 203.96 342.921 203.96ZM367.822 209.6C365.968 209.6 364.435 209.24 363.222 208.52C362.008 207.787 361.102 206.78 360.502 205.5C359.915 204.207 359.622 202.707 359.622 201V188.6H366.182V200.02C366.182 201.14 366.475 202.027 367.062 202.68C367.662 203.333 368.528 203.66 369.662 203.66C370.395 203.66 371.035 203.5 371.582 203.18C372.142 202.847 372.568 202.393 372.862 201.82C373.168 201.247 373.322 200.58 373.322 199.82V188.6H379.882V209H374.222V206.84C373.568 207.573 372.742 208.22 371.742 208.78C370.742 209.327 369.435 209.6 367.822 209.6ZM394.989 209.6C392.749 209.6 390.783 209.153 389.089 208.26C387.396 207.353 386.076 206.093 385.129 204.48C384.183 202.853 383.709 200.953 383.709 198.78C383.709 197.207 383.983 195.76 384.529 194.44C385.089 193.12 385.863 191.98 386.849 191.02C387.849 190.06 389.023 189.32 390.369 188.8C391.729 188.267 393.223 188 394.849 188C396.636 188 398.229 188.32 399.629 188.96C401.029 189.587 402.183 190.467 403.089 191.6C404.009 192.72 404.643 194.047 404.989 195.58C405.336 197.1 405.349 198.753 405.029 200.54H389.709C389.723 201.34 389.963 202.04 390.429 202.64C390.896 203.24 391.536 203.713 392.349 204.06C393.163 204.393 394.109 204.56 395.189 204.56C396.389 204.56 397.529 204.407 398.609 204.1C399.689 203.78 400.723 203.293 401.709 202.64L403.769 207.08C403.143 207.56 402.329 207.993 401.329 208.38C400.343 208.753 399.289 209.047 398.169 209.26C397.063 209.487 396.003 209.6 394.989 209.6ZM390.109 196.12H398.789C398.763 195.093 398.383 194.273 397.649 193.66C396.916 193.047 395.923 192.74 394.669 192.74C393.403 192.74 392.349 193.047 391.509 193.66C390.683 194.273 390.216 195.093 390.109 196.12ZM416.739 209.56C414.846 209.56 413.113 209.327 411.539 208.86C409.979 208.393 408.633 207.733 407.499 206.88L409.539 202.38C410.646 203.087 411.833 203.647 413.099 204.06C414.366 204.46 415.566 204.66 416.699 204.66C417.739 204.66 418.533 204.52 419.079 204.24C419.626 203.947 419.899 203.527 419.899 202.98C419.899 202.5 419.646 202.147 419.139 201.92C418.646 201.693 417.673 201.447 416.219 201.18C413.473 200.713 411.459 199.947 410.179 198.88C408.913 197.8 408.279 196.327 408.279 194.46C408.279 193.127 408.646 191.96 409.379 190.96C410.113 189.96 411.126 189.187 412.419 188.64C413.726 188.08 415.226 187.8 416.919 187.8C418.573 187.8 420.133 188.02 421.599 188.46C423.079 188.9 424.346 189.513 425.399 190.3L423.419 194.8C422.873 194.387 422.239 194.02 421.519 193.7C420.813 193.38 420.079 193.133 419.319 192.96C418.559 192.787 417.819 192.7 417.099 192.7C416.206 192.7 415.479 192.84 414.919 193.12C414.373 193.387 414.099 193.76 414.099 194.24C414.099 194.733 414.339 195.1 414.819 195.34C415.299 195.58 416.259 195.853 417.699 196.16C420.606 196.747 422.666 197.54 423.879 198.54C425.093 199.527 425.699 200.913 425.699 202.7C425.699 204.087 425.319 205.293 424.559 206.32C423.813 207.347 422.766 208.147 421.419 208.72C420.086 209.28 418.526 209.56 416.739 209.56ZM438.958 209.6C436.691 209.6 434.911 208.967 433.618 207.7C432.324 206.42 431.678 204.513 431.678 201.98V182.76H438.238V188.6H443.018V193.8H438.238V200.84C438.238 201.933 438.478 202.7 438.958 203.14C439.438 203.58 440.058 203.8 440.818 203.8C441.231 203.8 441.638 203.753 442.038 203.66C442.451 203.553 442.831 203.4 443.178 203.2L444.018 208.34C443.391 208.687 442.638 208.98 441.758 209.22C440.878 209.473 439.944 209.6 438.958 209.6ZM427.718 193.8V188.6H432.278V193.8H427.718ZM447.947 209V188.6H454.507V209H447.947ZM451.227 185.58C450.173 185.58 449.253 185.253 448.467 184.6C447.693 183.933 447.307 183.04 447.307 181.92C447.307 180.8 447.693 179.913 448.467 179.26C449.253 178.607 450.173 178.28 451.227 178.28C452.293 178.28 453.213 178.607 453.987 179.26C454.76 179.913 455.147 180.8 455.147 181.92C455.147 183.04 454.76 183.933 453.987 184.6C453.213 185.253 452.293 185.58 451.227 185.58ZM469.718 209.6C467.491 209.6 465.524 209.113 463.818 208.14C462.111 207.153 460.771 205.84 459.798 204.2C458.838 202.56 458.358 200.76 458.358 198.8C458.358 197.373 458.631 196.013 459.178 194.72C459.738 193.413 460.524 192.26 461.538 191.26C462.551 190.247 463.751 189.453 465.138 188.88C466.524 188.293 468.051 188 469.718 188C471.944 188 473.911 188.493 475.618 189.48C477.324 190.453 478.658 191.76 479.618 193.4C480.578 195.04 481.058 196.84 481.058 198.8C481.058 200.227 480.784 201.593 480.238 202.9C479.691 204.193 478.911 205.34 477.898 206.34C476.884 207.34 475.684 208.133 474.298 208.72C472.911 209.307 471.384 209.6 469.718 209.6ZM469.718 203.96C470.651 203.96 471.491 203.753 472.238 203.34C472.984 202.913 473.571 202.313 473.998 201.54C474.424 200.767 474.638 199.853 474.638 198.8C474.638 197.733 474.424 196.82 473.998 196.06C473.584 195.287 473.004 194.693 472.258 194.28C471.511 193.853 470.664 193.64 469.718 193.64C468.771 193.64 467.924 193.853 467.178 194.28C466.431 194.693 465.844 195.287 465.418 196.06C464.991 196.82 464.778 197.733 464.778 198.8C464.778 199.853 464.991 200.767 465.418 201.54C465.858 202.313 466.451 202.913 467.198 203.34C467.944 203.753 468.784 203.96 469.718 203.96ZM484.9 209V188.6H491.46V190.76C492.22 189.8 493.12 189.1 494.16 188.66C495.2 188.22 496.293 188 497.44 188C499.36 188 500.94 188.38 502.18 189.14C503.42 189.887 504.333 190.86 504.92 192.06C505.52 193.247 505.82 194.507 505.82 195.84V209H499.26V197.9C499.26 196.673 498.933 195.707 498.28 195C497.64 194.293 496.693 193.94 495.44 193.94C494.64 193.94 493.94 194.113 493.34 194.46C492.753 194.807 492.293 195.3 491.96 195.94C491.626 196.567 491.46 197.287 491.46 198.1V209H484.9ZM518.732 209.56C516.838 209.56 515.105 209.327 513.532 208.86C511.972 208.393 510.625 207.733 509.492 206.88L511.532 202.38C512.638 203.087 513.825 203.647 515.092 204.06C516.358 204.46 517.558 204.66 518.692 204.66C519.732 204.66 520.525 204.52 521.072 204.24C521.618 203.947 521.892 203.527 521.892 202.98C521.892 202.5 521.638 202.147 521.132 201.92C520.638 201.693 519.665 201.447 518.212 201.18C515.465 200.713 513.452 199.947 512.172 198.88C510.905 197.8 510.272 196.327 510.272 194.46C510.272 193.127 510.638 191.96 511.372 190.96C512.105 189.96 513.118 189.187 514.412 188.64C515.718 188.08 517.218 187.8 518.912 187.8C520.565 187.8 522.125 188.02 523.592 188.46C525.072 188.9 526.338 189.513 527.392 190.3L525.412 194.8C524.865 194.387 524.232 194.02 523.512 193.7C522.805 193.38 522.072 193.133 521.312 192.96C520.552 192.787 519.812 192.7 519.092 192.7C518.198 192.7 517.472 192.84 516.912 193.12C516.365 193.387 516.092 193.76 516.092 194.24C516.092 194.733 516.332 195.1 516.812 195.34C517.292 195.58 518.252 195.853 519.692 196.16C522.598 196.747 524.658 197.54 525.872 198.54C527.085 199.527 527.692 200.913 527.692 202.7C527.692 204.087 527.312 205.293 526.552 206.32C525.805 207.347 524.758 208.147 523.412 208.72C522.078 209.28 520.518 209.56 518.732 209.56ZM544.889 209L538.789 188.6H545.129L548.429 201.46L552.229 188.6H558.269L561.929 201.46L565.189 188.6H571.289L565.189 209H558.669L555.129 196.62L551.409 209H544.889ZM583.778 209.6C581.538 209.6 579.572 209.153 577.878 208.26C576.185 207.353 574.865 206.093 573.918 204.48C572.972 202.853 572.498 200.953 572.498 198.78C572.498 197.207 572.772 195.76 573.318 194.44C573.878 193.12 574.652 191.98 575.638 191.02C576.638 190.06 577.812 189.32 579.158 188.8C580.518 188.267 582.012 188 583.638 188C585.425 188 587.018 188.32 588.418 188.96C589.818 189.587 590.972 190.467 591.878 191.6C592.798 192.72 593.432 194.047 593.778 195.58C594.125 197.1 594.138 198.753 593.818 200.54H578.498C578.512 201.34 578.752 202.04 579.218 202.64C579.685 203.24 580.325 203.713 581.138 204.06C581.952 204.393 582.898 204.56 583.978 204.56C585.178 204.56 586.318 204.407 587.398 204.1C588.478 203.78 589.512 203.293 590.498 202.64L592.558 207.08C591.932 207.56 591.118 207.993 590.118 208.38C589.132 208.753 588.078 209.047 586.958 209.26C585.852 209.487 584.792 209.6 583.778 209.6ZM578.898 196.12H587.578C587.552 195.093 587.172 194.273 586.438 193.66C585.705 193.047 584.712 192.74 583.458 192.74C582.192 192.74 581.138 193.047 580.298 193.66C579.472 194.273 579.005 195.093 578.898 196.12ZM615.607 209.6C613.674 209.6 611.941 209.153 610.407 208.26C608.874 207.353 607.667 206.093 606.787 204.48C605.907 202.853 605.467 200.96 605.467 198.8C605.467 197.267 605.721 195.847 606.227 194.54C606.734 193.233 607.441 192.093 608.347 191.12C609.267 190.133 610.354 189.367 611.607 188.82C612.861 188.273 614.234 188 615.727 188C617.287 188 618.694 188.307 619.947 188.92C621.201 189.533 622.294 190.447 623.227 191.66L621.727 193.16V180.2H628.287V209H622.627V203.7L623.527 205.18C622.941 206.487 621.961 207.553 620.587 208.38C619.214 209.193 617.554 209.6 615.607 209.6ZM616.827 203.96C617.761 203.96 618.601 203.753 619.347 203.34C620.094 202.913 620.681 202.313 621.107 201.54C621.534 200.767 621.747 199.853 621.747 198.8C621.747 197.733 621.534 196.82 621.107 196.06C620.694 195.287 620.114 194.693 619.367 194.28C618.621 193.853 617.774 193.64 616.827 193.64C615.881 193.64 615.034 193.853 614.287 194.28C613.541 194.693 612.954 195.287 612.527 196.06C612.101 196.82 611.887 197.733 611.887 198.8C611.887 199.853 612.101 200.767 612.527 201.54C612.967 202.313 613.561 202.913 614.307 203.34C615.054 203.753 615.894 203.96 616.827 203.96ZM633.728 209V188.6H640.288V209H633.728ZM637.008 185.58C635.954 185.58 635.034 185.253 634.248 184.6C633.474 183.933 633.088 183.04 633.088 181.92C633.088 180.8 633.474 179.913 634.248 179.26C635.034 178.607 635.954 178.28 637.008 178.28C638.074 178.28 638.994 178.607 639.768 179.26C640.541 179.913 640.928 180.8 640.928 181.92C640.928 183.04 640.541 183.933 639.768 184.6C638.994 185.253 638.074 185.58 637.008 185.58ZM654.279 209.6C652.346 209.6 650.612 209.153 649.079 208.26C647.546 207.353 646.339 206.093 645.459 204.48C644.579 202.853 644.139 200.96 644.139 198.8C644.139 197.267 644.392 195.847 644.899 194.54C645.406 193.233 646.112 192.093 647.019 191.12C647.939 190.133 649.026 189.367 650.279 188.82C651.532 188.273 652.906 188 654.399 188C655.959 188 657.366 188.307 658.619 188.92C659.872 189.533 660.966 190.447 661.899 191.66L660.399 193.16V180.2H666.959V209H661.299V203.7L662.199 205.18C661.612 206.487 660.632 207.553 659.259 208.38C657.886 209.193 656.226 209.6 654.279 209.6ZM655.499 203.96C656.432 203.96 657.272 203.753 658.019 203.34C658.766 202.913 659.352 202.313 659.779 201.54C660.206 200.767 660.419 199.853 660.419 198.8C660.419 197.733 660.206 196.82 659.779 196.06C659.366 195.287 658.786 194.693 658.039 194.28C657.292 193.853 656.446 193.64 655.499 193.64C654.552 193.64 653.706 193.853 652.959 194.28C652.212 194.693 651.626 195.287 651.199 196.06C650.772 196.82 650.559 197.733 650.559 198.8C650.559 199.853 650.772 200.767 651.199 201.54C651.639 202.313 652.232 202.913 652.979 203.34C653.726 203.753 654.566 203.96 655.499 203.96ZM672.4 209V188.6H678.96V190.76C679.72 189.8 680.62 189.1 681.66 188.66C682.7 188.22 683.793 188 684.94 188C686.86 188 688.44 188.38 689.68 189.14C690.92 189.887 691.833 190.86 692.42 192.06C693.02 193.247 693.32 194.507 693.32 195.84V209H686.76V197.9C686.76 196.673 686.433 195.707 685.78 195C685.14 194.293 684.193 193.94 682.94 193.94C682.14 193.94 681.44 194.113 680.84 194.46C680.253 194.807 679.793 195.3 679.46 195.94C679.126 196.567 678.96 197.287 678.96 198.1V209H672.4ZM698.361 194.88L696.421 192.18C697.581 191.673 698.614 191.04 699.521 190.28C700.441 189.52 701.108 188.76 701.521 188C700.734 188.04 700.008 187.92 699.341 187.64C698.688 187.36 698.161 186.947 697.761 186.4C697.374 185.853 697.181 185.207 697.181 184.46C697.181 183.3 697.548 182.367 698.281 181.66C699.028 180.94 699.974 180.58 701.121 180.58C702.414 180.58 703.468 181.02 704.281 181.9C705.108 182.767 705.521 183.927 705.521 185.38C705.521 186.513 705.254 187.633 704.721 188.74C704.201 189.847 703.414 190.92 702.361 191.96C701.308 192.987 699.974 193.96 698.361 194.88ZM719.036 209.6C716.769 209.6 714.989 208.967 713.696 207.7C712.403 206.42 711.756 204.513 711.756 201.98V182.76H718.316V188.6H723.096V193.8H718.316V200.84C718.316 201.933 718.556 202.7 719.036 203.14C719.516 203.58 720.136 203.8 720.896 203.8C721.309 203.8 721.716 203.753 722.116 203.66C722.529 203.553 722.909 203.4 723.256 203.2L724.096 208.34C723.469 208.687 722.716 208.98 721.836 209.22C720.956 209.473 720.023 209.6 719.036 209.6ZM707.796 193.8V188.6H712.356V193.8H707.796ZM746.923 209.6C744.763 209.6 742.83 209.133 741.123 208.2C739.43 207.253 738.09 205.967 737.103 204.34C736.117 202.7 735.623 200.853 735.623 198.8C735.623 197.253 735.91 195.827 736.483 194.52C737.07 193.213 737.89 192.073 738.943 191.1C739.997 190.113 741.223 189.353 742.623 188.82C744.023 188.273 745.543 188 747.183 188C748.73 188 750.163 188.213 751.483 188.64C752.803 189.053 753.99 189.68 755.043 190.52L752.163 195.38C751.51 194.78 750.79 194.34 750.003 194.06C749.23 193.78 748.417 193.64 747.563 193.64C746.443 193.64 745.477 193.84 744.663 194.24C743.85 194.64 743.223 195.227 742.783 196C742.357 196.773 742.143 197.7 742.143 198.78C742.143 200.407 742.623 201.68 743.583 202.6C744.557 203.507 745.89 203.96 747.583 203.96C748.543 203.96 749.443 203.787 750.283 203.44C751.137 203.08 751.917 202.56 752.623 201.88L755.283 206.84C754.137 207.693 752.823 208.367 751.343 208.86C749.877 209.353 748.403 209.6 746.923 209.6ZM768.038 209.6C765.811 209.6 763.845 209.113 762.138 208.14C760.431 207.153 759.091 205.84 758.118 204.2C757.158 202.56 756.678 200.76 756.678 198.8C756.678 197.373 756.951 196.013 757.498 194.72C758.058 193.413 758.845 192.26 759.858 191.26C760.871 190.247 762.071 189.453 763.458 188.88C764.845 188.293 766.371 188 768.038 188C770.265 188 772.231 188.493 773.938 189.48C775.645 190.453 776.978 191.76 777.938 193.4C778.898 195.04 779.378 196.84 779.378 198.8C779.378 200.227 779.105 201.593 778.558 202.9C778.011 204.193 777.231 205.34 776.218 206.34C775.205 207.34 774.005 208.133 772.618 208.72C771.231 209.307 769.705 209.6 768.038 209.6ZM768.038 203.96C768.971 203.96 769.811 203.753 770.558 203.34C771.305 202.913 771.891 202.313 772.318 201.54C772.745 200.767 772.958 199.853 772.958 198.8C772.958 197.733 772.745 196.82 772.318 196.06C771.905 195.287 771.325 194.693 770.578 194.28C769.831 193.853 768.985 193.64 768.038 193.64C767.091 193.64 766.245 193.853 765.498 194.28C764.751 194.693 764.165 195.287 763.738 196.06C763.311 196.82 763.098 197.733 763.098 198.8C763.098 199.853 763.311 200.767 763.738 201.54C764.178 202.313 764.771 202.913 765.518 203.34C766.265 203.753 767.105 203.96 768.038 203.96ZM787.825 209L780.625 188.6H787.665L792.005 203.34H791.285L795.525 188.6H802.405L795.465 209H787.825ZM814.911 209.6C812.671 209.6 810.705 209.153 809.011 208.26C807.318 207.353 805.998 206.093 805.051 204.48C804.105 202.853 803.631 200.953 803.631 198.78C803.631 197.207 803.905 195.76 804.451 194.44C805.011 193.12 805.785 191.98 806.771 191.02C807.771 190.06 808.945 189.32 810.291 188.8C811.651 188.267 813.145 188 814.771 188C816.558 188 818.151 188.32 819.551 188.96C820.951 189.587 822.105 190.467 823.011 191.6C823.931 192.72 824.565 194.047 824.911 195.58C825.258 197.1 825.271 198.753 824.951 200.54H809.631C809.645 201.34 809.885 202.04 810.351 202.64C810.818 203.24 811.458 203.713 812.271 204.06C813.085 204.393 814.031 204.56 815.111 204.56C816.311 204.56 817.451 204.407 818.531 204.1C819.611 203.78 820.645 203.293 821.631 202.64L823.691 207.08C823.065 207.56 822.251 207.993 821.251 208.38C820.265 208.753 819.211 209.047 818.091 209.26C816.985 209.487 815.925 209.6 814.911 209.6ZM810.031 196.12H818.711C818.685 195.093 818.305 194.273 817.571 193.66C816.838 193.047 815.845 192.74 814.591 192.74C813.325 192.74 812.271 193.047 811.431 193.66C810.605 194.273 810.138 195.093 810.031 196.12ZM829.001 209V188.6H835.561V190.98C836.175 189.927 836.988 189.16 838.001 188.68C839.015 188.2 840.115 187.96 841.301 187.96C841.755 187.96 842.161 187.987 842.521 188.04C842.881 188.093 843.235 188.153 843.581 188.22L842.801 194.96C842.348 194.8 841.868 194.673 841.361 194.58C840.855 194.473 840.348 194.42 839.841 194.42C838.601 194.42 837.575 194.78 836.761 195.5C835.961 196.207 835.561 197.247 835.561 198.62V209H829.001ZM850.276 199.24C849.902 197.88 849.769 196.767 849.876 195.9C849.982 195.02 850.269 194.293 850.736 193.72C851.216 193.147 851.822 192.62 852.556 192.14C853.636 191.42 854.369 190.84 854.756 190.4C855.142 189.96 855.336 189.447 855.336 188.86C855.336 188.047 855.042 187.44 854.456 187.04C853.869 186.64 852.982 186.44 851.796 186.44C850.836 186.44 849.962 186.58 849.176 186.86C848.389 187.14 847.569 187.527 846.716 188.02L845.376 182.68C845.669 182.387 846.202 182.067 846.976 181.72C847.762 181.36 848.716 181.053 849.836 180.8C850.969 180.533 852.189 180.4 853.496 180.4C855.269 180.4 856.862 180.693 858.276 181.28C859.702 181.853 860.829 182.667 861.656 183.72C862.496 184.773 862.916 186 862.916 187.4C862.916 188.253 862.762 189.02 862.456 189.7C862.149 190.38 861.656 191.053 860.976 191.72C860.296 192.373 859.402 193.08 858.296 193.84C857.549 194.36 857.009 194.84 856.676 195.28C856.342 195.72 856.149 196.247 856.096 196.86C856.056 197.46 856.096 198.253 856.216 199.24H850.276ZM853.356 209.6C852.262 209.6 851.309 209.253 850.496 208.56C849.696 207.867 849.296 206.927 849.296 205.74C849.296 204.94 849.476 204.253 849.836 203.68C850.209 203.107 850.702 202.66 851.316 202.34C851.942 202.02 852.622 201.86 853.356 201.86C854.462 201.86 855.416 202.207 856.216 202.9C857.016 203.593 857.416 204.54 857.416 205.74C857.416 206.54 857.229 207.227 856.856 207.8C856.482 208.373 855.989 208.813 855.376 209.12C854.762 209.44 854.089 209.6 853.356 209.6Z" fill="#025949"/>
<path d="M884.26 228.26L880.12 218.9C894.88 212.78 902.98 203.6 902.98 190.1L899.56 174.8L909.28 188.48C906.76 191.72 903.16 192.62 899.74 192.62C892.36 192.62 886.24 188.3 886.24 179.66C886.24 171.2 892.72 166.7 899.92 166.7C910 166.7 915.4 174.98 915.4 187.58C915.4 207.02 903.16 221.78 884.26 228.26Z" fill="#F25C78"/>
<path d="M923.26 228.26L919.12 218.9C933.88 212.78 941.98 203.6 941.98 190.1L938.56 174.8L948.28 188.48C945.76 191.72 942.16 192.62 938.74 192.62C931.36 192.62 925.24 188.3 925.24 179.66C925.24 171.2 931.72 166.7 938.92 166.7C949 166.7 954.4 174.98 954.4 187.58C954.4 207.02 942.16 221.78 923.26 228.26Z" fill="#F25C78"/>
<path d="M190.74 167.74L194.88 177.1C180.12 183.22 172.02 192.4 172.02 205.9L175.44 221.2L165.72 207.52C168.24 204.28 171.84 203.38 175.26 203.38C182.64 203.38 188.76 207.7 188.76 216.34C188.76 224.8 182.28 229.3 175.08 229.3C165 229.3 159.6 221.02 159.6 208.42C159.6 188.98 171.84 174.22 190.74 167.74Z" fill="#F25C78"/>
<path d="M151.74 167.74L155.88 177.1C141.12 183.22 133.02 192.4 133.02 205.9L136.44 221.2L126.72 207.52C129.24 204.28 132.84 203.38 136.26 203.38C143.64 203.38 149.76 207.7 149.76 216.34C149.76 224.8 143.28 229.3 136.08 229.3C126 229.3 120.6 221.02 120.6 208.42C120.6 188.98 132.84 174.22 151.74 167.74Z" fill="#F25C78"/>
</svg>
