<svg width="183" height="183" viewBox="0 0 183 183" fill="none" xmlns="http://www.w3.org/2000/svg">
<path d="M28.5938 28.5938V74.3438H40.0312V85.7812H51.4688V74.3438H74.3438V28.5938H28.5938ZM74.3438 74.3438V85.7812H85.7812V97.2188H62.9062V108.656H28.5938V154.406H74.3438V108.656H108.656V97.2188H97.2188V85.7812H120.094V74.3438H131.531V85.7812H142.969V74.3438H154.406V28.5938H108.656V74.3438H74.3438ZM142.969 85.7812V97.2188H154.406V85.7812H142.969ZM142.969 97.2188H131.531V108.656H142.969V97.2188ZM142.969 108.656V120.094H154.406V108.656H142.969ZM142.969 120.094H131.531V108.656H120.094V120.094H91.5V154.406H102.938V131.531H125.812V142.969H137.25V131.531H142.969V120.094ZM125.812 142.969H114.375V154.406H125.812V142.969ZM131.531 97.2188V85.7812H120.094V97.2188H131.531ZM62.9062 97.2188V85.7812H51.4688V97.2188H62.9062ZM40.0312 85.7812H28.5938V97.2188H40.0312V85.7812ZM85.7812 28.5938V51.4688H80.0625V62.9062H85.7812V68.625H97.2188V51.4688H102.938V40.0312H97.2188V28.5938H85.7812ZM40.0312 40.0312H62.9062V62.9062H40.0312V40.0312ZM120.094 40.0312H142.969V62.9062H120.094V40.0312ZM45.75 45.75V57.1875H57.1875V45.75H45.75ZM125.812 45.75V57.1875H137.25V45.75H125.812ZM40.0312 120.094H62.9062V142.969H40.0312V120.094ZM45.75 125.812V137.25H57.1875V125.812H45.75ZM142.969 142.969V154.406H154.406V142.969H142.969Z" fill="#025949"/>
</svg>
