<svg width="356" height="74" viewBox="0 0 356 74" fill="none" xmlns="http://www.w3.org/2000/svg">
<path d="M36.36 12.52C36.9467 13.5333 37.4533 14.5733 37.88 15.64C38.3067 16.6533 38.4667 17.7733 38.36 19C38.3067 19.8533 38.28 20.7067 38.28 21.56C38.28 22.4133 38.3067 23.2667 38.36 24.12C38.52 25.2933 38.4667 26.4667 38.2 27.64C37.9867 28.76 37.5333 29.7733 36.84 30.68C36.3067 31.64 35.64 32.52 34.84 33.32C34.04 34.12 33.24 34.8933 32.44 35.64C31.48 36.4933 30.44 37.16 29.32 37.64C28.2533 38.0667 27.1067 38.4667 25.88 38.84H30.44C31.6667 38.84 32.3867 39 32.6 39.32C32.8667 39.5867 33.0533 40.3333 33.16 41.56C33.5333 46.0933 33.6667 50.6267 33.56 55.16C33.4533 59.6933 33.4533 64.2267 33.56 68.76V72.04C33.0267 72.1467 32.52 72.28 32.04 72.44C31.56 72.6 31.1067 72.68 30.68 72.68C29.5067 72.7333 28.36 72.7333 27.24 72.68C26.1733 72.68 25.08 72.68 23.96 72.68C23.16 72.68 22.6267 72.5467 22.36 72.28C22.0933 72.0667 21.8267 71.5867 21.56 70.84C21.1867 69.4533 21 68.0933 21 66.76C21 65.4267 20.9467 64.0933 20.84 62.76C20.68 60.9467 20.5467 59.1067 20.44 57.24C20.3867 55.3733 20.3067 53.5333 20.2 51.72C20.1467 50.7067 20.0933 49.7467 20.04 48.84C20.04 47.88 19.9867 46.9467 19.88 46.04C19.8267 45.1333 20.2 44.44 21 43.96C20.6267 43.48 20.3067 43.0267 20.04 42.6C19.7733 42.1733 19.9333 41.6133 20.52 40.92C20.7867 40.5467 20.8933 40.0667 20.84 39.48C20.84 38.84 20.8133 38.2533 20.76 37.72C20.7067 36.4933 20.6 35.32 20.44 34.2C20.3333 33.0267 20.2533 31.8533 20.2 30.68C20.1467 27.64 20.0933 24.6 20.04 21.56C20.04 18.4667 19.9867 15.3733 19.88 12.28C19.88 11.64 19.9067 11 19.96 10.36C20.0667 9.66667 20.12 8.97333 20.12 8.28C20.12 7.53333 20.04 6.73333 19.88 5.88C19.72 4.76 20.1733 4.06666 21.24 3.8C21.88 3.69333 22.4933 3.61333 23.08 3.56C23.6667 3.50666 24.2533 3.66666 24.84 4.04C25.0533 4.2 25.2933 4.30666 25.56 4.36C25.8267 4.41333 26.04 4.46666 26.2 4.52C26.2 4.52 26.28 4.57333 26.44 4.68C26.6533 4.73333 27.0267 5 27.56 5.48C31.3467 6.81333 34.28 9.16 36.36 12.52ZM18.84 41.88C18.84 43.4267 18.92 44.9733 19.08 46.52C19.24 48.0133 19.2133 49.5333 19 51.08C18.7867 52.4667 18.76 53.8533 18.92 55.24C19.1333 56.5733 19.16 57.9333 19 59.32C18.84 61.24 18.7333 63.1867 18.68 65.16C18.6267 67.1333 18.5467 69.1333 18.44 71.16C18.44 71.3733 18.3867 71.5867 18.28 71.8C18.1733 72.0667 18.0933 72.3333 18.04 72.6H0.2V3.64H18.44C18.5467 4.6 18.6533 5.56 18.76 6.52C18.92 7.48 19 8.44 19 9.4C19.16 12.8133 19.08 16.2267 18.76 19.64C18.6 21.3467 18.6 23.0533 18.76 24.76C18.9733 26.4667 19.08 28.1733 19.08 29.88C19.08 31.48 19.0267 33.08 18.92 34.68C18.8133 36.28 18.7333 37.8533 18.68 39.4C18.68 39.7733 18.68 40.1733 18.68 40.6C18.7333 41.0267 18.7867 41.4533 18.84 41.88ZM77.3669 32.6C77.3135 35.0533 77.2069 37.5333 77.0469 40.04C76.9402 42.5467 76.8335 45.0533 76.7269 47.56C76.6735 48.2533 76.5935 48.9733 76.4869 49.72C76.4335 50.4133 76.4069 51.1067 76.4069 51.8C76.5135 55.0533 76.4869 58.2533 76.3269 61.4C76.1669 64.4933 76.1135 67.6133 76.1669 70.76C76.2202 71.6133 76.0335 72.2 75.6069 72.52C75.2335 72.8933 74.5935 73.08 73.6869 73.08C72.6202 73.08 71.8469 73.08 71.3669 73.08C70.8869 73.08 70.4869 73.0267 70.1669 72.92C69.8469 72.8133 69.4202 72.6267 68.8869 72.36C68.6735 72.52 68.4335 72.7067 68.1669 72.92C67.9002 73.1867 67.5535 73.5333 67.1269 73.96C66.9135 73.64 66.7002 73.2933 66.4869 72.92C66.3269 72.6 66.1135 72.2533 65.8469 71.88C65.6335 72.2533 65.4202 72.52 65.2069 72.68C65.0469 72.8933 64.8869 73.1333 64.7269 73.4C64.6735 73.4 64.5669 73.4 64.4069 73.4C64.3002 73.4533 64.2202 73.4533 64.1669 73.4C63.7935 72.8667 63.3402 72.5733 62.8069 72.52C62.3269 72.4667 61.8469 72.52 61.3669 72.68C60.6735 73 60.0335 73.08 59.4469 72.92C58.8602 72.8133 58.2469 72.6267 57.6069 72.36C57.5002 71.56 57.5269 70.7333 57.6869 69.88C57.8469 69.0267 57.9802 68.1733 58.0869 67.32C58.0869 67.2133 58.0869 67.08 58.0869 66.92C58.1402 66.76 58.1402 66.6533 58.0869 66.6C57.5535 65.3733 57.3135 64.1467 57.3669 62.92C57.4735 61.6933 57.6602 60.4933 57.9269 59.32C58.0335 58.7867 58.1402 58.2533 58.2469 57.72C58.4069 57.1867 58.5402 56.6 58.6469 55.96C58.1669 55.6933 57.9002 55.2933 57.8469 54.76C57.8469 54.1733 57.8735 53.6133 57.9269 53.08C58.0869 51.8 58.1935 50.52 58.2469 49.24C58.3002 47.9067 58.3535 46.6267 58.4069 45.4C58.4602 43.4267 58.5135 41.48 58.5669 39.56C58.6202 37.64 58.6735 35.7467 58.7269 33.88C58.8335 30.4667 58.9402 27.0533 59.0469 23.64C59.1535 20.1733 59.2335 16.7333 59.2869 13.32C59.3935 11.7733 59.4469 10.2267 59.4469 8.68C59.4469 7.08 59.4735 5.53333 59.5269 4.04C59.5269 3.72 59.5535 3.45333 59.6069 3.24C59.6602 2.97333 59.7135 2.65333 59.7669 2.28C60.1402 2.28 60.5135 2.28 60.8869 2.28C61.2602 2.22666 61.6069 2.2 61.9269 2.2H74.6469C74.9135 2.2 75.2069 2.17333 75.5269 2.12C75.9002 2.06666 76.2469 2.01333 76.5669 1.96C77.7402 1.96 78.2469 2.49333 78.0869 3.56C77.8735 4.73333 77.7935 5.88 77.8469 7C77.9535 8.06666 77.9535 9.18667 77.8469 10.36C77.7402 11.32 77.6602 12.3067 77.6069 13.32C77.5535 14.28 77.4735 15.24 77.3669 16.2C77.3669 17 77.3935 17.8 77.4469 18.6C77.5535 19.3467 77.6069 20.12 77.6069 20.92C77.6069 21.2933 77.5535 21.6667 77.4469 22.04C77.3935 22.4133 77.3402 22.8133 77.2869 23.24C77.2335 23.4 77.1535 23.5867 77.0469 23.8C76.9935 23.96 76.9935 24.12 77.0469 24.28C77.4202 25.08 77.5002 25.88 77.2869 26.68C77.1269 27.4267 76.8602 28.1733 76.4869 28.92C77.1802 29.3467 77.5269 29.88 77.5269 30.52C77.5269 31.16 77.4735 31.8533 77.3669 32.6ZM88.5669 16.36C88.4602 17.8533 88.3535 19.3467 88.2469 20.84C88.1935 22.3333 88.1135 23.8 88.0069 25.24C88.0069 25.2933 87.9802 25.3467 87.9269 25.4C87.9269 25.4 87.9269 25.4533 87.9269 25.56C86.3802 25.4533 84.8069 25.4533 83.2069 25.56C81.6602 25.6667 80.0335 25.56 78.3269 25.24C78.3802 23.6933 78.4335 22.1467 78.4869 20.6C78.5402 19.0533 78.5935 17.5067 78.6469 15.96C78.7535 15.16 78.8069 14.3867 78.8069 13.64C78.8069 12.84 78.8335 12.04 78.8869 11.24C78.9935 9.90666 79.1269 8.6 79.2869 7.32C79.4469 6.04 79.5535 4.73333 79.6069 3.4C79.6069 2.6 79.9535 2.2 80.6469 2.2C82.0869 2.25333 83.5002 2.33333 84.8869 2.44C86.3269 2.49333 87.8202 2.54666 89.3669 2.59999C89.3135 4.04 89.2602 5.42666 89.2069 6.76C89.1535 8.09333 89.1002 9.4 89.0469 10.68C88.9935 11.6933 88.9135 12.68 88.8069 13.64C88.7535 14.5467 88.6735 15.4533 88.5669 16.36ZM83.8469 29.96C84.8602 30.0133 85.5269 30.2267 85.8469 30.6C86.2202 30.92 86.3535 31.6133 86.2469 32.68C86.1935 33.6933 86.1402 34.68 86.0869 35.64C86.0335 36.6 85.9802 37.5867 85.9269 38.6C85.9269 39.7733 86.0069 41 86.1669 42.28C86.2202 43.24 86.1135 43.88 85.8469 44.2C85.5802 44.52 84.9669 44.7067 84.0069 44.76C83.6869 44.8133 83.4202 44.84 83.2069 44.84C82.9935 44.7867 82.7535 44.76 82.4869 44.76C81.3135 44.8133 80.5135 44.8133 80.0869 44.76C79.6602 44.6533 79.4202 44.3867 79.3669 43.96C79.3669 43.48 79.3669 42.76 79.3669 41.8V32.6C79.4202 31.5333 79.6069 30.84 79.9269 30.52C80.2469 30.2 80.9135 30.04 81.9269 30.04C82.2469 29.9867 82.5669 29.96 82.8869 29.96C83.2602 29.96 83.5802 29.96 83.8469 29.96ZM79.0469 72.6C77.7135 72.6 77.0469 71.9067 77.0469 70.52V61C77.0469 60.3067 76.9669 59.56 76.8069 58.76C76.8069 58.6533 76.7802 58.5467 76.7269 58.44C76.7269 58.28 76.7269 58.1733 76.7269 58.12C77.1535 56.7867 77.2869 55.5067 77.1269 54.28C76.9669 53 76.9135 51.72 76.9669 50.44C77.0735 49.4267 77.2335 48.84 77.4469 48.68C77.6602 48.4667 78.2735 48.36 79.2869 48.36H87.4469C87.4469 48.84 87.4469 49.2667 87.4469 49.64C87.5002 49.96 87.5269 50.3067 87.5269 50.68C87.5269 52.2267 87.4735 53.7733 87.3669 55.32C87.3135 56.8667 87.2869 58.4133 87.2869 59.96C87.2869 61.08 87.3669 62.2 87.5269 63.32C87.7402 64.3867 87.8735 65.5067 87.9269 66.68C87.9802 67.3733 88.0069 68.12 88.0069 68.92C88.0069 69.72 88.0069 70.52 88.0069 71.32C88.0069 72.2267 87.5535 72.68 86.6469 72.68C85.3669 72.6267 84.0869 72.6 82.8069 72.6C81.5269 72.6533 80.2735 72.6533 79.0469 72.6ZM152.256 5.24C152.47 5.24 152.683 5.32 152.896 5.48C153.323 6.65333 153.35 7.77333 152.976 8.84C152.656 9.90666 152.363 10.9733 152.096 12.04C151.243 15.1333 150.416 18.2 149.616 21.24C148.816 24.28 148.016 27.2933 147.216 30.28C146.63 32.2533 146.043 34.2267 145.456 36.2C144.923 38.1733 144.39 40.1467 143.856 42.12C143.323 44.3067 142.79 46.5467 142.256 48.84C141.723 51.08 141.19 53.2933 140.656 55.48C140.123 57.6133 139.59 59.7467 139.056 61.88C138.576 63.96 138.07 66.0133 137.536 68.04C137.43 68.68 137.323 69.32 137.216 69.96C137.163 70.6 137.083 71.24 136.976 71.88C135.963 71.9333 135.003 71.9333 134.096 71.88C133.19 71.88 132.283 71.6933 131.376 71.32C129.616 70.5733 127.883 70.5733 126.176 71.32C125.323 71.6933 124.443 71.9067 123.536 71.96C122.63 72.0133 121.696 71.9867 120.736 71.88C120.363 70.6533 119.99 69.4267 119.616 68.2C119.296 66.9733 118.976 65.7467 118.656 64.52C118.176 63.08 117.723 61.64 117.296 60.2C116.923 58.7067 116.523 57.2133 116.096 55.72C115.243 52.52 114.363 49.3467 113.456 46.2C112.603 43.0533 111.723 39.88 110.816 36.68C109.91 33.16 108.976 29.64 108.016 26.12C107.11 22.5467 106.203 19 105.296 15.48C104.923 13.88 104.496 12.3333 104.016 10.84C103.59 9.29333 103.403 7.69333 103.456 6.04C103.456 5.88 103.456 5.72 103.456 5.56C103.51 5.34667 103.536 5.18666 103.536 5.08C104.763 4.65333 105.856 4.22666 106.816 3.8C107.403 3.53333 108.016 3.4 108.656 3.4C109.35 3.4 110.016 3.34666 110.656 3.24C111.723 2.97333 112.763 2.65333 113.776 2.28C114.843 1.90666 115.883 1.58666 116.896 1.32C117.27 1.21333 117.616 1.10666 117.936 0.999996C118.31 0.893331 118.736 0.759998 119.216 0.599997C119.856 3.32 120.576 5.96 121.376 8.52C122.23 11.0267 123.03 13.6133 123.776 16.28C124.47 18.84 125.136 21.4533 125.776 24.12C126.47 26.7333 127.19 29.4533 127.936 32.28C128.363 30.4667 128.763 28.7867 129.136 27.24C129.563 25.6933 129.963 24.1733 130.336 22.68C130.71 21.1333 131.083 19.64 131.456 18.2C131.883 16.7067 132.283 15.2133 132.656 13.72C133.083 11.9067 133.51 10.0933 133.936 8.28C134.416 6.41333 134.843 4.57333 135.216 2.76C135.376 2.06666 135.803 1.72 136.496 1.72C136.763 1.72 137.03 1.72 137.296 1.72C137.563 1.72 137.803 1.77333 138.016 1.88C140.416 2.41333 142.79 2.97333 145.136 3.56C147.536 4.09333 149.91 4.65333 152.256 5.24ZM186.273 32.6C186.22 35.0533 186.113 37.5333 185.953 40.04C185.846 42.5467 185.74 45.0533 185.633 47.56C185.58 48.2533 185.5 48.9733 185.393 49.72C185.34 50.4133 185.313 51.1067 185.313 51.8C185.42 55.0533 185.393 58.2533 185.233 61.4C185.073 64.4933 185.02 67.6133 185.073 70.76C185.126 71.6133 184.94 72.2 184.513 72.52C184.14 72.8933 183.5 73.08 182.593 73.08C181.526 73.08 180.753 73.08 180.273 73.08C179.793 73.08 179.393 73.0267 179.073 72.92C178.753 72.8133 178.326 72.6267 177.793 72.36C177.58 72.52 177.34 72.7067 177.073 72.92C176.806 73.1867 176.46 73.5333 176.033 73.96C175.82 73.64 175.606 73.2933 175.393 72.92C175.233 72.6 175.02 72.2533 174.753 71.88C174.54 72.2533 174.326 72.52 174.113 72.68C173.953 72.8933 173.793 73.1333 173.633 73.4C173.58 73.4 173.473 73.4 173.313 73.4C173.206 73.4533 173.126 73.4533 173.073 73.4C172.7 72.8667 172.246 72.5733 171.713 72.52C171.233 72.4667 170.753 72.52 170.273 72.68C169.58 73 168.94 73.08 168.353 72.92C167.766 72.8133 167.153 72.6267 166.513 72.36C166.406 71.56 166.433 70.7333 166.593 69.88C166.753 69.0267 166.886 68.1733 166.993 67.32C166.993 67.2133 166.993 67.08 166.993 66.92C167.046 66.76 167.046 66.6533 166.993 66.6C166.46 65.3733 166.22 64.1467 166.273 62.92C166.38 61.6933 166.566 60.4933 166.833 59.32C166.94 58.7867 167.046 58.2533 167.153 57.72C167.313 57.1867 167.446 56.6 167.553 55.96C167.073 55.6933 166.806 55.2933 166.753 54.76C166.753 54.1733 166.78 53.6133 166.833 53.08C166.993 51.8 167.1 50.52 167.153 49.24C167.206 47.9067 167.26 46.6267 167.313 45.4C167.366 43.4267 167.42 41.48 167.473 39.56C167.526 37.64 167.58 35.7467 167.633 33.88C167.74 30.4667 167.846 27.0533 167.953 23.64C168.06 20.1733 168.14 16.7333 168.193 13.32C168.3 11.7733 168.353 10.2267 168.353 8.68C168.353 7.08 168.38 5.53333 168.433 4.04C168.433 3.72 168.46 3.45333 168.513 3.24C168.566 2.97333 168.62 2.65333 168.673 2.28C169.046 2.28 169.42 2.28 169.793 2.28C170.166 2.22666 170.513 2.2 170.833 2.2H183.553C183.82 2.2 184.113 2.17333 184.433 2.12C184.806 2.06666 185.153 2.01333 185.473 1.96C186.646 1.96 187.153 2.49333 186.993 3.56C186.78 4.73333 186.7 5.88 186.753 7C186.86 8.06666 186.86 9.18667 186.753 10.36C186.646 11.32 186.566 12.3067 186.513 13.32C186.46 14.28 186.38 15.24 186.273 16.2C186.273 17 186.3 17.8 186.353 18.6C186.46 19.3467 186.513 20.12 186.513 20.92C186.513 21.2933 186.46 21.6667 186.353 22.04C186.3 22.4133 186.246 22.8133 186.193 23.24C186.14 23.4 186.06 23.5867 185.953 23.8C185.9 23.96 185.9 24.12 185.953 24.28C186.326 25.08 186.406 25.88 186.193 26.68C186.033 27.4267 185.766 28.1733 185.393 28.92C186.086 29.3467 186.433 29.88 186.433 30.52C186.433 31.16 186.38 31.8533 186.273 32.6ZM197.473 16.36C197.366 17.8533 197.26 19.3467 197.153 20.84C197.1 22.3333 197.02 23.8 196.913 25.24C196.913 25.2933 196.886 25.3467 196.833 25.4C196.833 25.4 196.833 25.4533 196.833 25.56C195.286 25.4533 193.713 25.4533 192.113 25.56C190.566 25.6667 188.94 25.56 187.233 25.24C187.286 23.6933 187.34 22.1467 187.393 20.6C187.446 19.0533 187.5 17.5067 187.553 15.96C187.66 15.16 187.713 14.3867 187.713 13.64C187.713 12.84 187.74 12.04 187.793 11.24C187.9 9.90666 188.033 8.6 188.193 7.32C188.353 6.04 188.46 4.73333 188.513 3.4C188.513 2.6 188.86 2.2 189.553 2.2C190.993 2.25333 192.406 2.33333 193.793 2.44C195.233 2.49333 196.726 2.54666 198.273 2.59999C198.22 4.04 198.166 5.42666 198.113 6.76C198.06 8.09333 198.006 9.4 197.953 10.68C197.9 11.6933 197.82 12.68 197.713 13.64C197.66 14.5467 197.58 15.4533 197.473 16.36ZM192.753 29.96C193.766 30.0133 194.433 30.2267 194.753 30.6C195.126 30.92 195.26 31.6133 195.153 32.68C195.1 33.6933 195.046 34.68 194.993 35.64C194.94 36.6 194.886 37.5867 194.833 38.6C194.833 39.7733 194.913 41 195.073 42.28C195.126 43.24 195.02 43.88 194.753 44.2C194.486 44.52 193.873 44.7067 192.913 44.76C192.593 44.8133 192.326 44.84 192.113 44.84C191.9 44.7867 191.66 44.76 191.393 44.76C190.22 44.8133 189.42 44.8133 188.993 44.76C188.566 44.6533 188.326 44.3867 188.273 43.96C188.273 43.48 188.273 42.76 188.273 41.8V32.6C188.326 31.5333 188.513 30.84 188.833 30.52C189.153 30.2 189.82 30.04 190.833 30.04C191.153 29.9867 191.473 29.96 191.793 29.96C192.166 29.96 192.486 29.96 192.753 29.96ZM187.953 72.6C186.62 72.6 185.953 71.9067 185.953 70.52V61C185.953 60.3067 185.873 59.56 185.713 58.76C185.713 58.6533 185.686 58.5467 185.633 58.44C185.633 58.28 185.633 58.1733 185.633 58.12C186.06 56.7867 186.193 55.5067 186.033 54.28C185.873 53 185.82 51.72 185.873 50.44C185.98 49.4267 186.14 48.84 186.353 48.68C186.566 48.4667 187.18 48.36 188.193 48.36H196.353C196.353 48.84 196.353 49.2667 196.353 49.64C196.406 49.96 196.433 50.3067 196.433 50.68C196.433 52.2267 196.38 53.7733 196.273 55.32C196.22 56.8667 196.193 58.4133 196.193 59.96C196.193 61.08 196.273 62.2 196.433 63.32C196.646 64.3867 196.78 65.5067 196.833 66.68C196.886 67.3733 196.913 68.12 196.913 68.92C196.913 69.72 196.913 70.52 196.913 71.32C196.913 72.2267 196.46 72.68 195.553 72.68C194.273 72.6267 192.993 72.6 191.713 72.6C190.433 72.6533 189.18 72.6533 187.953 72.6ZM249.643 69.08C248.309 68.9733 246.949 69 245.563 69.16C244.229 69.3733 242.923 69.4 241.643 69.24C240.896 69.24 240.389 68.8933 240.123 68.2C238.896 65.2133 237.616 62.2533 236.283 59.32C235.003 56.3867 233.669 53.4533 232.283 50.52C232.176 53.6133 232.043 56.7067 231.883 59.8C231.776 62.84 231.669 65.9333 231.563 69.08C231.189 69.08 230.843 69.1067 230.523 69.16C230.256 69.2133 229.989 69.24 229.723 69.24H218.363C217.403 69.24 216.816 69.1333 216.603 68.92C216.443 68.7067 216.363 68.0933 216.363 67.08V5.8H231.563C233.003 9.21333 234.443 12.68 235.883 16.2C237.323 19.6667 238.789 23.16 240.283 26.68H240.603V8.04C240.603 6.92 240.709 6.28 240.923 6.12C241.136 5.90666 241.803 5.8 242.923 5.8C246.976 5.8 251.003 5.72 255.003 5.56H257.323V68.68C257.109 68.68 256.843 68.68 256.523 68.68C256.256 68.7333 255.963 68.76 255.643 68.76C254.683 68.8133 253.669 68.8933 252.603 69C251.589 69.16 250.603 69.1867 249.643 69.08ZM274.417 62.84C274.204 62.1467 274.124 61.4 274.177 60.6C274.284 59.7467 274.284 58.9467 274.177 58.2V3.96C274.444 3.90666 274.657 3.85333 274.817 3.8C274.977 3.74667 275.137 3.72 275.297 3.72C277.164 3.61333 279.03 3.53333 280.897 3.48C282.764 3.42666 284.604 3.37333 286.417 3.31999C287.004 3.31999 287.404 3.42666 287.617 3.64C287.884 3.85333 288.017 4.25333 288.017 4.84C288.07 5.48 288.07 6.12 288.017 6.76C288.017 7.4 288.017 8.06666 288.017 8.76C288.017 15.2667 287.99 21.7733 287.937 28.28C287.937 34.7333 287.937 41.2133 287.937 47.72V56.36H290.737C291.59 54.2267 291.777 51.9867 291.297 49.64C291.244 49.3733 291.19 49.1067 291.137 48.84C291.137 48.52 291.164 48.2267 291.217 47.96C291.27 47.4267 291.297 46.8933 291.297 46.36C291.35 45.7733 291.51 45.24 291.777 44.76C292.097 44.1733 292.07 43.6933 291.697 43.32C291.324 42.8933 291.244 42.4133 291.457 41.88C291.617 41.4 291.67 40.8933 291.617 40.36C291.564 39.8267 291.537 39.2933 291.537 38.76C291.644 36.7867 291.75 34.84 291.857 32.92C291.964 30.9467 292.044 28.9733 292.097 27C292.257 23.48 292.337 19.96 292.337 16.44C292.39 14.4133 292.444 12.3867 292.497 10.36C292.55 8.28 292.604 6.22666 292.657 4.2C292.657 3.93333 292.684 3.69333 292.737 3.48C292.844 3.26666 292.924 3.02666 292.977 2.76C295.164 2.49333 297.324 2.44 299.457 2.59999C301.644 2.76 303.83 2.6 306.017 2.12C306.55 2.49333 306.79 2.89333 306.737 3.31999C306.737 3.74666 306.71 4.25333 306.657 4.84C306.55 6.01333 306.497 7.16 306.497 8.28C306.497 9.4 306.497 10.5467 306.497 11.72C306.444 13.16 306.39 14.6533 306.337 16.2C306.337 17.6933 306.284 19.1867 306.177 20.68C306.124 21.4267 306.097 22.2 306.097 23C306.15 23.8 306.177 24.6 306.177 25.4C306.284 27.16 306.284 28.8133 306.177 30.36C306.124 32.0133 306.044 33.6667 305.937 35.32C305.884 36.9733 305.804 38.6267 305.697 40.28C305.59 42.7333 305.51 45.1867 305.457 47.64C305.404 50.04 305.35 52.4933 305.297 55C305.244 55.6933 305.244 56.4133 305.297 57.16C305.404 57.8533 305.404 58.5733 305.297 59.32C304.924 61.9333 304.044 64.1733 302.657 66.04C301.324 67.9067 299.51 69.5333 297.217 70.92C295.297 72.04 293.297 72.6267 291.217 72.68C289.137 72.7867 287.084 72.7333 285.057 72.52C283.564 72.2533 282.15 71.6667 280.817 70.76C279.484 69.8533 278.284 68.76 277.217 67.48C276.684 66.7867 276.15 66.0667 275.617 65.32C275.084 64.52 274.684 63.6933 274.417 62.84ZM343.304 32.6C343.251 35.0533 343.144 37.5333 342.984 40.04C342.878 42.5467 342.771 45.0533 342.664 47.56C342.611 48.2533 342.531 48.9733 342.424 49.72C342.371 50.4133 342.344 51.1067 342.344 51.8C342.451 55.0533 342.424 58.2533 342.264 61.4C342.104 64.4933 342.051 67.6133 342.104 70.76C342.158 71.6133 341.971 72.2 341.544 72.52C341.171 72.8933 340.531 73.08 339.624 73.08C338.558 73.08 337.784 73.08 337.304 73.08C336.824 73.08 336.424 73.0267 336.104 72.92C335.784 72.8133 335.358 72.6267 334.824 72.36C334.611 72.52 334.371 72.7067 334.104 72.92C333.838 73.1867 333.491 73.5333 333.064 73.96C332.851 73.64 332.638 73.2933 332.424 72.92C332.264 72.6 332.051 72.2533 331.784 71.88C331.571 72.2533 331.358 72.52 331.144 72.68C330.984 72.8933 330.824 73.1333 330.664 73.4C330.611 73.4 330.504 73.4 330.344 73.4C330.238 73.4533 330.158 73.4533 330.104 73.4C329.731 72.8667 329.278 72.5733 328.744 72.52C328.264 72.4667 327.784 72.52 327.304 72.68C326.611 73 325.971 73.08 325.384 72.92C324.798 72.8133 324.184 72.6267 323.544 72.36C323.438 71.56 323.464 70.7333 323.624 69.88C323.784 69.0267 323.918 68.1733 324.024 67.32C324.024 67.2133 324.024 67.08 324.024 66.92C324.078 66.76 324.078 66.6533 324.024 66.6C323.491 65.3733 323.251 64.1467 323.304 62.92C323.411 61.6933 323.598 60.4933 323.864 59.32C323.971 58.7867 324.078 58.2533 324.184 57.72C324.344 57.1867 324.478 56.6 324.584 55.96C324.104 55.6933 323.838 55.2933 323.784 54.76C323.784 54.1733 323.811 53.6133 323.864 53.08C324.024 51.8 324.131 50.52 324.184 49.24C324.238 47.9067 324.291 46.6267 324.344 45.4C324.398 43.4267 324.451 41.48 324.504 39.56C324.558 37.64 324.611 35.7467 324.664 33.88C324.771 30.4667 324.878 27.0533 324.984 23.64C325.091 20.1733 325.171 16.7333 325.224 13.32C325.331 11.7733 325.384 10.2267 325.384 8.68C325.384 7.08 325.411 5.53333 325.464 4.04C325.464 3.72 325.491 3.45333 325.544 3.24C325.598 2.97333 325.651 2.65333 325.704 2.28C326.078 2.28 326.451 2.28 326.824 2.28C327.198 2.22666 327.544 2.2 327.864 2.2H340.584C340.851 2.2 341.144 2.17333 341.464 2.12C341.838 2.06666 342.184 2.01333 342.504 1.96C343.678 1.96 344.184 2.49333 344.024 3.56C343.811 4.73333 343.731 5.88 343.784 7C343.891 8.06666 343.891 9.18667 343.784 10.36C343.678 11.32 343.598 12.3067 343.544 13.32C343.491 14.28 343.411 15.24 343.304 16.2C343.304 17 343.331 17.8 343.384 18.6C343.491 19.3467 343.544 20.12 343.544 20.92C343.544 21.2933 343.491 21.6667 343.384 22.04C343.331 22.4133 343.278 22.8133 343.224 23.24C343.171 23.4 343.091 23.5867 342.984 23.8C342.931 23.96 342.931 24.12 342.984 24.28C343.358 25.08 343.438 25.88 343.224 26.68C343.064 27.4267 342.798 28.1733 342.424 28.92C343.118 29.3467 343.464 29.88 343.464 30.52C343.464 31.16 343.411 31.8533 343.304 32.6ZM354.504 16.36C354.398 17.8533 354.291 19.3467 354.184 20.84C354.131 22.3333 354.051 23.8 353.944 25.24C353.944 25.2933 353.918 25.3467 353.864 25.4C353.864 25.4 353.864 25.4533 353.864 25.56C352.318 25.4533 350.744 25.4533 349.144 25.56C347.598 25.6667 345.971 25.56 344.264 25.24C344.318 23.6933 344.371 22.1467 344.424 20.6C344.478 19.0533 344.531 17.5067 344.584 15.96C344.691 15.16 344.744 14.3867 344.744 13.64C344.744 12.84 344.771 12.04 344.824 11.24C344.931 9.90666 345.064 8.6 345.224 7.32C345.384 6.04 345.491 4.73333 345.544 3.4C345.544 2.6 345.891 2.2 346.584 2.2C348.024 2.25333 349.438 2.33333 350.824 2.44C352.264 2.49333 353.758 2.54666 355.304 2.59999C355.251 4.04 355.198 5.42666 355.144 6.76C355.091 8.09333 355.038 9.4 354.984 10.68C354.931 11.6933 354.851 12.68 354.744 13.64C354.691 14.5467 354.611 15.4533 354.504 16.36ZM349.784 29.96C350.798 30.0133 351.464 30.2267 351.784 30.6C352.158 30.92 352.291 31.6133 352.184 32.68C352.131 33.6933 352.078 34.68 352.024 35.64C351.971 36.6 351.918 37.5867 351.864 38.6C351.864 39.7733 351.944 41 352.104 42.28C352.158 43.24 352.051 43.88 351.784 44.2C351.518 44.52 350.904 44.7067 349.944 44.76C349.624 44.8133 349.358 44.84 349.144 44.84C348.931 44.7867 348.691 44.76 348.424 44.76C347.251 44.8133 346.451 44.8133 346.024 44.76C345.598 44.6533 345.358 44.3867 345.304 43.96C345.304 43.48 345.304 42.76 345.304 41.8V32.6C345.358 31.5333 345.544 30.84 345.864 30.52C346.184 30.2 346.851 30.04 347.864 30.04C348.184 29.9867 348.504 29.96 348.824 29.96C349.198 29.96 349.518 29.96 349.784 29.96ZM344.984 72.6C343.651 72.6 342.984 71.9067 342.984 70.52V61C342.984 60.3067 342.904 59.56 342.744 58.76C342.744 58.6533 342.718 58.5467 342.664 58.44C342.664 58.28 342.664 58.1733 342.664 58.12C343.091 56.7867 343.224 55.5067 343.064 54.28C342.904 53 342.851 51.72 342.904 50.44C343.011 49.4267 343.171 48.84 343.384 48.68C343.598 48.4667 344.211 48.36 345.224 48.36H353.384C353.384 48.84 353.384 49.2667 353.384 49.64C353.438 49.96 353.464 50.3067 353.464 50.68C353.464 52.2267 353.411 53.7733 353.304 55.32C353.251 56.8667 353.224 58.4133 353.224 59.96C353.224 61.08 353.304 62.2 353.464 63.32C353.678 64.3867 353.811 65.5067 353.864 66.68C353.918 67.3733 353.944 68.12 353.944 68.92C353.944 69.72 353.944 70.52 353.944 71.32C353.944 72.2267 353.491 72.68 352.584 72.68C351.304 72.6267 350.024 72.6 348.744 72.6C347.464 72.6533 346.211 72.6533 344.984 72.6Z" fill="#F25C78"/>
</svg>
