<svg width="869" height="391" viewBox="0 0 869 391" fill="none" xmlns="http://www.w3.org/2000/svg">
<path d="M227.5 210.6C225.353 210.6 223.367 210.233 221.54 209.5C219.727 208.753 218.147 207.72 216.8 206.4C215.453 205.08 214.407 203.533 213.66 201.76C212.927 199.987 212.56 198.067 212.56 196C212.56 193.92 212.927 191.993 213.66 190.22C214.407 188.447 215.453 186.9 216.8 185.58C218.147 184.26 219.727 183.233 221.54 182.5C223.367 181.767 225.353 181.4 227.5 181.4C229.66 181.4 231.647 181.773 233.46 182.52C235.273 183.267 236.853 184.307 238.2 185.64C239.547 186.973 240.587 188.527 241.32 190.3C242.067 192.06 242.44 193.96 242.44 196C242.44 198.067 242.067 199.987 241.32 201.76C240.587 203.533 239.547 205.08 238.2 206.4C236.853 207.72 235.273 208.753 233.46 209.5C231.647 210.233 229.66 210.6 227.5 210.6ZM227.5 204.36C228.66 204.36 229.72 204.167 230.68 203.78C231.653 203.393 232.5 202.833 233.22 202.1C233.94 201.367 234.493 200.487 234.88 199.46C235.28 198.42 235.48 197.267 235.48 196C235.48 194.293 235.133 192.813 234.44 191.56C233.76 190.307 232.813 189.34 231.6 188.66C230.4 187.967 229.033 187.62 227.5 187.62C226.353 187.62 225.293 187.82 224.32 188.22C223.347 188.607 222.5 189.167 221.78 189.9C221.073 190.633 220.52 191.513 220.12 192.54C219.72 193.567 219.52 194.72 219.52 196C219.52 197.693 219.867 199.167 220.56 200.42C221.253 201.673 222.2 202.647 223.4 203.34C224.613 204.02 225.98 204.36 227.5 204.36ZM254.728 210.6C252.874 210.6 251.341 210.24 250.128 209.52C248.914 208.787 248.008 207.78 247.408 206.5C246.821 205.207 246.528 203.707 246.528 202V189.6H253.088V201.02C253.088 202.14 253.381 203.027 253.968 203.68C254.568 204.333 255.434 204.66 256.568 204.66C257.301 204.66 257.941 204.5 258.488 204.18C259.048 203.847 259.474 203.393 259.768 202.82C260.074 202.247 260.228 201.58 260.228 200.82V189.6H266.788V210H261.128V207.84C260.474 208.573 259.648 209.22 258.648 209.78C257.648 210.327 256.341 210.6 254.728 210.6ZM272.236 210V189.6H278.796V191.98C279.409 190.927 280.222 190.16 281.236 189.68C282.249 189.2 283.349 188.96 284.536 188.96C284.989 188.96 285.396 188.987 285.756 189.04C286.116 189.093 286.469 189.153 286.816 189.22L286.036 195.96C285.582 195.8 285.102 195.673 284.596 195.58C284.089 195.473 283.582 195.42 283.076 195.42C281.836 195.42 280.809 195.78 279.996 196.5C279.196 197.207 278.796 198.247 278.796 199.62V210H272.236ZM299.769 210V182H309.369C312.275 182 314.822 182.593 317.009 183.78C319.209 184.967 320.922 186.613 322.149 188.72C323.375 190.813 323.989 193.24 323.989 196C323.989 198.08 323.635 199.98 322.929 201.7C322.235 203.407 321.242 204.88 319.949 206.12C318.655 207.36 317.115 208.32 315.329 209C313.542 209.667 311.555 210 309.369 210H299.769ZM306.409 203.82H309.029C310.229 203.82 311.315 203.653 312.289 203.32C313.262 202.987 314.102 202.487 314.809 201.82C315.529 201.153 316.075 200.333 316.449 199.36C316.835 198.387 317.029 197.267 317.029 196C317.029 194.307 316.695 192.88 316.029 191.72C315.362 190.547 314.422 189.667 313.209 189.08C312.009 188.48 310.615 188.18 309.029 188.18H306.409V203.82ZM337.95 210.6C335.71 210.6 333.744 210.153 332.05 209.26C330.357 208.353 329.037 207.093 328.09 205.48C327.144 203.853 326.67 201.953 326.67 199.78C326.67 198.207 326.944 196.76 327.49 195.44C328.05 194.12 328.824 192.98 329.81 192.02C330.81 191.06 331.984 190.32 333.33 189.8C334.69 189.267 336.184 189 337.81 189C339.597 189 341.19 189.32 342.59 189.96C343.99 190.587 345.144 191.467 346.05 192.6C346.97 193.72 347.604 195.047 347.95 196.58C348.297 198.1 348.31 199.753 347.99 201.54H332.67C332.684 202.34 332.924 203.04 333.39 203.64C333.857 204.24 334.497 204.713 335.31 205.06C336.124 205.393 337.07 205.56 338.15 205.56C339.35 205.56 340.49 205.407 341.57 205.1C342.65 204.78 343.684 204.293 344.67 203.64L346.73 208.08C346.104 208.56 345.29 208.993 344.29 209.38C343.304 209.753 342.25 210.047 341.13 210.26C340.024 210.487 338.964 210.6 337.95 210.6ZM333.07 197.12H341.75C341.724 196.093 341.344 195.273 340.61 194.66C339.877 194.047 338.884 193.74 337.63 193.74C336.364 193.74 335.31 194.047 334.47 194.66C333.644 195.273 333.177 196.093 333.07 197.12ZM352.04 210V181.2H358.6V210H352.04ZM364.072 210V189.6H370.632V210H364.072ZM367.352 186.58C366.298 186.58 365.378 186.253 364.592 185.6C363.818 184.933 363.432 184.04 363.432 182.92C363.432 181.8 363.818 180.913 364.592 180.26C365.378 179.607 366.298 179.28 367.352 179.28C368.418 179.28 369.338 179.607 370.112 180.26C370.885 180.913 371.272 181.8 371.272 182.92C371.272 184.04 370.885 184.933 370.112 185.6C369.338 186.253 368.418 186.58 367.352 186.58ZM385.783 210.6C383.623 210.6 381.689 210.133 379.983 209.2C378.289 208.253 376.949 206.967 375.963 205.34C374.976 203.7 374.483 201.853 374.483 199.8C374.483 198.253 374.769 196.827 375.343 195.52C375.929 194.213 376.749 193.073 377.803 192.1C378.856 191.113 380.083 190.353 381.483 189.82C382.883 189.273 384.403 189 386.043 189C387.589 189 389.023 189.213 390.343 189.64C391.663 190.053 392.849 190.68 393.903 191.52L391.023 196.38C390.369 195.78 389.649 195.34 388.863 195.06C388.089 194.78 387.276 194.64 386.423 194.64C385.303 194.64 384.336 194.84 383.523 195.24C382.709 195.64 382.083 196.227 381.643 197C381.216 197.773 381.003 198.7 381.003 199.78C381.003 201.407 381.483 202.68 382.443 203.6C383.416 204.507 384.749 204.96 386.443 204.96C387.403 204.96 388.303 204.787 389.143 204.44C389.996 204.08 390.776 203.56 391.483 202.88L394.143 207.84C392.996 208.693 391.683 209.367 390.203 209.86C388.736 210.353 387.263 210.6 385.783 210.6ZM397.548 210V189.6H404.108V210H397.548ZM400.828 186.58C399.775 186.58 398.855 186.253 398.068 185.6C397.295 184.933 396.908 184.04 396.908 182.92C396.908 181.8 397.295 180.913 398.068 180.26C398.855 179.607 399.775 179.28 400.828 179.28C401.895 179.28 402.815 179.607 403.588 180.26C404.361 180.913 404.748 181.8 404.748 182.92C404.748 184.04 404.361 184.933 403.588 185.6C402.815 186.253 401.895 186.58 400.828 186.58ZM419.319 210.6C417.093 210.6 415.126 210.113 413.419 209.14C411.713 208.153 410.373 206.84 409.399 205.2C408.439 203.56 407.959 201.76 407.959 199.8C407.959 198.373 408.233 197.013 408.779 195.72C409.339 194.413 410.126 193.26 411.139 192.26C412.153 191.247 413.353 190.453 414.739 189.88C416.126 189.293 417.653 189 419.319 189C421.546 189 423.513 189.493 425.219 190.48C426.926 191.453 428.259 192.76 429.219 194.4C430.179 196.04 430.659 197.84 430.659 199.8C430.659 201.227 430.386 202.593 429.839 203.9C429.293 205.193 428.513 206.34 427.499 207.34C426.486 208.34 425.286 209.133 423.899 209.72C422.513 210.307 420.986 210.6 419.319 210.6ZM419.319 204.96C420.253 204.96 421.093 204.753 421.839 204.34C422.586 203.913 423.173 203.313 423.599 202.54C424.026 201.767 424.239 200.853 424.239 199.8C424.239 198.733 424.026 197.82 423.599 197.06C423.186 196.287 422.606 195.693 421.859 195.28C421.113 194.853 420.266 194.64 419.319 194.64C418.373 194.64 417.526 194.853 416.779 195.28C416.033 195.693 415.446 196.287 415.019 197.06C414.593 197.82 414.379 198.733 414.379 199.8C414.379 200.853 414.593 201.767 415.019 202.54C415.459 203.313 416.053 203.913 416.799 204.34C417.546 204.753 418.386 204.96 419.319 204.96ZM442.501 210.6C440.648 210.6 439.115 210.24 437.901 209.52C436.688 208.787 435.781 207.78 435.181 206.5C434.595 205.207 434.301 203.707 434.301 202V189.6H440.861V201.02C440.861 202.14 441.155 203.027 441.741 203.68C442.341 204.333 443.208 204.66 444.341 204.66C445.075 204.66 445.715 204.5 446.261 204.18C446.821 203.847 447.248 203.393 447.541 202.82C447.848 202.247 448.001 201.58 448.001 200.82V189.6H454.561V210H448.901V207.84C448.248 208.573 447.421 209.22 446.421 209.78C445.421 210.327 444.115 210.6 442.501 210.6ZM467.669 210.56C465.776 210.56 464.042 210.327 462.469 209.86C460.909 209.393 459.562 208.733 458.429 207.88L460.469 203.38C461.576 204.087 462.762 204.647 464.029 205.06C465.296 205.46 466.496 205.66 467.629 205.66C468.669 205.66 469.462 205.52 470.009 205.24C470.556 204.947 470.829 204.527 470.829 203.98C470.829 203.5 470.576 203.147 470.069 202.92C469.576 202.693 468.602 202.447 467.149 202.18C464.402 201.713 462.389 200.947 461.109 199.88C459.842 198.8 459.209 197.327 459.209 195.46C459.209 194.127 459.576 192.96 460.309 191.96C461.042 190.96 462.056 190.187 463.349 189.64C464.656 189.08 466.156 188.8 467.849 188.8C469.502 188.8 471.062 189.02 472.529 189.46C474.009 189.9 475.276 190.513 476.329 191.3L474.349 195.8C473.802 195.387 473.169 195.02 472.449 194.7C471.742 194.38 471.009 194.133 470.249 193.96C469.489 193.787 468.749 193.7 468.029 193.7C467.136 193.7 466.409 193.84 465.849 194.12C465.302 194.387 465.029 194.76 465.029 195.24C465.029 195.733 465.269 196.1 465.749 196.34C466.229 196.58 467.189 196.853 468.629 197.16C471.536 197.747 473.596 198.54 474.809 199.54C476.022 200.527 476.629 201.913 476.629 203.7C476.629 205.087 476.249 206.293 475.489 207.32C474.742 208.347 473.696 209.147 472.349 209.72C471.016 210.28 469.456 210.56 467.669 210.56ZM500.486 210.6C498.366 210.6 496.306 210.287 494.306 209.66C492.306 209.033 490.613 208.127 489.226 206.94L492.346 201.98C492.933 202.607 493.68 203.147 494.586 203.6C495.493 204.053 496.46 204.407 497.486 204.66C498.526 204.9 499.533 205.02 500.506 205.02C501.88 205.02 502.993 204.793 503.846 204.34C504.713 203.873 505.146 203.2 505.146 202.32C505.146 201.6 504.833 200.993 504.206 200.5C503.593 200.007 502.44 199.533 500.746 199.08L498.346 198.4C495.466 197.6 493.393 196.507 492.126 195.12C490.86 193.733 490.226 192.067 490.226 190.12C490.226 188.867 490.493 187.713 491.026 186.66C491.56 185.593 492.306 184.673 493.266 183.9C494.226 183.113 495.353 182.507 496.646 182.08C497.953 181.64 499.373 181.42 500.906 181.42C503.026 181.42 504.993 181.733 506.806 182.36C508.633 182.973 510.1 183.813 511.206 184.88L507.966 189.68C507.46 189.147 506.833 188.68 506.086 188.28C505.34 187.88 504.526 187.567 503.646 187.34C502.766 187.113 501.88 187 500.986 187C500.106 187 499.34 187.113 498.686 187.34C498.033 187.567 497.52 187.893 497.146 188.32C496.786 188.733 496.606 189.227 496.606 189.8C496.606 190.267 496.74 190.66 497.006 190.98C497.286 191.287 497.746 191.58 498.386 191.86C499.04 192.14 499.92 192.447 501.026 192.78L503.466 193.5C506.333 194.34 508.406 195.393 509.686 196.66C510.966 197.927 511.606 199.573 511.606 201.6C511.606 203.373 511.153 204.94 510.246 206.3C509.34 207.647 508.053 208.7 506.386 209.46C504.733 210.22 502.766 210.6 500.486 210.6ZM525.413 210.6C523.186 210.6 521.22 210.113 519.513 209.14C517.806 208.153 516.466 206.84 515.493 205.2C514.533 203.56 514.053 201.76 514.053 199.8C514.053 198.373 514.326 197.013 514.873 195.72C515.433 194.413 516.22 193.26 517.233 192.26C518.246 191.247 519.446 190.453 520.833 189.88C522.22 189.293 523.746 189 525.413 189C527.64 189 529.606 189.493 531.313 190.48C533.02 191.453 534.353 192.76 535.313 194.4C536.273 196.04 536.753 197.84 536.753 199.8C536.753 201.227 536.48 202.593 535.933 203.9C535.386 205.193 534.606 206.34 533.593 207.34C532.58 208.34 531.38 209.133 529.993 209.72C528.606 210.307 527.08 210.6 525.413 210.6ZM525.413 204.96C526.346 204.96 527.186 204.753 527.933 204.34C528.68 203.913 529.266 203.313 529.693 202.54C530.12 201.767 530.333 200.853 530.333 199.8C530.333 198.733 530.12 197.82 529.693 197.06C529.28 196.287 528.7 195.693 527.953 195.28C527.206 194.853 526.36 194.64 525.413 194.64C524.466 194.64 523.62 194.853 522.873 195.28C522.126 195.693 521.54 196.287 521.113 197.06C520.686 197.82 520.473 198.733 520.473 199.8C520.473 200.853 520.686 201.767 521.113 202.54C521.553 203.313 522.146 203.913 522.893 204.34C523.64 204.753 524.48 204.96 525.413 204.96ZM540.595 210V181.2H547.155V210H540.595ZM560.626 210.6C558.773 210.6 557.24 210.24 556.026 209.52C554.813 208.787 553.906 207.78 553.306 206.5C552.72 205.207 552.426 203.707 552.426 202V189.6H558.986V201.02C558.986 202.14 559.28 203.027 559.866 203.68C560.466 204.333 561.333 204.66 562.466 204.66C563.2 204.66 563.84 204.5 564.386 204.18C564.946 203.847 565.373 203.393 565.666 202.82C565.973 202.247 566.126 201.58 566.126 200.82V189.6H572.686V210H567.026V207.84C566.373 208.573 565.546 209.22 564.546 209.78C563.546 210.327 562.24 210.6 560.626 210.6ZM587.114 210.6C584.847 210.6 583.067 209.967 581.774 208.7C580.481 207.42 579.834 205.513 579.834 202.98V183.76H586.394V189.6H591.174V194.8H586.394V201.84C586.394 202.933 586.634 203.7 587.114 204.14C587.594 204.58 588.214 204.8 588.974 204.8C589.387 204.8 589.794 204.753 590.194 204.66C590.607 204.553 590.987 204.4 591.334 204.2L592.174 209.34C591.547 209.687 590.794 209.98 589.914 210.22C589.034 210.473 588.101 210.6 587.114 210.6ZM575.874 194.8V189.6H580.434V194.8H575.874ZM596.103 210V189.6H602.663V210H596.103ZM599.383 186.58C598.329 186.58 597.409 186.253 596.623 185.6C595.849 184.933 595.463 184.04 595.463 182.92C595.463 181.8 595.849 180.913 596.623 180.26C597.409 179.607 598.329 179.28 599.383 179.28C600.449 179.28 601.369 179.607 602.143 180.26C602.916 180.913 603.303 181.8 603.303 182.92C603.303 184.04 602.916 184.933 602.143 185.6C601.369 186.253 600.449 186.58 599.383 186.58ZM617.874 210.6C615.647 210.6 613.681 210.113 611.974 209.14C610.267 208.153 608.927 206.84 607.954 205.2C606.994 203.56 606.514 201.76 606.514 199.8C606.514 198.373 606.787 197.013 607.334 195.72C607.894 194.413 608.681 193.26 609.694 192.26C610.707 191.247 611.907 190.453 613.294 189.88C614.681 189.293 616.207 189 617.874 189C620.101 189 622.067 189.493 623.774 190.48C625.481 191.453 626.814 192.76 627.774 194.4C628.734 196.04 629.214 197.84 629.214 199.8C629.214 201.227 628.941 202.593 628.394 203.9C627.847 205.193 627.067 206.34 626.054 207.34C625.041 208.34 623.841 209.133 622.454 209.72C621.067 210.307 619.541 210.6 617.874 210.6ZM617.874 204.96C618.807 204.96 619.647 204.753 620.394 204.34C621.141 203.913 621.727 203.313 622.154 202.54C622.581 201.767 622.794 200.853 622.794 199.8C622.794 198.733 622.581 197.82 622.154 197.06C621.741 196.287 621.161 195.693 620.414 195.28C619.667 194.853 618.821 194.64 617.874 194.64C616.927 194.64 616.081 194.853 615.334 195.28C614.587 195.693 614.001 196.287 613.574 197.06C613.147 197.82 612.934 198.733 612.934 199.8C612.934 200.853 613.147 201.767 613.574 202.54C614.014 203.313 614.607 203.913 615.354 204.34C616.101 204.753 616.941 204.96 617.874 204.96ZM633.056 210V189.6H639.616V191.76C640.376 190.8 641.276 190.1 642.316 189.66C643.356 189.22 644.449 189 645.596 189C647.516 189 649.096 189.38 650.336 190.14C651.576 190.887 652.489 191.86 653.076 193.06C653.676 194.247 653.976 195.507 653.976 196.84V210H647.416V198.9C647.416 197.673 647.089 196.707 646.436 196C645.796 195.293 644.849 194.94 643.596 194.94C642.796 194.94 642.096 195.113 641.496 195.46C640.909 195.807 640.449 196.3 640.116 196.94C639.783 197.567 639.616 198.287 639.616 199.1V210H633.056Z" fill="#025949"/>
<path d="M678.26 228.26L674.12 218.9C688.88 212.78 696.98 203.6 696.98 190.1L693.56 174.8L703.28 188.48C700.76 191.72 697.16 192.62 693.74 192.62C686.36 192.62 680.24 188.3 680.24 179.66C680.24 171.2 686.72 166.7 693.92 166.7C704 166.7 709.4 174.98 709.4 187.58C709.4 207.02 697.16 221.78 678.26 228.26Z" fill="#F25C78"/>
<path d="M717.26 228.26L713.12 218.9C727.88 212.78 735.98 203.6 735.98 190.1L732.56 174.8L742.28 188.48C739.76 191.72 736.16 192.62 732.74 192.62C725.36 192.62 719.24 188.3 719.24 179.66C719.24 171.2 725.72 166.7 732.92 166.7C743 166.7 748.4 174.98 748.4 187.58C748.4 207.02 736.16 221.78 717.26 228.26Z" fill="#F25C78"/>
<path d="M190.74 162.74L194.88 172.1C180.12 178.22 172.02 187.4 172.02 200.9L175.44 216.2L165.72 202.52C168.24 199.28 171.84 198.38 175.26 198.38C182.64 198.38 188.76 202.7 188.76 211.34C188.76 219.8 182.28 224.3 175.08 224.3C165 224.3 159.6 216.02 159.6 203.42C159.6 183.98 171.84 169.22 190.74 162.74Z" fill="#F25C78"/>
<path d="M151.74 162.74L155.88 172.1C141.12 178.22 133.02 187.4 133.02 200.9L136.44 216.2L126.72 202.52C129.24 199.28 132.84 198.38 136.26 198.38C143.64 198.38 149.76 202.7 149.76 211.34C149.76 219.8 143.28 224.3 136.08 224.3C126 224.3 120.6 216.02 120.6 203.42C120.6 183.98 132.84 169.22 151.74 162.74Z" fill="#F25C78"/>
</svg>
