<svg width="1184" height="391" viewBox="0 0 1184 391" fill="none" xmlns="http://www.w3.org/2000/svg">
<path d="M227.3 211V183H233.94V204.94H245.18V211H227.3ZM258.802 211.6C256.562 211.6 254.595 211.153 252.902 210.26C251.209 209.353 249.889 208.093 248.942 206.48C247.995 204.853 247.522 202.953 247.522 200.78C247.522 199.207 247.795 197.76 248.342 196.44C248.902 195.12 249.675 193.98 250.662 193.02C251.662 192.06 252.835 191.32 254.182 190.8C255.542 190.267 257.035 190 258.662 190C260.449 190 262.042 190.32 263.442 190.96C264.842 191.587 265.995 192.467 266.902 193.6C267.822 194.72 268.455 196.047 268.802 197.58C269.149 199.1 269.162 200.753 268.842 202.54H253.522C253.535 203.34 253.775 204.04 254.242 204.64C254.709 205.24 255.349 205.713 256.162 206.06C256.975 206.393 257.922 206.56 259.002 206.56C260.202 206.56 261.342 206.407 262.422 206.1C263.502 205.78 264.535 205.293 265.522 204.64L267.582 209.08C266.955 209.56 266.142 209.993 265.142 210.38C264.155 210.753 263.102 211.047 261.982 211.26C260.875 211.487 259.815 211.6 258.802 211.6ZM253.922 198.12H262.602C262.575 197.093 262.195 196.273 261.462 195.66C260.729 195.047 259.735 194.74 258.482 194.74C257.215 194.74 256.162 195.047 255.322 195.66C254.495 196.273 254.029 197.093 253.922 198.12ZM281.677 211.6C279.41 211.6 277.63 210.967 276.337 209.7C275.043 208.42 274.397 206.513 274.397 203.98V184.76H280.957V190.6H285.737V195.8H280.957V202.84C280.957 203.933 281.197 204.7 281.677 205.14C282.157 205.58 282.777 205.8 283.537 205.8C283.95 205.8 284.357 205.753 284.757 205.66C285.17 205.553 285.55 205.4 285.897 205.2L286.737 210.34C286.11 210.687 285.357 210.98 284.477 211.22C283.597 211.473 282.663 211.6 281.677 211.6ZM270.437 195.8V190.6H274.997V195.8H270.437ZM290.845 196.88L288.905 194.18C290.065 193.673 291.099 193.04 292.005 192.28C292.925 191.52 293.592 190.76 294.005 190C293.219 190.04 292.492 189.92 291.825 189.64C291.172 189.36 290.645 188.947 290.245 188.4C289.859 187.853 289.665 187.207 289.665 186.46C289.665 185.3 290.032 184.367 290.765 183.66C291.512 182.94 292.459 182.58 293.605 182.58C294.899 182.58 295.952 183.02 296.765 183.9C297.592 184.767 298.005 185.927 298.005 187.38C298.005 188.513 297.739 189.633 297.205 190.74C296.685 191.847 295.899 192.92 294.845 193.96C293.792 194.987 292.459 195.96 290.845 196.88ZM309.419 211.56C307.526 211.56 305.792 211.327 304.219 210.86C302.659 210.393 301.312 209.733 300.179 208.88L302.219 204.38C303.326 205.087 304.512 205.647 305.779 206.06C307.046 206.46 308.246 206.66 309.379 206.66C310.419 206.66 311.212 206.52 311.759 206.24C312.306 205.947 312.579 205.527 312.579 204.98C312.579 204.5 312.326 204.147 311.819 203.92C311.326 203.693 310.352 203.447 308.899 203.18C306.152 202.713 304.139 201.947 302.859 200.88C301.592 199.8 300.959 198.327 300.959 196.46C300.959 195.127 301.326 193.96 302.059 192.96C302.792 191.96 303.806 191.187 305.099 190.64C306.406 190.08 307.906 189.8 309.599 189.8C311.252 189.8 312.812 190.02 314.279 190.46C315.759 190.9 317.026 191.513 318.079 192.3L316.099 196.8C315.552 196.387 314.919 196.02 314.199 195.7C313.492 195.38 312.759 195.133 311.999 194.96C311.239 194.787 310.499 194.7 309.779 194.7C308.886 194.7 308.159 194.84 307.599 195.12C307.052 195.387 306.779 195.76 306.779 196.24C306.779 196.733 307.019 197.1 307.499 197.34C307.979 197.58 308.939 197.853 310.379 198.16C313.286 198.747 315.346 199.54 316.559 200.54C317.772 201.527 318.379 202.913 318.379 204.7C318.379 206.087 317.999 207.293 317.239 208.32C316.492 209.347 315.446 210.147 314.099 210.72C312.766 211.28 311.206 211.56 309.419 211.56ZM332.456 211V183H338.836L349.476 200.66L346.836 200.68L356.956 183H363.316V211H356.876L356.996 191.48L358.176 191.9L350.096 205.72H345.676L337.276 191.9L338.416 191.48L338.536 211H332.456ZM377.797 211.6C375.877 211.6 374.157 211.153 372.637 210.26C371.117 209.353 369.917 208.093 369.037 206.48C368.157 204.853 367.717 202.96 367.717 200.8C367.717 199.173 367.971 197.7 368.477 196.38C368.984 195.047 369.691 193.907 370.597 192.96C371.504 192.013 372.571 191.287 373.797 190.78C375.024 190.26 376.357 190 377.797 190C379.691 190 381.304 190.413 382.637 191.24C383.971 192.053 384.924 193.14 385.497 194.5L384.597 195.92V190.6H390.237V211H384.597V205.68L385.497 207.08C384.924 208.44 383.971 209.533 382.637 210.36C381.304 211.187 379.691 211.6 377.797 211.6ZM378.917 205.96C379.824 205.96 380.637 205.753 381.357 205.34C382.091 204.913 382.671 204.313 383.097 203.54C383.524 202.767 383.737 201.853 383.737 200.8C383.737 199.733 383.524 198.82 383.097 198.06C382.671 197.287 382.091 196.693 381.357 196.28C380.637 195.853 379.824 195.64 378.917 195.64C378.011 195.64 377.197 195.853 376.477 196.28C375.757 196.693 375.184 197.287 374.757 198.06C374.331 198.82 374.117 199.733 374.117 200.8C374.117 201.853 374.331 202.767 374.757 203.54C375.184 204.313 375.757 204.913 376.477 205.34C377.197 205.753 378.011 205.96 378.917 205.96ZM395.665 211V182.2H402.225V197.36L408.365 190.6H415.965L408.825 198.84L416.605 211H408.845L404.065 203.12L402.225 205.08V211H395.665ZM429.036 211.6C426.796 211.6 424.83 211.153 423.136 210.26C421.443 209.353 420.123 208.093 419.176 206.48C418.23 204.853 417.756 202.953 417.756 200.78C417.756 199.207 418.03 197.76 418.576 196.44C419.136 195.12 419.91 193.98 420.896 193.02C421.896 192.06 423.07 191.32 424.416 190.8C425.776 190.267 427.27 190 428.896 190C430.683 190 432.276 190.32 433.676 190.96C435.076 191.587 436.23 192.467 437.136 193.6C438.056 194.72 438.69 196.047 439.036 197.58C439.383 199.1 439.396 200.753 439.076 202.54H423.756C423.77 203.34 424.01 204.04 424.476 204.64C424.943 205.24 425.583 205.713 426.396 206.06C427.21 206.393 428.156 206.56 429.236 206.56C430.436 206.56 431.576 206.407 432.656 206.1C433.736 205.78 434.77 205.293 435.756 204.64L437.816 209.08C437.19 209.56 436.376 209.993 435.376 210.38C434.39 210.753 433.336 211.047 432.216 211.26C431.11 211.487 430.05 211.6 429.036 211.6ZM424.156 198.12H432.836C432.81 197.093 432.43 196.273 431.696 195.66C430.963 195.047 429.97 194.74 428.716 194.74C427.45 194.74 426.396 195.047 425.556 195.66C424.73 196.273 424.263 197.093 424.156 198.12ZM461.325 211.6C459.058 211.6 457.278 210.967 455.985 209.7C454.692 208.42 454.045 206.513 454.045 203.98V184.76H460.605V190.6H465.385V195.8H460.605V202.84C460.605 203.933 460.845 204.7 461.325 205.14C461.805 205.58 462.425 205.8 463.185 205.8C463.598 205.8 464.005 205.753 464.405 205.66C464.818 205.553 465.198 205.4 465.545 205.2L466.385 210.34C465.758 210.687 465.005 210.98 464.125 211.22C463.245 211.473 462.312 211.6 461.325 211.6ZM450.085 195.8V190.6H454.645V195.8H450.085ZM470.314 211V182.2H476.874V195.16L475.514 193.54C476.394 192.46 477.44 191.6 478.654 190.96C479.867 190.32 481.207 190 482.674 190C484.58 190 486.167 190.38 487.434 191.14C488.714 191.9 489.667 192.893 490.294 194.12C490.92 195.347 491.234 196.667 491.234 198.08V211H484.674V199.92C484.674 198.747 484.334 197.793 483.654 197.06C482.974 196.327 482.02 195.953 480.794 195.94C479.967 195.927 479.26 196.093 478.674 196.44C478.1 196.773 477.654 197.26 477.334 197.9C477.027 198.527 476.874 199.273 476.874 200.14V211H470.314ZM506.146 211.6C503.906 211.6 501.939 211.153 500.246 210.26C498.552 209.353 497.232 208.093 496.286 206.48C495.339 204.853 494.866 202.953 494.866 200.78C494.866 199.207 495.139 197.76 495.686 196.44C496.246 195.12 497.019 193.98 498.006 193.02C499.006 192.06 500.179 191.32 501.526 190.8C502.886 190.267 504.379 190 506.006 190C507.792 190 509.386 190.32 510.786 190.96C512.186 191.587 513.339 192.467 514.246 193.6C515.166 194.72 515.799 196.047 516.146 197.58C516.492 199.1 516.506 200.753 516.186 202.54H500.866C500.879 203.34 501.119 204.04 501.586 204.64C502.052 205.24 502.692 205.713 503.506 206.06C504.319 206.393 505.266 206.56 506.346 206.56C507.546 206.56 508.686 206.407 509.766 206.1C510.846 205.78 511.879 205.293 512.866 204.64L514.926 209.08C514.299 209.56 513.486 209.993 512.486 210.38C511.499 210.753 510.446 211.047 509.326 211.26C508.219 211.487 507.159 211.6 506.146 211.6ZM501.266 198.12H509.946C509.919 197.093 509.539 196.273 508.806 195.66C508.072 195.047 507.079 194.74 505.826 194.74C504.559 194.74 503.506 195.047 502.666 195.66C501.839 196.273 501.372 197.093 501.266 198.12ZM535.814 211L527.314 183H534.174L539.014 201.1L544.234 183H550.874L556.094 201.08L560.934 183H567.634L559.134 211H552.594L547.454 192.82L542.294 211H535.814ZM579.273 211.6C577.046 211.6 575.079 211.113 573.373 210.14C571.666 209.153 570.326 207.84 569.353 206.2C568.393 204.56 567.913 202.76 567.913 200.8C567.913 199.373 568.186 198.013 568.733 196.72C569.293 195.413 570.079 194.26 571.093 193.26C572.106 192.247 573.306 191.453 574.693 190.88C576.079 190.293 577.606 190 579.273 190C581.499 190 583.466 190.493 585.173 191.48C586.879 192.453 588.213 193.76 589.173 195.4C590.133 197.04 590.613 198.84 590.613 200.8C590.613 202.227 590.339 203.593 589.793 204.9C589.246 206.193 588.466 207.34 587.453 208.34C586.439 209.34 585.239 210.133 583.853 210.72C582.466 211.307 580.939 211.6 579.273 211.6ZM579.273 205.96C580.206 205.96 581.046 205.753 581.793 205.34C582.539 204.913 583.126 204.313 583.553 203.54C583.979 202.767 584.193 201.853 584.193 200.8C584.193 199.733 583.979 198.82 583.553 198.06C583.139 197.287 582.559 196.693 581.813 196.28C581.066 195.853 580.219 195.64 579.273 195.64C578.326 195.64 577.479 195.853 576.733 196.28C575.986 196.693 575.399 197.287 574.973 198.06C574.546 198.82 574.333 199.733 574.333 200.8C574.333 201.853 574.546 202.767 574.973 203.54C575.413 204.313 576.006 204.913 576.753 205.34C577.499 205.753 578.339 205.96 579.273 205.96ZM594.454 211V190.6H601.014V192.98C601.628 191.927 602.441 191.16 603.454 190.68C604.468 190.2 605.568 189.96 606.754 189.96C607.208 189.96 607.614 189.987 607.974 190.04C608.334 190.093 608.688 190.153 609.034 190.22L608.254 196.96C607.801 196.8 607.321 196.673 606.814 196.58C606.308 196.473 605.801 196.42 605.294 196.42C604.054 196.42 603.028 196.78 602.214 197.5C601.414 198.207 601.014 199.247 601.014 200.62V211H594.454ZM612.189 211V182.2H618.749V211H612.189ZM632.74 211.6C630.807 211.6 629.073 211.153 627.54 210.26C626.007 209.353 624.8 208.093 623.92 206.48C623.04 204.853 622.6 202.96 622.6 200.8C622.6 199.267 622.853 197.847 623.36 196.54C623.867 195.233 624.573 194.093 625.48 193.12C626.4 192.133 627.487 191.367 628.74 190.82C629.993 190.273 631.367 190 632.86 190C634.42 190 635.827 190.307 637.08 190.92C638.333 191.533 639.427 192.447 640.36 193.66L638.86 195.16V182.2H645.42V211H639.76V205.7L640.66 207.18C640.073 208.487 639.093 209.553 637.72 210.38C636.347 211.193 634.687 211.6 632.74 211.6ZM633.96 205.96C634.893 205.96 635.733 205.753 636.48 205.34C637.227 204.913 637.813 204.313 638.24 203.54C638.667 202.767 638.88 201.853 638.88 200.8C638.88 199.733 638.667 198.82 638.24 198.06C637.827 197.287 637.247 196.693 636.5 196.28C635.753 195.853 634.907 195.64 633.96 195.64C633.013 195.64 632.167 195.853 631.42 196.28C630.673 196.693 630.087 197.287 629.66 198.06C629.233 198.82 629.02 199.733 629.02 200.8C629.02 201.853 629.233 202.767 629.66 203.54C630.1 204.313 630.693 204.913 631.44 205.34C632.187 205.753 633.027 205.96 633.96 205.96ZM668.539 211.6C666.619 211.6 664.899 211.153 663.379 210.26C661.859 209.353 660.659 208.093 659.779 206.48C658.899 204.853 658.459 202.96 658.459 200.8C658.459 199.173 658.713 197.7 659.219 196.38C659.726 195.047 660.433 193.907 661.339 192.96C662.246 192.013 663.313 191.287 664.539 190.78C665.766 190.26 667.099 190 668.539 190C670.433 190 672.046 190.413 673.379 191.24C674.713 192.053 675.666 193.14 676.239 194.5L675.339 195.92V190.6H680.979V211H675.339V205.68L676.239 207.08C675.666 208.44 674.713 209.533 673.379 210.36C672.046 211.187 670.433 211.6 668.539 211.6ZM669.659 205.96C670.566 205.96 671.379 205.753 672.099 205.34C672.833 204.913 673.413 204.313 673.839 203.54C674.266 202.767 674.479 201.853 674.479 200.8C674.479 199.733 674.266 198.82 673.839 198.06C673.413 197.287 672.833 196.693 672.099 196.28C671.379 195.853 670.566 195.64 669.659 195.64C668.753 195.64 667.939 195.853 667.219 196.28C666.499 196.693 665.926 197.287 665.499 198.06C665.073 198.82 664.859 199.733 664.859 200.8C664.859 201.853 665.073 202.767 665.499 203.54C665.926 204.313 666.499 204.913 667.219 205.34C667.939 205.753 668.753 205.96 669.659 205.96ZM696.206 211V183H707.046C709.9 183 712.18 183.6 713.886 184.8C715.593 185.987 716.446 187.753 716.446 190.1C716.446 190.953 716.273 191.74 715.926 192.46C715.58 193.18 715.106 193.82 714.506 194.38C713.92 194.927 713.26 195.367 712.526 195.7C714.033 196.233 715.246 197.12 716.166 198.36C717.1 199.6 717.566 201.073 717.566 202.78C717.566 204.447 717.146 205.893 716.306 207.12C715.48 208.347 714.3 209.3 712.766 209.98C711.233 210.66 709.413 211 707.306 211H696.206ZM702.846 206.1H706.346C707.786 206.1 708.866 205.807 709.586 205.22C710.306 204.633 710.666 203.753 710.666 202.58C710.666 201.46 710.32 200.593 709.626 199.98C708.946 199.353 707.926 199.04 706.566 199.04H702.846V206.1ZM702.846 194.48H706.146C706.946 194.48 707.633 194.347 708.206 194.08C708.793 193.813 709.24 193.427 709.546 192.92C709.866 192.413 710.026 191.807 710.026 191.1C710.026 190.073 709.68 189.28 708.986 188.72C708.306 188.16 707.326 187.88 706.046 187.88H702.846V194.48ZM731.614 211.6C729.374 211.6 727.408 211.153 725.714 210.26C724.021 209.353 722.701 208.093 721.754 206.48C720.808 204.853 720.334 202.953 720.334 200.78C720.334 199.207 720.608 197.76 721.154 196.44C721.714 195.12 722.488 193.98 723.474 193.02C724.474 192.06 725.648 191.32 726.994 190.8C728.354 190.267 729.848 190 731.474 190C733.261 190 734.854 190.32 736.254 190.96C737.654 191.587 738.808 192.467 739.714 193.6C740.634 194.72 741.268 196.047 741.614 197.58C741.961 199.1 741.974 200.753 741.654 202.54H726.334C726.348 203.34 726.588 204.04 727.054 204.64C727.521 205.24 728.161 205.713 728.974 206.06C729.788 206.393 730.734 206.56 731.814 206.56C733.014 206.56 734.154 206.407 735.234 206.1C736.314 205.78 737.348 205.293 738.334 204.64L740.394 209.08C739.768 209.56 738.954 209.993 737.954 210.38C736.968 210.753 735.914 211.047 734.794 211.26C733.688 211.487 732.628 211.6 731.614 211.6ZM726.734 198.12H735.414C735.388 197.093 735.008 196.273 734.274 195.66C733.541 195.047 732.548 194.74 731.294 194.74C730.028 194.74 728.974 195.047 728.134 195.66C727.308 196.273 726.841 197.093 726.734 198.12ZM754.489 211.6C752.222 211.6 750.442 210.967 749.149 209.7C747.856 208.42 747.209 206.513 747.209 203.98V184.76H753.769V190.6H758.549V195.8H753.769V202.84C753.769 203.933 754.009 204.7 754.489 205.14C754.969 205.58 755.589 205.8 756.349 205.8C756.762 205.8 757.169 205.753 757.569 205.66C757.982 205.553 758.362 205.4 758.709 205.2L759.549 210.34C758.922 210.687 758.169 210.98 757.289 211.22C756.409 211.473 755.476 211.6 754.489 211.6ZM743.249 195.8V190.6H747.809V195.8H743.249ZM772.458 211.6C770.191 211.6 768.411 210.967 767.118 209.7C765.824 208.42 765.178 206.513 765.178 203.98V184.76H771.738V190.6H776.518V195.8H771.738V202.84C771.738 203.933 771.978 204.7 772.458 205.14C772.938 205.58 773.558 205.8 774.318 205.8C774.731 205.8 775.138 205.753 775.538 205.66C775.951 205.553 776.331 205.4 776.678 205.2L777.518 210.34C776.891 210.687 776.138 210.98 775.258 211.22C774.378 211.473 773.444 211.6 772.458 211.6ZM761.218 195.8V190.6H765.778V195.8H761.218ZM791.068 211.6C788.828 211.6 786.861 211.153 785.168 210.26C783.474 209.353 782.154 208.093 781.208 206.48C780.261 204.853 779.788 202.953 779.788 200.78C779.788 199.207 780.061 197.76 780.608 196.44C781.168 195.12 781.941 193.98 782.928 193.02C783.928 192.06 785.101 191.32 786.448 190.8C787.808 190.267 789.301 190 790.928 190C792.714 190 794.308 190.32 795.708 190.96C797.108 191.587 798.261 192.467 799.168 193.6C800.088 194.72 800.721 196.047 801.068 197.58C801.414 199.1 801.428 200.753 801.108 202.54H785.788C785.801 203.34 786.041 204.04 786.508 204.64C786.974 205.24 787.614 205.713 788.428 206.06C789.241 206.393 790.188 206.56 791.268 206.56C792.468 206.56 793.608 206.407 794.688 206.1C795.768 205.78 796.801 205.293 797.788 204.64L799.848 209.08C799.221 209.56 798.408 209.993 797.408 210.38C796.421 210.753 795.368 211.047 794.248 211.26C793.141 211.487 792.081 211.6 791.068 211.6ZM786.188 198.12H794.868C794.841 197.093 794.461 196.273 793.728 195.66C792.994 195.047 792.001 194.74 790.748 194.74C789.481 194.74 788.428 195.047 787.588 195.66C786.761 196.273 786.294 197.093 786.188 198.12ZM805.158 211V190.6H811.718V192.98C812.331 191.927 813.144 191.16 814.158 190.68C815.171 190.2 816.271 189.96 817.458 189.96C817.911 189.96 818.318 189.987 818.678 190.04C819.038 190.093 819.391 190.153 819.738 190.22L818.958 196.96C818.504 196.8 818.024 196.673 817.518 196.58C817.011 196.473 816.504 196.42 815.998 196.42C814.758 196.42 813.731 196.78 812.918 197.5C812.118 198.207 811.718 199.247 811.718 200.62V211H805.158ZM832.691 211V183H843.911C846.004 183 847.857 183.367 849.471 184.1C851.084 184.82 852.351 185.873 853.271 187.26C854.204 188.647 854.671 190.313 854.671 192.26C854.671 194.233 854.244 195.907 853.391 197.28C852.537 198.653 851.297 199.7 849.671 200.42C848.044 201.14 846.071 201.5 843.751 201.5H839.331V211H832.691ZM839.331 195.94H843.591C844.991 195.94 846.077 195.667 846.851 195.12C847.637 194.56 848.031 193.64 848.031 192.36C848.031 191.08 847.624 190.153 846.811 189.58C846.011 188.993 844.951 188.7 843.631 188.7H839.331V195.94ZM858.4 211V182.2H864.96V211H858.4ZM878.891 211.6C876.971 211.6 875.251 211.153 873.731 210.26C872.211 209.353 871.011 208.093 870.131 206.48C869.251 204.853 868.811 202.96 868.811 200.8C868.811 199.173 869.064 197.7 869.571 196.38C870.078 195.047 870.784 193.907 871.691 192.96C872.598 192.013 873.664 191.287 874.891 190.78C876.118 190.26 877.451 190 878.891 190C880.784 190 882.398 190.413 883.731 191.24C885.064 192.053 886.018 193.14 886.591 194.5L885.691 195.92V190.6H891.331V211H885.691V205.68L886.591 207.08C886.018 208.44 885.064 209.533 883.731 210.36C882.398 211.187 880.784 211.6 878.891 211.6ZM880.011 205.96C880.918 205.96 881.731 205.753 882.451 205.34C883.184 204.913 883.764 204.313 884.191 203.54C884.618 202.767 884.831 201.853 884.831 200.8C884.831 199.733 884.618 198.82 884.191 198.06C883.764 197.287 883.184 196.693 882.451 196.28C881.731 195.853 880.918 195.64 880.011 195.64C879.104 195.64 878.291 195.853 877.571 196.28C876.851 196.693 876.278 197.287 875.851 198.06C875.424 198.82 875.211 199.733 875.211 200.8C875.211 201.853 875.424 202.767 875.851 203.54C876.278 204.313 876.851 204.913 877.571 205.34C878.291 205.753 879.104 205.96 880.011 205.96ZM906.439 211.6C904.279 211.6 902.346 211.133 900.639 210.2C898.946 209.253 897.606 207.967 896.619 206.34C895.632 204.7 895.139 202.853 895.139 200.8C895.139 199.253 895.426 197.827 895.999 196.52C896.586 195.213 897.406 194.073 898.459 193.1C899.512 192.113 900.739 191.353 902.139 190.82C903.539 190.273 905.059 190 906.699 190C908.246 190 909.679 190.213 910.999 190.64C912.319 191.053 913.506 191.68 914.559 192.52L911.679 197.38C911.026 196.78 910.306 196.34 909.519 196.06C908.746 195.78 907.932 195.64 907.079 195.64C905.959 195.64 904.992 195.84 904.179 196.24C903.366 196.64 902.739 197.227 902.299 198C901.872 198.773 901.659 199.7 901.659 200.78C901.659 202.407 902.139 203.68 903.099 204.6C904.072 205.507 905.406 205.96 907.099 205.96C908.059 205.96 908.959 205.787 909.799 205.44C910.652 205.08 911.432 204.56 912.139 203.88L914.799 208.84C913.652 209.693 912.339 210.367 910.859 210.86C909.392 211.353 907.919 211.6 906.439 211.6ZM927.474 211.6C925.234 211.6 923.267 211.153 921.574 210.26C919.88 209.353 918.56 208.093 917.614 206.48C916.667 204.853 916.194 202.953 916.194 200.78C916.194 199.207 916.467 197.76 917.014 196.44C917.574 195.12 918.347 193.98 919.334 193.02C920.334 192.06 921.507 191.32 922.854 190.8C924.214 190.267 925.707 190 927.334 190C929.12 190 930.714 190.32 932.114 190.96C933.514 191.587 934.667 192.467 935.574 193.6C936.494 194.72 937.127 196.047 937.474 197.58C937.82 199.1 937.834 200.753 937.514 202.54H922.194C922.207 203.34 922.447 204.04 922.914 204.64C923.38 205.24 924.02 205.713 924.834 206.06C925.647 206.393 926.594 206.56 927.674 206.56C928.874 206.56 930.014 206.407 931.094 206.1C932.174 205.78 933.207 205.293 934.194 204.64L936.254 209.08C935.627 209.56 934.814 209.993 933.814 210.38C932.827 210.753 931.774 211.047 930.654 211.26C929.547 211.487 928.487 211.6 927.474 211.6ZM922.594 198.12H931.274C931.247 197.093 930.867 196.273 930.134 195.66C929.4 195.047 928.407 194.74 927.154 194.74C925.887 194.74 924.834 195.047 923.994 195.66C923.167 196.273 922.7 197.093 922.594 198.12ZM942.944 200.76L941.944 183H949.544L948.544 200.76H942.944ZM945.744 211.6C944.65 211.6 943.697 211.253 942.884 210.56C942.084 209.867 941.684 208.927 941.684 207.74C941.684 206.94 941.864 206.253 942.224 205.68C942.597 205.107 943.09 204.66 943.704 204.34C944.33 204.02 945.01 203.86 945.744 203.86C946.85 203.86 947.804 204.207 948.604 204.9C949.404 205.593 949.804 206.54 949.804 207.74C949.804 208.54 949.617 209.227 949.244 209.8C948.884 210.373 948.39 210.813 947.764 211.12C947.15 211.44 946.477 211.6 945.744 211.6Z" fill="#025949"/>
<path d="M993.26 228.26L989.12 218.9C1003.88 212.78 1011.98 203.6 1011.98 190.1L1008.56 174.8L1018.28 188.48C1015.76 191.72 1012.16 192.62 1008.74 192.62C1001.36 192.62 995.24 188.3 995.24 179.66C995.24 171.2 1001.72 166.7 1008.92 166.7C1019 166.7 1024.4 174.98 1024.4 187.58C1024.4 207.02 1012.16 221.78 993.26 228.26Z" fill="#F25C78"/>
<path d="M1032.26 228.26L1028.12 218.9C1042.88 212.78 1050.98 203.6 1050.98 190.1L1047.56 174.8L1057.28 188.48C1054.76 191.72 1051.16 192.62 1047.74 192.62C1040.36 192.62 1034.24 188.3 1034.24 179.66C1034.24 171.2 1040.72 166.7 1047.92 166.7C1058 166.7 1063.4 174.98 1063.4 187.58C1063.4 207.02 1051.16 221.78 1032.26 228.26Z" fill="#F25C78"/>
<path d="M190.74 162.74L194.88 172.1C180.12 178.22 172.02 187.4 172.02 200.9L175.44 216.2L165.72 202.52C168.24 199.28 171.84 198.38 175.26 198.38C182.64 198.38 188.76 202.7 188.76 211.34C188.76 219.8 182.28 224.3 175.08 224.3C165 224.3 159.6 216.02 159.6 203.42C159.6 183.98 171.84 169.22 190.74 162.74Z" fill="#F25C78"/>
<path d="M151.74 162.74L155.88 172.1C141.12 178.22 133.02 187.4 133.02 200.9L136.44 216.2L126.72 202.52C129.24 199.28 132.84 198.38 136.26 198.38C143.64 198.38 149.76 202.7 149.76 211.34C149.76 219.8 143.28 224.3 136.08 224.3C126 224.3 120.6 216.02 120.6 203.42C120.6 183.98 132.84 169.22 151.74 162.74Z" fill="#F25C78"/>
</svg>
