<svg width="733" height="392" viewBox="0 0 733 392" fill="none" xmlns="http://www.w3.org/2000/svg">
<path d="M230.3 209V181H236.94V191.38H247.98V181H254.62V209H247.98V197.44H236.94V209H230.3ZM270.398 209.6C268.171 209.6 266.204 209.113 264.498 208.14C262.791 207.153 261.451 205.84 260.478 204.2C259.518 202.56 259.038 200.76 259.038 198.8C259.038 197.373 259.311 196.013 259.858 194.72C260.418 193.413 261.204 192.26 262.218 191.26C263.231 190.247 264.431 189.453 265.818 188.88C267.204 188.293 268.731 188 270.398 188C272.624 188 274.591 188.493 276.298 189.48C278.004 190.453 279.338 191.76 280.298 193.4C281.258 195.04 281.738 196.84 281.738 198.8C281.738 200.227 281.464 201.593 280.918 202.9C280.371 204.193 279.591 205.34 278.578 206.34C277.564 207.34 276.364 208.133 274.978 208.72C273.591 209.307 272.064 209.6 270.398 209.6ZM270.398 203.96C271.331 203.96 272.171 203.753 272.918 203.34C273.664 202.913 274.251 202.313 274.678 201.54C275.104 200.767 275.318 199.853 275.318 198.8C275.318 197.733 275.104 196.82 274.678 196.06C274.264 195.287 273.684 194.693 272.938 194.28C272.191 193.853 271.344 193.64 270.398 193.64C269.451 193.64 268.604 193.853 267.858 194.28C267.111 194.693 266.524 195.287 266.098 196.06C265.671 196.82 265.458 197.733 265.458 198.8C265.458 199.853 265.671 200.767 266.098 201.54C266.538 202.313 267.131 202.913 267.878 203.34C268.624 203.753 269.464 203.96 270.398 203.96ZM289.084 209L282.984 188.6H289.324L292.624 201.46L296.424 188.6H302.464L306.124 201.46L309.384 188.6H315.484L309.384 209H302.864L299.324 196.62L295.604 209H289.084ZM328.308 209V181H334.948V209H328.308ZM349.95 209.6C347.683 209.6 345.903 208.967 344.61 207.7C343.317 206.42 342.67 204.513 342.67 201.98V182.76H349.23V188.6H354.01V193.8H349.23V200.84C349.23 201.933 349.47 202.7 349.95 203.14C350.43 203.58 351.05 203.8 351.81 203.8C352.223 203.8 352.63 203.753 353.03 203.66C353.443 203.553 353.823 203.4 354.17 203.2L355.01 208.34C354.383 208.687 353.63 208.98 352.75 209.22C351.87 209.473 350.937 209.6 349.95 209.6ZM338.71 193.8V188.6H343.27V193.8H338.71ZM374.518 209L366.018 181H372.878L377.718 199.1L382.938 181H389.578L394.798 199.08L399.638 181H406.338L397.838 209H391.298L386.158 190.82L380.998 209H374.518ZM417.976 209.6C415.749 209.6 413.782 209.113 412.076 208.14C410.369 207.153 409.029 205.84 408.056 204.2C407.096 202.56 406.616 200.76 406.616 198.8C406.616 197.373 406.889 196.013 407.436 194.72C407.996 193.413 408.782 192.26 409.796 191.26C410.809 190.247 412.009 189.453 413.396 188.88C414.782 188.293 416.309 188 417.976 188C420.202 188 422.169 188.493 423.876 189.48C425.582 190.453 426.916 191.76 427.876 193.4C428.836 195.04 429.316 196.84 429.316 198.8C429.316 200.227 429.042 201.593 428.496 202.9C427.949 204.193 427.169 205.34 426.156 206.34C425.142 207.34 423.942 208.133 422.556 208.72C421.169 209.307 419.642 209.6 417.976 209.6ZM417.976 203.96C418.909 203.96 419.749 203.753 420.496 203.34C421.242 202.913 421.829 202.313 422.256 201.54C422.682 200.767 422.896 199.853 422.896 198.8C422.896 197.733 422.682 196.82 422.256 196.06C421.842 195.287 421.262 194.693 420.516 194.28C419.769 193.853 418.922 193.64 417.976 193.64C417.029 193.64 416.182 193.853 415.436 194.28C414.689 194.693 414.102 195.287 413.676 196.06C413.249 196.82 413.036 197.733 413.036 198.8C413.036 199.853 413.249 200.767 413.676 201.54C414.116 202.313 414.709 202.913 415.456 203.34C416.202 203.753 417.042 203.96 417.976 203.96ZM433.158 209V188.6H439.718V190.98C440.331 189.927 441.144 189.16 442.158 188.68C443.171 188.2 444.271 187.96 445.458 187.96C445.911 187.96 446.318 187.987 446.678 188.04C447.038 188.093 447.391 188.153 447.738 188.22L446.958 194.96C446.504 194.8 446.024 194.673 445.518 194.58C445.011 194.473 444.504 194.42 443.998 194.42C442.758 194.42 441.731 194.78 440.918 195.5C440.118 196.207 439.718 197.247 439.718 198.62V209H433.158ZM450.892 209V180.2H457.452V195.36L463.592 188.6H471.192L464.052 196.84L471.832 209H464.072L459.292 201.12L457.452 203.08V209H450.892ZM482.653 209.56C480.76 209.56 479.027 209.327 477.453 208.86C475.893 208.393 474.547 207.733 473.413 206.88L475.453 202.38C476.56 203.087 477.747 203.647 479.013 204.06C480.28 204.46 481.48 204.66 482.613 204.66C483.653 204.66 484.447 204.52 484.993 204.24C485.54 203.947 485.813 203.527 485.813 202.98C485.813 202.5 485.56 202.147 485.053 201.92C484.56 201.693 483.587 201.447 482.133 201.18C479.387 200.713 477.373 199.947 476.093 198.88C474.827 197.8 474.193 196.327 474.193 194.46C474.193 193.127 474.56 191.96 475.293 190.96C476.027 189.96 477.04 189.187 478.333 188.64C479.64 188.08 481.14 187.8 482.833 187.8C484.487 187.8 486.047 188.02 487.513 188.46C488.993 188.9 490.26 189.513 491.313 190.3L489.333 194.8C488.787 194.387 488.153 194.02 487.433 193.7C486.727 193.38 485.993 193.133 485.233 192.96C484.473 192.787 483.733 192.7 483.013 192.7C482.12 192.7 481.393 192.84 480.833 193.12C480.287 193.387 480.013 193.76 480.013 194.24C480.013 194.733 480.253 195.1 480.733 195.34C481.213 195.58 482.173 195.853 483.613 196.16C486.52 196.747 488.58 197.54 489.793 198.54C491.007 199.527 491.613 200.913 491.613 202.7C491.613 204.087 491.233 205.293 490.473 206.32C489.727 207.347 488.68 208.147 487.333 208.72C486 209.28 484.44 209.56 482.653 209.56ZM499.432 199.24C499.059 197.88 498.925 196.767 499.032 195.9C499.139 195.02 499.425 194.293 499.892 193.72C500.372 193.147 500.979 192.62 501.712 192.14C502.792 191.42 503.525 190.84 503.912 190.4C504.299 189.96 504.492 189.447 504.492 188.86C504.492 188.047 504.199 187.44 503.612 187.04C503.025 186.64 502.139 186.44 500.952 186.44C499.992 186.44 499.119 186.58 498.332 186.86C497.545 187.14 496.725 187.527 495.872 188.02L494.532 182.68C494.825 182.387 495.359 182.067 496.132 181.72C496.919 181.36 497.872 181.053 498.992 180.8C500.125 180.533 501.345 180.4 502.652 180.4C504.425 180.4 506.019 180.693 507.432 181.28C508.859 181.853 509.985 182.667 510.812 183.72C511.652 184.773 512.072 186 512.072 187.4C512.072 188.253 511.919 189.02 511.612 189.7C511.305 190.38 510.812 191.053 510.132 191.72C509.452 192.373 508.559 193.08 507.452 193.84C506.705 194.36 506.165 194.84 505.832 195.28C505.499 195.72 505.305 196.247 505.252 196.86C505.212 197.46 505.252 198.253 505.372 199.24H499.432ZM502.512 209.6C501.419 209.6 500.465 209.253 499.652 208.56C498.852 207.867 498.452 206.927 498.452 205.74C498.452 204.94 498.632 204.253 498.992 203.68C499.365 203.107 499.859 202.66 500.472 202.34C501.099 202.02 501.779 201.86 502.512 201.86C503.619 201.86 504.572 202.207 505.372 202.9C506.172 203.593 506.572 204.54 506.572 205.74C506.572 206.54 506.385 207.227 506.012 207.8C505.639 208.373 505.145 208.813 504.532 209.12C503.919 209.44 503.245 209.6 502.512 209.6Z" fill="#025949"/>
<path d="M542.26 228.26L538.12 218.9C552.88 212.78 560.98 203.6 560.98 190.1L557.56 174.8L567.28 188.48C564.76 191.72 561.16 192.62 557.74 192.62C550.36 192.62 544.24 188.3 544.24 179.66C544.24 171.2 550.72 166.7 557.92 166.7C568 166.7 573.4 174.98 573.4 187.58C573.4 207.02 561.16 221.78 542.26 228.26Z" fill="#F25C78"/>
<path d="M581.26 228.26L577.12 218.9C591.88 212.78 599.98 203.6 599.98 190.1L596.56 174.8L606.28 188.48C603.76 191.72 600.16 192.62 596.74 192.62C589.36 192.62 583.24 188.3 583.24 179.66C583.24 171.2 589.72 166.7 596.92 166.7C607 166.7 612.4 174.98 612.4 187.58C612.4 207.02 600.16 221.78 581.26 228.26Z" fill="#F25C78"/>
<path d="M190.74 163.74L194.88 173.1C180.12 179.22 172.02 188.4 172.02 201.9L175.44 217.2L165.72 203.52C168.24 200.28 171.84 199.38 175.26 199.38C182.64 199.38 188.76 203.7 188.76 212.34C188.76 220.8 182.28 225.3 175.08 225.3C165 225.3 159.6 217.02 159.6 204.42C159.6 184.98 171.84 170.22 190.74 163.74Z" fill="#F25C78"/>
<path d="M151.74 163.74L155.88 173.1C141.12 179.22 133.02 188.4 133.02 201.9L136.44 217.2L126.72 203.52C129.24 200.28 132.84 199.38 136.26 199.38C143.64 199.38 149.76 203.7 149.76 212.34C149.76 220.8 143.28 225.3 136.08 225.3C126 225.3 120.6 217.02 120.6 204.42C120.6 184.98 132.84 170.22 151.74 163.74Z" fill="#F25C78"/>
</svg>
