<svg width="785" height="391" viewBox="0 0 785 391" fill="none" xmlns="http://www.w3.org/2000/svg">
<path d="M222.3 209V181H233.14C235.993 181 238.273 181.6 239.98 182.8C241.687 183.987 242.54 185.753 242.54 188.1C242.54 188.953 242.367 189.74 242.02 190.46C241.673 191.18 241.2 191.82 240.6 192.38C240.013 192.927 239.353 193.367 238.62 193.7C240.127 194.233 241.34 195.12 242.26 196.36C243.193 197.6 243.66 199.073 243.66 200.78C243.66 202.447 243.24 203.893 242.4 205.12C241.573 206.347 240.393 207.3 238.86 207.98C237.327 208.66 235.507 209 233.4 209H222.3ZM228.94 204.1H232.44C233.88 204.1 234.96 203.807 235.68 203.22C236.4 202.633 236.76 201.753 236.76 200.58C236.76 199.46 236.413 198.593 235.72 197.98C235.04 197.353 234.02 197.04 232.66 197.04H228.94V204.1ZM228.94 192.48H232.24C233.04 192.48 233.727 192.347 234.3 192.08C234.887 191.813 235.333 191.427 235.64 190.92C235.96 190.413 236.12 189.807 236.12 189.1C236.12 188.073 235.773 187.28 235.08 186.72C234.4 186.16 233.42 185.88 232.14 185.88H228.94V192.48ZM248.048 209V180.2H254.608V209H248.048ZM269.819 209.6C267.593 209.6 265.626 209.113 263.919 208.14C262.213 207.153 260.873 205.84 259.899 204.2C258.939 202.56 258.459 200.76 258.459 198.8C258.459 197.373 258.733 196.013 259.279 194.72C259.839 193.413 260.626 192.26 261.639 191.26C262.653 190.247 263.853 189.453 265.239 188.88C266.626 188.293 268.153 188 269.819 188C272.046 188 274.013 188.493 275.719 189.48C277.426 190.453 278.759 191.76 279.719 193.4C280.679 195.04 281.159 196.84 281.159 198.8C281.159 200.227 280.886 201.593 280.339 202.9C279.793 204.193 279.013 205.34 277.999 206.34C276.986 207.34 275.786 208.133 274.399 208.72C273.013 209.307 271.486 209.6 269.819 209.6ZM269.819 203.96C270.753 203.96 271.593 203.753 272.339 203.34C273.086 202.913 273.673 202.313 274.099 201.54C274.526 200.767 274.739 199.853 274.739 198.8C274.739 197.733 274.526 196.82 274.099 196.06C273.686 195.287 273.106 194.693 272.359 194.28C271.613 193.853 270.766 193.64 269.819 193.64C268.873 193.64 268.026 193.853 267.279 194.28C266.533 194.693 265.946 195.287 265.519 196.06C265.093 196.82 264.879 197.733 264.879 198.8C264.879 199.853 265.093 200.767 265.519 201.54C265.959 202.313 266.553 202.913 267.299 203.34C268.046 203.753 268.886 203.96 269.819 203.96ZM294.237 218C292.77 218 291.377 217.86 290.057 217.58C288.737 217.313 287.523 216.873 286.417 216.26L287.777 211.08C288.71 211.533 289.677 211.867 290.677 212.08C291.677 212.307 292.71 212.42 293.777 212.42C295.843 212.42 297.41 211.98 298.477 211.1C299.557 210.233 300.097 209 300.097 207.4V202.92L300.937 204.32C300.417 205.667 299.503 206.733 298.197 207.52C296.903 208.307 295.303 208.7 293.397 208.7C291.423 208.7 289.697 208.26 288.217 207.38C286.737 206.5 285.583 205.28 284.757 203.72C283.93 202.16 283.517 200.367 283.517 198.34C283.517 196.833 283.75 195.447 284.217 194.18C284.683 192.913 285.35 191.82 286.217 190.9C287.097 189.967 288.143 189.253 289.357 188.76C290.57 188.253 291.917 188 293.397 188C295.303 188 296.903 188.393 298.197 189.18C299.503 189.953 300.417 191.013 300.937 192.36L300.097 193.78V188.56H306.017V206.3C306.017 210.047 305.01 212.933 302.997 214.96C300.983 216.987 298.063 218 294.237 218ZM294.717 203.2C295.65 203.2 296.477 203 297.197 202.6C297.93 202.2 298.497 201.633 298.897 200.9C299.31 200.167 299.517 199.313 299.517 198.34C299.517 197.38 299.31 196.533 298.897 195.8C298.497 195.067 297.93 194.5 297.197 194.1C296.477 193.687 295.65 193.48 294.717 193.48C293.77 193.48 292.937 193.687 292.217 194.1C291.497 194.5 290.93 195.067 290.517 195.8C290.103 196.533 289.897 197.38 289.897 198.34C289.897 199.313 290.103 200.167 290.517 200.9C290.93 201.633 291.497 202.2 292.217 202.6C292.937 203 293.77 203.2 294.717 203.2ZM330.405 209.6C328.179 209.6 326.212 209.113 324.505 208.14C322.799 207.153 321.459 205.84 320.485 204.2C319.525 202.56 319.045 200.76 319.045 198.8C319.045 197.373 319.319 196.013 319.865 194.72C320.425 193.413 321.212 192.26 322.225 191.26C323.239 190.247 324.439 189.453 325.825 188.88C327.212 188.293 328.739 188 330.405 188C332.632 188 334.599 188.493 336.305 189.48C338.012 190.453 339.345 191.76 340.305 193.4C341.265 195.04 341.745 196.84 341.745 198.8C341.745 200.227 341.472 201.593 340.925 202.9C340.379 204.193 339.599 205.34 338.585 206.34C337.572 207.34 336.372 208.133 334.985 208.72C333.599 209.307 332.072 209.6 330.405 209.6ZM330.405 203.96C331.339 203.96 332.179 203.753 332.925 203.34C333.672 202.913 334.259 202.313 334.685 201.54C335.112 200.767 335.325 199.853 335.325 198.8C335.325 197.733 335.112 196.82 334.685 196.06C334.272 195.287 333.692 194.693 332.945 194.28C332.199 193.853 331.352 193.64 330.405 193.64C329.459 193.64 328.612 193.853 327.865 194.28C327.119 194.693 326.532 195.287 326.105 196.06C325.679 196.82 325.465 197.733 325.465 198.8C325.465 199.853 325.679 200.767 326.105 201.54C326.545 202.313 327.139 202.913 327.885 203.34C328.632 203.753 329.472 203.96 330.405 203.96ZM347.092 209V186.74C347.092 184.567 347.739 182.833 349.032 181.54C350.339 180.247 352.199 179.6 354.612 179.6C355.399 179.6 356.159 179.68 356.892 179.84C357.625 180 358.345 180.253 359.052 180.6L358.092 185.58C357.705 185.367 357.332 185.22 356.972 185.14C356.625 185.06 356.292 185.02 355.972 185.02C355.252 185.02 354.679 185.187 354.252 185.52C353.839 185.853 353.632 186.373 353.632 187.08V188.6H358.612V193.8H353.632V209H347.092ZM343.532 193.8V188.6H347.692V193.8H343.532ZM380.348 209.6C378.082 209.6 376.302 208.967 375.008 207.7C373.715 206.42 373.068 204.513 373.068 201.98V182.76H379.628V188.6H384.408V193.8H379.628V200.84C379.628 201.933 379.868 202.7 380.348 203.14C380.828 203.58 381.448 203.8 382.208 203.8C382.622 203.8 383.028 203.753 383.428 203.66C383.842 203.553 384.222 203.4 384.568 203.2L385.408 208.34C384.782 208.687 384.028 208.98 383.148 209.22C382.268 209.473 381.335 209.6 380.348 209.6ZM369.108 193.8V188.6H373.668V193.8H369.108ZM389.337 209V180.2H395.897V193.16L394.537 191.54C395.417 190.46 396.464 189.6 397.677 188.96C398.891 188.32 400.231 188 401.697 188C403.604 188 405.191 188.38 406.457 189.14C407.737 189.9 408.691 190.893 409.317 192.12C409.944 193.347 410.257 194.667 410.257 196.08V209H403.697V197.92C403.697 196.747 403.357 195.793 402.677 195.06C401.997 194.327 401.044 193.953 399.817 193.94C398.991 193.927 398.284 194.093 397.697 194.44C397.124 194.773 396.677 195.26 396.357 195.9C396.051 196.527 395.897 197.273 395.897 198.14V209H389.337ZM425.169 209.6C422.929 209.6 420.962 209.153 419.269 208.26C417.576 207.353 416.256 206.093 415.309 204.48C414.362 202.853 413.889 200.953 413.889 198.78C413.889 197.207 414.162 195.76 414.709 194.44C415.269 193.12 416.042 191.98 417.029 191.02C418.029 190.06 419.202 189.32 420.549 188.8C421.909 188.267 423.402 188 425.029 188C426.816 188 428.409 188.32 429.809 188.96C431.209 189.587 432.362 190.467 433.269 191.6C434.189 192.72 434.822 194.047 435.169 195.58C435.516 197.1 435.529 198.753 435.209 200.54H419.889C419.902 201.34 420.142 202.04 420.609 202.64C421.076 203.24 421.716 203.713 422.529 204.06C423.342 204.393 424.289 204.56 425.369 204.56C426.569 204.56 427.709 204.407 428.789 204.1C429.869 203.78 430.902 203.293 431.889 202.64L433.949 207.08C433.322 207.56 432.509 207.993 431.509 208.38C430.522 208.753 429.469 209.047 428.349 209.26C427.242 209.487 426.182 209.6 425.169 209.6ZM420.289 196.12H428.969C428.942 195.093 428.562 194.273 427.829 193.66C427.096 193.047 426.102 192.74 424.849 192.74C423.582 192.74 422.529 193.047 421.689 193.66C420.862 194.273 420.396 195.093 420.289 196.12ZM449.058 209V181H455.438L466.078 198.66L463.438 198.68L473.558 181H479.918V209H473.478L473.598 189.48L474.778 189.9L466.698 203.72H462.278L453.878 189.9L455.018 189.48L455.138 209H449.058ZM495.679 209.6C493.452 209.6 491.485 209.113 489.779 208.14C488.072 207.153 486.732 205.84 485.759 204.2C484.799 202.56 484.319 200.76 484.319 198.8C484.319 197.373 484.592 196.013 485.139 194.72C485.699 193.413 486.485 192.26 487.499 191.26C488.512 190.247 489.712 189.453 491.099 188.88C492.485 188.293 494.012 188 495.679 188C497.905 188 499.872 188.493 501.579 189.48C503.285 190.453 504.619 191.76 505.579 193.4C506.539 195.04 507.019 196.84 507.019 198.8C507.019 200.227 506.745 201.593 506.199 202.9C505.652 204.193 504.872 205.34 503.859 206.34C502.845 207.34 501.645 208.133 500.259 208.72C498.872 209.307 497.345 209.6 495.679 209.6ZM495.679 203.96C496.612 203.96 497.452 203.753 498.199 203.34C498.945 202.913 499.532 202.313 499.959 201.54C500.385 200.767 500.599 199.853 500.599 198.8C500.599 197.733 500.385 196.82 499.959 196.06C499.545 195.287 498.965 194.693 498.219 194.28C497.472 193.853 496.625 193.64 495.679 193.64C494.732 193.64 493.885 193.853 493.139 194.28C492.392 194.693 491.805 195.287 491.379 196.06C490.952 196.82 490.739 197.733 490.739 198.8C490.739 199.853 490.952 200.767 491.379 201.54C491.819 202.313 492.412 202.913 493.159 203.34C493.905 203.753 494.745 203.96 495.679 203.96ZM510.861 209V188.6H517.421V190.76C518.181 189.8 519.081 189.1 520.121 188.66C521.161 188.22 522.254 188 523.401 188C525.321 188 526.901 188.38 528.141 189.14C529.381 189.887 530.294 190.86 530.881 192.06C531.481 193.247 531.781 194.507 531.781 195.84V209H525.221V197.9C525.221 196.673 524.894 195.707 524.241 195C523.601 194.293 522.654 193.94 521.401 193.94C520.601 193.94 519.901 194.113 519.301 194.46C518.714 194.807 518.254 195.3 517.921 195.94C517.587 196.567 517.421 197.287 517.421 198.1V209H510.861ZM545.622 209.6C543.355 209.6 541.575 208.967 540.282 207.7C538.989 206.42 538.342 204.513 538.342 201.98V182.76H544.902V188.6H549.682V193.8H544.902V200.84C544.902 201.933 545.142 202.7 545.622 203.14C546.102 203.58 546.722 203.8 547.482 203.8C547.895 203.8 548.302 203.753 548.702 203.66C549.115 203.553 549.495 203.4 549.842 203.2L550.682 208.34C550.055 208.687 549.302 208.98 548.422 209.22C547.542 209.473 546.609 209.6 545.622 209.6ZM534.382 193.8V188.6H538.942V193.8H534.382ZM554.611 209V180.2H561.171V193.16L559.811 191.54C560.691 190.46 561.737 189.6 562.951 188.96C564.164 188.32 565.504 188 566.971 188C568.877 188 570.464 188.38 571.731 189.14C573.011 189.9 573.964 190.893 574.591 192.12C575.217 193.347 575.531 194.667 575.531 196.08V209H568.971V197.92C568.971 196.747 568.631 195.793 567.951 195.06C567.271 194.327 566.317 193.953 565.091 193.94C564.264 193.927 563.557 194.093 562.971 194.44C562.397 194.773 561.951 195.26 561.631 195.9C561.324 196.527 561.171 197.273 561.171 198.14V209H554.611Z" fill="#025949"/>
<path d="M594.26 228.26L590.12 218.9C604.88 212.78 612.98 203.6 612.98 190.1L609.56 174.8L619.28 188.48C616.76 191.72 613.16 192.62 609.74 192.62C602.36 192.62 596.24 188.3 596.24 179.66C596.24 171.2 602.72 166.7 609.92 166.7C620 166.7 625.4 174.98 625.4 187.58C625.4 207.02 613.16 221.78 594.26 228.26Z" fill="#F25C78"/>
<path d="M633.26 228.26L629.12 218.9C643.88 212.78 651.98 203.6 651.98 190.1L648.56 174.8L658.28 188.48C655.76 191.72 652.16 192.62 648.74 192.62C641.36 192.62 635.24 188.3 635.24 179.66C635.24 171.2 641.72 166.7 648.92 166.7C659 166.7 664.4 174.98 664.4 187.58C664.4 207.02 652.16 221.78 633.26 228.26Z" fill="#F25C78"/>
<path d="M190.74 162.74L194.88 172.1C180.12 178.22 172.02 187.4 172.02 200.9L175.44 216.2L165.72 202.52C168.24 199.28 171.84 198.38 175.26 198.38C182.64 198.38 188.76 202.7 188.76 211.34C188.76 219.8 182.28 224.3 175.08 224.3C165 224.3 159.6 216.02 159.6 203.42C159.6 183.98 171.84 169.22 190.74 162.74Z" fill="#F25C78"/>
<path d="M151.74 162.74L155.88 172.1C141.12 178.22 133.02 187.4 133.02 200.9L136.44 216.2L126.72 202.52C129.24 199.28 132.84 198.38 136.26 198.38C143.64 198.38 149.76 202.7 149.76 211.34C149.76 219.8 143.28 224.3 136.08 224.3C126 224.3 120.6 216.02 120.6 203.42C120.6 183.98 132.84 169.22 151.74 162.74Z" fill="#F25C78"/>
</svg>
