<svg width="731" height="391" viewBox="0 0 731 391" fill="none" xmlns="http://www.w3.org/2000/svg">
<path d="M222.3 209V181H240.74V187.06H228.94V192.84H239.5V198.66H228.94V209H222.3ZM254.193 209.6C251.953 209.6 249.986 209.153 248.293 208.26C246.599 207.353 245.279 206.093 244.333 204.48C243.386 202.853 242.913 200.953 242.913 198.78C242.913 197.207 243.186 195.76 243.733 194.44C244.293 193.12 245.066 191.98 246.053 191.02C247.053 190.06 248.226 189.32 249.573 188.8C250.933 188.267 252.426 188 254.053 188C255.839 188 257.433 188.32 258.833 188.96C260.233 189.587 261.386 190.467 262.293 191.6C263.213 192.72 263.846 194.047 264.193 195.58C264.539 197.1 264.553 198.753 264.233 200.54H248.913C248.926 201.34 249.166 202.04 249.633 202.64C250.099 203.24 250.739 203.713 251.553 204.06C252.366 204.393 253.313 204.56 254.393 204.56C255.593 204.56 256.733 204.407 257.813 204.1C258.893 203.78 259.926 203.293 260.913 202.64L262.973 207.08C262.346 207.56 261.533 207.993 260.533 208.38C259.546 208.753 258.493 209.047 257.373 209.26C256.266 209.487 255.206 209.6 254.193 209.6ZM249.313 196.12H257.993C257.966 195.093 257.586 194.273 256.853 193.66C256.119 193.047 255.126 192.74 253.873 192.74C252.606 192.74 251.553 193.047 250.713 193.66C249.886 194.273 249.419 195.093 249.313 196.12ZM276.938 209.6C275.018 209.6 273.298 209.153 271.778 208.26C270.258 207.353 269.058 206.093 268.178 204.48C267.298 202.853 266.858 200.96 266.858 198.8C266.858 197.173 267.111 195.7 267.618 194.38C268.124 193.047 268.831 191.907 269.738 190.96C270.644 190.013 271.711 189.287 272.938 188.78C274.164 188.26 275.498 188 276.938 188C278.831 188 280.444 188.413 281.778 189.24C283.111 190.053 284.064 191.14 284.638 192.5L283.738 193.92V188.6H289.378V209H283.738V203.68L284.638 205.08C284.064 206.44 283.111 207.533 281.778 208.36C280.444 209.187 278.831 209.6 276.938 209.6ZM278.058 203.96C278.964 203.96 279.778 203.753 280.498 203.34C281.231 202.913 281.811 202.313 282.238 201.54C282.664 200.767 282.878 199.853 282.878 198.8C282.878 197.733 282.664 196.82 282.238 196.06C281.811 195.287 281.231 194.693 280.498 194.28C279.778 193.853 278.964 193.64 278.058 193.64C277.151 193.64 276.338 193.853 275.618 194.28C274.898 194.693 274.324 195.287 273.898 196.06C273.471 196.82 273.258 197.733 273.258 198.8C273.258 199.853 273.471 200.767 273.898 201.54C274.324 202.313 274.898 202.913 275.618 203.34C276.338 203.753 277.151 203.96 278.058 203.96ZM303.786 209.6C301.519 209.6 299.739 208.967 298.446 207.7C297.153 206.42 296.506 204.513 296.506 201.98V182.76H303.066V188.6H307.846V193.8H303.066V200.84C303.066 201.933 303.306 202.7 303.786 203.14C304.266 203.58 304.886 203.8 305.646 203.8C306.059 203.8 306.466 203.753 306.866 203.66C307.279 203.553 307.659 203.4 308.006 203.2L308.846 208.34C308.219 208.687 307.466 208.98 306.586 209.22C305.706 209.473 304.773 209.6 303.786 209.6ZM292.546 193.8V188.6H297.106V193.8H292.546ZM320.775 209.6C318.921 209.6 317.388 209.24 316.175 208.52C314.961 207.787 314.055 206.78 313.455 205.5C312.868 204.207 312.575 202.707 312.575 201V188.6H319.135V200.02C319.135 201.14 319.428 202.027 320.015 202.68C320.615 203.333 321.481 203.66 322.615 203.66C323.348 203.66 323.988 203.5 324.535 203.18C325.095 202.847 325.521 202.393 325.815 201.82C326.121 201.247 326.275 200.58 326.275 199.82V188.6H332.835V209H327.175V206.84C326.521 207.573 325.695 208.22 324.695 208.78C323.695 209.327 322.388 209.6 320.775 209.6ZM338.283 209V188.6H344.843V190.98C345.456 189.927 346.269 189.16 347.283 188.68C348.296 188.2 349.396 187.96 350.583 187.96C351.036 187.96 351.443 187.987 351.803 188.04C352.163 188.093 352.516 188.153 352.863 188.22L352.083 194.96C351.629 194.8 351.149 194.673 350.643 194.58C350.136 194.473 349.629 194.42 349.123 194.42C347.883 194.42 346.856 194.78 346.043 195.5C345.243 196.207 344.843 197.247 344.843 198.62V209H338.283ZM365.286 209.6C363.046 209.6 361.08 209.153 359.386 208.26C357.693 207.353 356.373 206.093 355.426 204.48C354.48 202.853 354.006 200.953 354.006 198.78C354.006 197.207 354.28 195.76 354.826 194.44C355.386 193.12 356.16 191.98 357.146 191.02C358.146 190.06 359.32 189.32 360.666 188.8C362.026 188.267 363.52 188 365.146 188C366.933 188 368.526 188.32 369.926 188.96C371.326 189.587 372.48 190.467 373.386 191.6C374.306 192.72 374.94 194.047 375.286 195.58C375.633 197.1 375.646 198.753 375.326 200.54H360.006C360.02 201.34 360.26 202.04 360.726 202.64C361.193 203.24 361.833 203.713 362.646 204.06C363.46 204.393 364.406 204.56 365.486 204.56C366.686 204.56 367.826 204.407 368.906 204.1C369.986 203.78 371.02 203.293 372.006 202.64L374.066 207.08C373.44 207.56 372.626 207.993 371.626 208.38C370.64 208.753 369.586 209.047 368.466 209.26C367.36 209.487 366.3 209.6 365.286 209.6ZM360.406 196.12H369.086C369.06 195.093 368.68 194.273 367.946 193.66C367.213 193.047 366.22 192.74 364.966 192.74C363.7 192.74 362.646 193.047 361.806 193.66C360.98 194.273 360.513 195.093 360.406 196.12ZM388.092 209.6C386.158 209.6 384.425 209.153 382.892 208.26C381.358 207.353 380.152 206.093 379.272 204.48C378.392 202.853 377.952 200.96 377.952 198.8C377.952 197.267 378.205 195.847 378.712 194.54C379.218 193.233 379.925 192.093 380.832 191.12C381.752 190.133 382.838 189.367 384.092 188.82C385.345 188.273 386.718 188 388.212 188C389.772 188 391.178 188.307 392.432 188.92C393.685 189.533 394.778 190.447 395.712 191.66L394.212 193.16V180.2H400.772V209H395.112V203.7L396.012 205.18C395.425 206.487 394.445 207.553 393.072 208.38C391.698 209.193 390.038 209.6 388.092 209.6ZM389.312 203.96C390.245 203.96 391.085 203.753 391.832 203.34C392.578 202.913 393.165 202.313 393.592 201.54C394.018 200.767 394.232 199.853 394.232 198.8C394.232 197.733 394.018 196.82 393.592 196.06C393.178 195.287 392.598 194.693 391.852 194.28C391.105 193.853 390.258 193.64 389.312 193.64C388.365 193.64 387.518 193.853 386.772 194.28C386.025 194.693 385.438 195.287 385.012 196.06C384.585 196.82 384.372 197.733 384.372 198.8C384.372 199.853 384.585 200.767 385.012 201.54C385.452 202.313 386.045 202.913 386.792 203.34C387.538 203.753 388.378 203.96 389.312 203.96ZM416.011 209V181H426.851C429.704 181 431.984 181.6 433.691 182.8C435.398 183.987 436.251 185.753 436.251 188.1C436.251 188.953 436.078 189.74 435.731 190.46C435.384 191.18 434.911 191.82 434.311 192.38C433.724 192.927 433.064 193.367 432.331 193.7C433.838 194.233 435.051 195.12 435.971 196.36C436.904 197.6 437.371 199.073 437.371 200.78C437.371 202.447 436.951 203.893 436.111 205.12C435.284 206.347 434.104 207.3 432.571 207.98C431.038 208.66 429.218 209 427.111 209H416.011ZM422.651 204.1H426.151C427.591 204.1 428.671 203.807 429.391 203.22C430.111 202.633 430.471 201.753 430.471 200.58C430.471 199.46 430.124 198.593 429.431 197.98C428.751 197.353 427.731 197.04 426.371 197.04H422.651V204.1ZM422.651 192.48H425.951C426.751 192.48 427.438 192.347 428.011 192.08C428.598 191.813 429.044 191.427 429.351 190.92C429.671 190.413 429.831 189.807 429.831 189.1C429.831 188.073 429.484 187.28 428.791 186.72C428.111 186.16 427.131 185.88 425.851 185.88H422.651V192.48ZM441.759 209V180.2H448.319V209H441.759ZM463.53 209.6C461.304 209.6 459.337 209.113 457.63 208.14C455.924 207.153 454.584 205.84 453.61 204.2C452.65 202.56 452.17 200.76 452.17 198.8C452.17 197.373 452.444 196.013 452.99 194.72C453.55 193.413 454.337 192.26 455.35 191.26C456.364 190.247 457.564 189.453 458.95 188.88C460.337 188.293 461.864 188 463.53 188C465.757 188 467.724 188.493 469.43 189.48C471.137 190.453 472.47 191.76 473.43 193.4C474.39 195.04 474.87 196.84 474.87 198.8C474.87 200.227 474.597 201.593 474.05 202.9C473.504 204.193 472.724 205.34 471.71 206.34C470.697 207.34 469.497 208.133 468.11 208.72C466.724 209.307 465.197 209.6 463.53 209.6ZM463.53 203.96C464.464 203.96 465.304 203.753 466.05 203.34C466.797 202.913 467.384 202.313 467.81 201.54C468.237 200.767 468.45 199.853 468.45 198.8C468.45 197.733 468.237 196.82 467.81 196.06C467.397 195.287 466.817 194.693 466.07 194.28C465.324 193.853 464.477 193.64 463.53 193.64C462.584 193.64 461.737 193.853 460.99 194.28C460.244 194.693 459.657 195.287 459.23 196.06C458.804 196.82 458.59 197.733 458.59 198.8C458.59 199.853 458.804 200.767 459.23 201.54C459.67 202.313 460.264 202.913 461.01 203.34C461.757 203.753 462.597 203.96 463.53 203.96ZM487.947 218C486.481 218 485.088 217.86 483.768 217.58C482.448 217.313 481.234 216.873 480.128 216.26L481.488 211.08C482.421 211.533 483.388 211.867 484.388 212.08C485.388 212.307 486.421 212.42 487.487 212.42C489.554 212.42 491.121 211.98 492.188 211.1C493.268 210.233 493.808 209 493.808 207.4V202.92L494.648 204.32C494.128 205.667 493.214 206.733 491.908 207.52C490.614 208.307 489.014 208.7 487.108 208.7C485.134 208.7 483.408 208.26 481.928 207.38C480.448 206.5 479.294 205.28 478.468 203.72C477.641 202.16 477.228 200.367 477.228 198.34C477.228 196.833 477.461 195.447 477.928 194.18C478.394 192.913 479.061 191.82 479.928 190.9C480.808 189.967 481.854 189.253 483.068 188.76C484.281 188.253 485.628 188 487.108 188C489.014 188 490.614 188.393 491.908 189.18C493.214 189.953 494.128 191.013 494.648 192.36L493.808 193.78V188.56H499.728V206.3C499.728 210.047 498.721 212.933 496.708 214.96C494.694 216.987 491.774 218 487.947 218ZM488.428 203.2C489.361 203.2 490.188 203 490.908 202.6C491.641 202.2 492.208 201.633 492.608 200.9C493.021 200.167 493.228 199.313 493.228 198.34C493.228 197.38 493.021 196.533 492.608 195.8C492.208 195.067 491.641 194.5 490.908 194.1C490.188 193.687 489.361 193.48 488.428 193.48C487.481 193.48 486.648 193.687 485.928 194.1C485.208 194.5 484.641 195.067 484.228 195.8C483.814 196.533 483.608 197.38 483.608 198.34C483.608 199.313 483.814 200.167 484.228 200.9C484.641 201.633 485.208 202.2 485.928 202.6C486.648 203 487.481 203.2 488.428 203.2ZM512.818 209.56C510.924 209.56 509.191 209.327 507.618 208.86C506.058 208.393 504.711 207.733 503.578 206.88L505.618 202.38C506.724 203.087 507.911 203.647 509.178 204.06C510.444 204.46 511.644 204.66 512.778 204.66C513.818 204.66 514.611 204.52 515.158 204.24C515.704 203.947 515.978 203.527 515.978 202.98C515.978 202.5 515.724 202.147 515.218 201.92C514.724 201.693 513.751 201.447 512.298 201.18C509.551 200.713 507.538 199.947 506.258 198.88C504.991 197.8 504.358 196.327 504.358 194.46C504.358 193.127 504.724 191.96 505.458 190.96C506.191 189.96 507.204 189.187 508.498 188.64C509.804 188.08 511.304 187.8 512.997 187.8C514.651 187.8 516.211 188.02 517.678 188.46C519.158 188.9 520.424 189.513 521.478 190.3L519.498 194.8C518.951 194.387 518.318 194.02 517.598 193.7C516.891 193.38 516.158 193.133 515.398 192.96C514.638 192.787 513.898 192.7 513.178 192.7C512.284 192.7 511.558 192.84 510.998 193.12C510.451 193.387 510.178 193.76 510.178 194.24C510.178 194.733 510.418 195.1 510.898 195.34C511.378 195.58 512.338 195.853 513.778 196.16C516.684 196.747 518.744 197.54 519.958 198.54C521.171 199.527 521.778 200.913 521.778 202.7C521.778 204.087 521.398 205.293 520.638 206.32C519.891 207.347 518.844 208.147 517.498 208.72C516.164 209.28 514.604 209.56 512.818 209.56Z" fill="#025949"/>
<path d="M540.26 228.26L536.12 218.9C550.88 212.78 558.98 203.6 558.98 190.1L555.56 174.8L565.28 188.48C562.76 191.72 559.16 192.62 555.74 192.62C548.36 192.62 542.24 188.3 542.24 179.66C542.24 171.2 548.72 166.7 555.92 166.7C566 166.7 571.4 174.98 571.4 187.58C571.4 207.02 559.16 221.78 540.26 228.26Z" fill="#F25C78"/>
<path d="M579.26 228.26L575.12 218.9C589.88 212.78 597.98 203.6 597.98 190.1L594.56 174.8L604.28 188.48C601.76 191.72 598.16 192.62 594.74 192.62C587.36 192.62 581.24 188.3 581.24 179.66C581.24 171.2 587.72 166.7 594.92 166.7C605 166.7 610.4 174.98 610.4 187.58C610.4 207.02 598.16 221.78 579.26 228.26Z" fill="#F25C78"/>
<path d="M190.74 162.74L194.88 172.1C180.12 178.22 172.02 187.4 172.02 200.9L175.44 216.2L165.72 202.52C168.24 199.28 171.84 198.38 175.26 198.38C182.64 198.38 188.76 202.7 188.76 211.34C188.76 219.8 182.28 224.3 175.08 224.3C165 224.3 159.6 216.02 159.6 203.42C159.6 183.98 171.84 169.22 190.74 162.74Z" fill="#F25C78"/>
<path d="M151.74 162.74L155.88 172.1C141.12 178.22 133.02 187.4 133.02 200.9L136.44 216.2L126.72 202.52C129.24 199.28 132.84 198.38 136.26 198.38C143.64 198.38 149.76 202.7 149.76 211.34C149.76 219.8 143.28 224.3 136.08 224.3C126 224.3 120.6 216.02 120.6 203.42C120.6 183.98 132.84 169.22 151.74 162.74Z" fill="#F25C78"/>
</svg>
