<svg width="530" height="392" viewBox="0 0 530 392" fill="none" xmlns="http://www.w3.org/2000/svg">
<path d="M234.14 210.6C231.513 210.6 229.307 210.08 227.52 209.04C225.747 208 224.407 206.573 223.5 204.76C222.593 202.933 222.14 200.84 222.14 198.48V182H228.78V198.72C228.78 200.627 229.253 202.047 230.2 202.98C231.147 203.9 232.46 204.36 234.14 204.36C235.807 204.36 237.107 203.9 238.04 202.98C238.987 202.047 239.46 200.627 239.46 198.72V182H246.12V198.48C246.12 200.827 245.667 202.913 244.76 204.74C243.853 206.553 242.507 207.987 240.72 209.04C238.947 210.08 236.753 210.6 234.14 210.6ZM259.653 210.56C257.76 210.56 256.027 210.327 254.453 209.86C252.893 209.393 251.547 208.733 250.413 207.88L252.453 203.38C253.56 204.087 254.747 204.647 256.013 205.06C257.28 205.46 258.48 205.66 259.613 205.66C260.653 205.66 261.447 205.52 261.993 205.24C262.54 204.947 262.813 204.527 262.813 203.98C262.813 203.5 262.56 203.147 262.053 202.92C261.56 202.693 260.587 202.447 259.133 202.18C256.387 201.713 254.373 200.947 253.093 199.88C251.827 198.8 251.193 197.327 251.193 195.46C251.193 194.127 251.56 192.96 252.293 191.96C253.027 190.96 254.04 190.187 255.333 189.64C256.64 189.08 258.14 188.8 259.833 188.8C261.487 188.8 263.047 189.02 264.513 189.46C265.993 189.9 267.26 190.513 268.313 191.3L266.333 195.8C265.787 195.387 265.153 195.02 264.433 194.7C263.727 194.38 262.993 194.133 262.233 193.96C261.473 193.787 260.733 193.7 260.013 193.7C259.12 193.7 258.393 193.84 257.833 194.12C257.287 194.387 257.013 194.76 257.013 195.24C257.013 195.733 257.253 196.1 257.733 196.34C258.213 196.58 259.173 196.853 260.613 197.16C263.52 197.747 265.58 198.54 266.793 199.54C268.007 200.527 268.613 201.913 268.613 203.7C268.613 205.087 268.233 206.293 267.473 207.32C266.727 208.347 265.68 209.147 264.333 209.72C263 210.28 261.44 210.56 259.653 210.56ZM282.552 210.6C280.312 210.6 278.345 210.153 276.652 209.26C274.959 208.353 273.639 207.093 272.692 205.48C271.745 203.853 271.272 201.953 271.272 199.78C271.272 198.207 271.545 196.76 272.092 195.44C272.652 194.12 273.425 192.98 274.412 192.02C275.412 191.06 276.585 190.32 277.932 189.8C279.292 189.267 280.785 189 282.412 189C284.199 189 285.792 189.32 287.192 189.96C288.592 190.587 289.745 191.467 290.652 192.6C291.572 193.72 292.205 195.047 292.552 196.58C292.899 198.1 292.912 199.753 292.592 201.54H277.272C277.285 202.34 277.525 203.04 277.992 203.64C278.459 204.24 279.099 204.713 279.912 205.06C280.725 205.393 281.672 205.56 282.752 205.56C283.952 205.56 285.092 205.407 286.172 205.1C287.252 204.78 288.285 204.293 289.272 203.64L291.332 208.08C290.705 208.56 289.892 208.993 288.892 209.38C287.905 209.753 286.852 210.047 285.732 210.26C284.625 210.487 283.565 210.6 282.552 210.6ZM277.672 197.12H286.352C286.325 196.093 285.945 195.273 285.212 194.66C284.479 194.047 283.485 193.74 282.232 193.74C280.965 193.74 279.912 194.047 279.072 194.66C278.245 195.273 277.779 196.093 277.672 197.12ZM296.642 210V189.6H303.202V191.98C303.815 190.927 304.629 190.16 305.642 189.68C306.655 189.2 307.755 188.96 308.942 188.96C309.395 188.96 309.802 188.987 310.162 189.04C310.522 189.093 310.875 189.153 311.222 189.22L310.442 195.96C309.989 195.8 309.509 195.673 309.002 195.58C308.495 195.473 307.989 195.42 307.482 195.42C306.242 195.42 305.215 195.78 304.402 196.5C303.602 197.207 303.202 198.247 303.202 199.62V210H296.642Z" fill="#025949"/>
<path d="M339.26 228.26L335.12 218.9C349.88 212.78 357.98 203.6 357.98 190.1L354.56 174.8L364.28 188.48C361.76 191.72 358.16 192.62 354.74 192.62C347.36 192.62 341.24 188.3 341.24 179.66C341.24 171.2 347.72 166.7 354.92 166.7C365 166.7 370.4 174.98 370.4 187.58C370.4 207.02 358.16 221.78 339.26 228.26Z" fill="#F25C78"/>
<path d="M378.26 228.26L374.12 218.9C388.88 212.78 396.98 203.6 396.98 190.1L393.56 174.8L403.28 188.48C400.76 191.72 397.16 192.62 393.74 192.62C386.36 192.62 380.24 188.3 380.24 179.66C380.24 171.2 386.72 166.7 393.92 166.7C404 166.7 409.4 174.98 409.4 187.58C409.4 207.02 397.16 221.78 378.26 228.26Z" fill="#F25C78"/>
<path d="M190.74 163.74L194.88 173.1C180.12 179.22 172.02 188.4 172.02 201.9L175.44 217.2L165.72 203.52C168.24 200.28 171.84 199.38 175.26 199.38C182.64 199.38 188.76 203.7 188.76 212.34C188.76 220.8 182.28 225.3 175.08 225.3C165 225.3 159.6 217.02 159.6 204.42C159.6 184.98 171.84 170.22 190.74 163.74Z" fill="#F25C78"/>
<path d="M151.74 163.74L155.88 173.1C141.12 179.22 133.02 188.4 133.02 201.9L136.44 217.2L126.72 203.52C129.24 200.28 132.84 199.38 136.26 199.38C143.64 199.38 149.76 203.7 149.76 212.34C149.76 220.8 143.28 225.3 136.08 225.3C126 225.3 120.6 217.02 120.6 204.42C120.6 184.98 132.84 170.22 151.74 163.74Z" fill="#F25C78"/>
</svg>
